<?xml version="1.0" encoding="UTF-8" standalone="no"?><svg xmlns="http://www.w3.org/2000/svg" xmlns:xlink="http://www.w3.org/1999/xlink" contentScriptType="application/ecmascript" contentStyleType="text/css" height="2635px" preserveAspectRatio="none" style="width:449px;height:2635px;" version="1.1" viewBox="0 0 449 2635" width="449px" zoomAndPan="magnify"><defs><filter height="300%" id="fbl6fr2i4sshi" width="300%" x="-1" y="-1"><feGaussianBlur result="blurOut" stdDeviation="2.0"/><feColorMatrix in="blurOut" result="blurOut2" type="matrix" values="0 0 0 0 0 0 0 0 0 0 0 0 0 0 0 0 0 0 .4 0"/><feOffset dx="4.0" dy="4.0" in="blurOut2" result="blurOut3"/><feBlend in="SourceGraphic" in2="blurOut3" mode="normal"/></filter></defs><g><!--MD5=[3d72acd73192bb5fc0ce7601b03e50df]
cluster SistemaArmazenamentoSilo--><rect fill="#FFFFFF" filter="url(#fbl6fr2i4sshi)" height="2616" style="stroke: #000000; stroke-width: 1.5;" width="332" x="105" y="7"/><text fill="#000000" font-family="sans-serif" font-size="14" font-weight="bold" lengthAdjust="spacingAndGlyphs" textLength="229" x="156.5" y="21.9951">SistemaArmazenamentoSilo</text><ellipse cx="271.228" cy="350.0456" fill="#FEFECE" filter="url(#fbl6fr2i4sshi)" rx="85.728" ry="19.5456" style="stroke: #A80036; stroke-width: 1.5;"/><text fill="#000000" font-family="sans-serif" font-size="14" lengthAdjust="spacingAndGlyphs" textLength="144" x="199.228" y="354.694">Gerenciar Categoria</text><ellipse cx="270.9811" cy="513.0962" fill="#FEFECE" filter="url(#fbl6fr2i4sshi)" rx="110.9811" ry="24.5962" style="stroke: #A80036; stroke-width: 1.5;"/><text fill="#000000" font-family="sans-serif" font-size="14" lengthAdjust="spacingAndGlyphs" textLength="200" x="170.9811" y="517.7447">Gereniar Unidade de Medida</text><ellipse cx="271.1232" cy="750.2246" fill="#FEFECE" filter="url(#fbl6fr2i4sshi)" rx="131.6232" ry="28.7246" style="stroke: #A80036; stroke-width: 1.5;"/><text fill="#000000" font-family="sans-serif" font-size="14" lengthAdjust="spacingAndGlyphs" textLength="244" x="149.1232" y="754.8731">Gerenciar(MenosExcluir) armazém</text><ellipse cx="270.85" cy="895.87" fill="#FEFECE" filter="url(#fbl6fr2i4sshi)" rx="69.85" ry="16.37" style="stroke: #A80036; stroke-width: 1.5;"/><text fill="#000000" font-family="sans-serif" font-size="14" lengthAdjust="spacingAndGlyphs" textLength="106" x="217.85" y="900.5184">Gerenciar grão</text><ellipse cx="271.2487" cy="1137.9497" fill="#FEFECE" filter="url(#fbl6fr2i4sshi)" rx="150.2487" ry="32.4497" style="stroke: #A80036; stroke-width: 1.5;"/><text fill="#000000" font-family="sans-serif" font-size="14" lengthAdjust="spacingAndGlyphs" textLength="283" x="129.7487" y="1142.5982">Gerenciar(MenosExcluir) Plano de Custo</text><ellipse cx="271.1316" cy="1311.2263" fill="#FEFECE" filter="url(#fbl6fr2i4sshi)" rx="109.1316" ry="24.2263" style="stroke: #A80036; stroke-width: 1.5;"/><text fill="#000000" font-family="sans-serif" font-size="14" lengthAdjust="spacingAndGlyphs" textLength="196" x="173.1316" y="1315.8748">Gerenciar Marca Ventilação</text><ellipse cx="271.0217" cy="1556.1043" fill="#FEFECE" filter="url(#fbl6fr2i4sshi)" rx="133.5217" ry="29.1043" style="stroke: #A80036; stroke-width: 1.5;"/><text fill="#000000" font-family="sans-serif" font-size="14" lengthAdjust="spacingAndGlyphs" textLength="248" x="147.0217" y="1560.7528">Gerenciar(MenosExcluir) Agricultor</text><ellipse cx="270.7932" cy="1710.9586" fill="#FEFECE" filter="url(#fbl6fr2i4sshi)" rx="85.2932" ry="19.4586" style="stroke: #A80036; stroke-width: 1.5;"/><text fill="#000000" font-family="sans-serif" font-size="14" lengthAdjust="spacingAndGlyphs" textLength="143" x="199.2932" y="1715.6071">Gerenciar Motorista</text><ellipse cx="271.1068" cy="1851.9214" fill="#FEFECE" filter="url(#fbl6fr2i4sshi)" rx="77.6068" ry="17.9214" style="stroke: #A80036; stroke-width: 1.5;"/><text fill="#000000" font-family="sans-serif" font-size="14" lengthAdjust="spacingAndGlyphs" textLength="125" x="208.6068" y="1856.5698">Gerenciar Usuário</text><ellipse cx="270.8093" cy="2350.7619" fill="#FEFECE" filter="url(#fbl6fr2i4sshi)" rx="96.8093" ry="21.7619" style="stroke: #A80036; stroke-width: 1.5;"/><text fill="#000000" font-family="sans-serif" font-size="14" lengthAdjust="spacingAndGlyphs" textLength="169" x="186.3093" y="2355.4103">Trocar Status Armazém</text><ellipse cx="271.211" cy="2429.9422" fill="#FEFECE" filter="url(#fbl6fr2i4sshi)" rx="97.711" ry="21.9422" style="stroke: #A80036; stroke-width: 1.5;"/><text fill="#000000" font-family="sans-serif" font-size="14" lengthAdjust="spacingAndGlyphs" textLength="171" x="185.711" y="2434.5906">Trocar Status Agricultor</text><ellipse cx="270.7711" cy="2137.7542" fill="#FEFECE" filter="url(#fbl6fr2i4sshi)" rx="76.7711" ry="17.7542" style="stroke: #A80036; stroke-width: 1.5;"/><text fill="#000000" font-family="sans-serif" font-size="14" lengthAdjust="spacingAndGlyphs" textLength="123" x="209.2711" y="2142.4027">Armazenar Grãos</text><ellipse cx="270.8237" cy="2277.8647" fill="#FEFECE" filter="url(#fbl6fr2i4sshi)" rx="64.8237" ry="15.3647" style="stroke: #A80036; stroke-width: 1.5;"/><text fill="#000000" font-family="sans-serif" font-size="14" lengthAdjust="spacingAndGlyphs" textLength="93" x="224.3237" y="2282.5132">Retirar grãos</text><ellipse cx="270.7901" cy="2505.758" fill="#FEFECE" filter="url(#fbl6fr2i4sshi)" rx="79.2901" ry="18.258" style="stroke: #A80036; stroke-width: 1.5;"/><text fill="#000000" font-family="sans-serif" font-size="14" lengthAdjust="spacingAndGlyphs" textLength="129" x="206.2901" y="2510.4065">Visualizar estoque</text><ellipse cx="271.0329" cy="2582.8066" fill="#FEFECE" filter="url(#fbl6fr2i4sshi)" rx="104.5329" ry="23.3066" style="stroke: #A80036; stroke-width: 1.5;"/><text fill="#000000" font-family="sans-serif" font-size="14" lengthAdjust="spacingAndGlyphs" textLength="186" x="178.0329" y="2587.455">Visualizar movimentações</text><ellipse cx="270.8007" cy="209.0601" fill="#FEFECE" filter="url(#fbl6fr2i4sshi)" rx="60.8007" ry="14.5601" style="stroke: #A80036; stroke-width: 1.5;"/><text fill="#000000" font-family="sans-serif" font-size="14" lengthAdjust="spacingAndGlyphs" textLength="82" x="229.8007" y="213.7086">Fazer Login</text><ellipse cx="270.9128" cy="1997.9826" fill="#FEFECE" filter="url(#fbl6fr2i4sshi)" rx="87.9128" ry="19.9826" style="stroke: #A80036; stroke-width: 1.5;"/><text fill="#000000" font-family="sans-serif" font-size="14" lengthAdjust="spacingAndGlyphs" textLength="149" x="196.4128" y="2002.631">Cadastrar Ventilação</text><ellipse cx="271.0557" cy="66.9111" fill="#FEFECE" filter="url(#fbl6fr2i4sshi)" rx="110.0557" ry="24.4111" style="stroke: #A80036; stroke-width: 1.5;"/><text fill="#000000" font-family="sans-serif" font-size="14" lengthAdjust="spacingAndGlyphs" textLength="198" x="172.0557" y="71.5596">Mensagem de Erro de Login</text><ellipse cx="270.8859" cy="142.9772" fill="#FEFECE" filter="url(#fbl6fr2i4sshi)" rx="67.8859" ry="15.9772" style="stroke: #A80036; stroke-width: 1.5;"/><text fill="#000000" font-family="sans-serif" font-size="14" lengthAdjust="spacingAndGlyphs" textLength="101" x="220.3859" y="147.6256">Verifica senha</text><ellipse cx="270.7901" cy="276.758" fill="#FEFECE" filter="url(#fbl6fr2i4sshi)" rx="79.2901" ry="18.258" style="stroke: #A80036; stroke-width: 1.5;"/><text fill="#000000" font-family="sans-serif" font-size="14" lengthAdjust="spacingAndGlyphs" textLength="129" x="206.2901" y="281.4065">Verifica Categoria</text><ellipse cx="271.2482" cy="428.9496" fill="#FEFECE" filter="url(#fbl6fr2i4sshi)" rx="107.7482" ry="23.9496" style="stroke: #A80036; stroke-width: 1.5;"/><text fill="#000000" font-family="sans-serif" font-size="14" lengthAdjust="spacingAndGlyphs" textLength="193" x="174.7482" y="433.5981">Verifica Unidade de Medida</text><ellipse cx="270.8678" cy="591.1736" fill="#FEFECE" filter="url(#fbl6fr2i4sshi)" rx="78.8678" ry="18.1736" style="stroke: #A80036; stroke-width: 1.5;"/><text fill="#000000" font-family="sans-serif" font-size="14" lengthAdjust="spacingAndGlyphs" textLength="128" x="206.8678" y="595.822">Verifica Armazém</text><ellipse cx="271.0752" cy="829.215" fill="#FEFECE" filter="url(#fbl6fr2i4sshi)" rx="64.0752" ry="15.215" style="stroke: #A80036; stroke-width: 1.5;"/><text fill="#000000" font-family="sans-serif" font-size="14" lengthAdjust="spacingAndGlyphs" textLength="91" x="225.5752" y="833.8635">Verifica grão</text><ellipse cx="270.8093" cy="969.7619" fill="#FEFECE" filter="url(#fbl6fr2i4sshi)" rx="96.8093" ry="21.7619" style="stroke: #A80036; stroke-width: 1.5;"/><text fill="#000000" font-family="sans-serif" font-size="14" lengthAdjust="spacingAndGlyphs" textLength="169" x="186.3093" y="974.4103">Verifica  Plano de Custo</text><ellipse cx="271.2481" cy="1228.8496" fill="#FEFECE" filter="url(#fbl6fr2i4sshi)" rx="102.2481" ry="22.8496" style="stroke: #A80036; stroke-width: 1.5;"/><text fill="#000000" font-family="sans-serif" font-size="14" lengthAdjust="spacingAndGlyphs" textLength="181" x="180.7481" y="1233.498">Verifica Marca Ventilação</text><ellipse cx="271.2133" cy="1388.8427" fill="#FEFECE" filter="url(#fbl6fr2i4sshi)" rx="79.7133" ry="18.3427" style="stroke: #A80036; stroke-width: 1.5;"/><text fill="#000000" font-family="sans-serif" font-size="14" lengthAdjust="spacingAndGlyphs" textLength="130" x="206.2133" y="1393.4911">Verifica Agricultor</text><ellipse cx="270.8678" cy="1638.1736" fill="#FEFECE" filter="url(#fbl6fr2i4sshi)" rx="78.8678" ry="18.1736" style="stroke: #A80036; stroke-width: 1.5;"/><text fill="#000000" font-family="sans-serif" font-size="14" lengthAdjust="spacingAndGlyphs" textLength="128" x="206.8678" y="1642.822">Verifica Motorista</text><ellipse cx="270.9465" cy="1782.1893" fill="#FEFECE" filter="url(#fbl6fr2i4sshi)" rx="71.4465" ry="16.6893" style="stroke: #A80036; stroke-width: 1.5;"/><text fill="#000000" font-family="sans-serif" font-size="14" lengthAdjust="spacingAndGlyphs" textLength="110" x="215.9465" y="1786.8377">Verifica Usuário</text><ellipse cx="270.8427" cy="1923.7685" fill="#FEFECE" filter="url(#fbl6fr2i4sshi)" rx="81.8427" ry="18.7685" style="stroke: #A80036; stroke-width: 1.5;"/><text fill="#000000" font-family="sans-serif" font-size="14" lengthAdjust="spacingAndGlyphs" textLength="135" x="203.3427" y="1928.417">Verifica Ventilação</text><ellipse cx="271.1163" cy="665.2233" fill="#FEFECE" filter="url(#fbl6fr2i4sshi)" rx="94.1163" ry="21.2233" style="stroke: #A80036; stroke-width: 1.5;"/><text fill="#000000" font-family="sans-serif" font-size="14" lengthAdjust="spacingAndGlyphs" textLength="163" x="189.6163" y="669.8717">Troca Status Armazém</text><ellipse cx="271.0118" cy="1048.9024" fill="#FEFECE" filter="url(#fbl6fr2i4sshi)" rx="95.0118" ry="21.4024" style="stroke: #A80036; stroke-width: 1.5;"/><text fill="#000000" font-family="sans-serif" font-size="14" lengthAdjust="spacingAndGlyphs" textLength="165" x="188.5118" y="1053.5508">Troca Status Agricultor</text><ellipse cx="270.9811" cy="1467.0962" fill="#FEFECE" filter="url(#fbl6fr2i4sshi)" rx="110.9811" ry="24.5962" style="stroke: #A80036; stroke-width: 1.5;"/><text fill="#000000" font-family="sans-serif" font-size="14" lengthAdjust="spacingAndGlyphs" textLength="200" x="170.9811" y="1471.7447">Troca Status Plano de Custo</text><ellipse cx="271.0794" cy="2069.0159" fill="#FEFECE" filter="url(#fbl6fr2i4sshi)" rx="65.5794" ry="15.5159" style="stroke: #A80036; stroke-width: 1.5;"/><text fill="#000000" font-family="sans-serif" font-size="14" lengthAdjust="spacingAndGlyphs" textLength="95" x="223.5794" y="2073.6643">Consome Api</text><ellipse cx="270.8678" cy="2209.1736" fill="#FEFECE" filter="url(#fbl6fr2i4sshi)" rx="78.8678" ry="18.1736" style="stroke: #A80036; stroke-width: 1.5;"/><text fill="#000000" font-family="sans-serif" font-size="14" lengthAdjust="spacingAndGlyphs" textLength="128" x="206.8678" y="2213.822">Verifica Armazem</text><!--MD5=[db756db308cf6ff8cfeeb51570136b75]
entity fc--><ellipse cx="33.5" cy="1680" fill="#FEFECE" filter="url(#fbl6fr2i4sshi)" rx="8" ry="8" style="stroke: #A80036; stroke-width: 1.5;"/><path d="M33.5,1688 L33.5,1715 M20.5,1696 L46.5,1696 M33.5,1715 L20.5,1730 M33.5,1715 L46.5,1730 " fill="none" filter="url(#fbl6fr2i4sshi)" style="stroke: #A80036; stroke-width: 1.5;"/><text fill="#000000" font-family="sans-serif" font-size="14" lengthAdjust="spacingAndGlyphs" textLength="51" x="6" y="1748.4951">Usuário</text><!--MD5=[612b73e5c39e1cdaba2c21fe17831322]
reverse link UC16 to Mensagem de Erro de Login--><path d="M209.421,214.7 C161.207,215.22 99.0606,205.98 79,158.5 C59.3484,111.99 115.479,89.06 172.036,77.79 " fill="none" id="UC16-backto-Mensagem de Erro de Login" style="stroke: #A80036; stroke-width: 1.0; stroke-dasharray: 7.0,7.0;"/><polygon fill="#A80036" points="214.633,214.6,205.5614,210.7652,209.6338,214.6914,205.7076,218.7639,214.633,214.6" style="stroke: #A80036; stroke-width: 1.0;"/><text fill="#000000" font-family="sans-serif" font-size="13" lengthAdjust="spacingAndGlyphs" textLength="52" x="137.201" y="227.4169">extends</text><!--MD5=[8cfdd8c23c5cf701851ff85cc1ec3877]
link UC16 to Verifica senha--><path d="M271,194.3 C271,184.29 271,174.28 271,164.27 " fill="none" id="UC16-to-Verifica senha" style="stroke: #A80036; stroke-width: 1.0; stroke-dasharray: 7.0,7.0;"/><polygon fill="#A80036" points="271,159.03,267,168.03,271,164.03,275,168.03,271,159.03" style="stroke: #A80036; stroke-width: 1.0;"/><text fill="#000000" font-family="sans-serif" font-size="13" lengthAdjust="spacingAndGlyphs" textLength="45" x="225" y="189.5369">include</text><!--MD5=[e492c5fdf5fc9b318c6371b26b015455]
link UC1 to Verifica Categoria--><path d="M271,330.32 C271,320.51 271,310.69 271,300.88 " fill="none" id="UC1-to-Verifica Categoria" style="stroke: #A80036; stroke-width: 1.0; stroke-dasharray: 7.0,7.0;"/><polygon fill="#A80036" points="271,295.75,267,304.75,271,300.75,275,304.75,271,295.75" style="stroke: #A80036; stroke-width: 1.0;"/><text fill="#000000" font-family="sans-serif" font-size="13" lengthAdjust="spacingAndGlyphs" textLength="45" x="225" y="325.9069">include</text><!--MD5=[517cc26f3075b49cfb50467d8721e884]
link UC2 to Verifica Unidade de Medida--><path d="M271,488.39 C271,478.38 271,468.37 271,458.36 " fill="none" id="UC2-to-Verifica Unidade de Medida" style="stroke: #A80036; stroke-width: 1.0; stroke-dasharray: 7.0,7.0;"/><polygon fill="#A80036" points="271,453.13,267,462.13,271,458.13,275,462.13,271,453.13" style="stroke: #A80036; stroke-width: 1.0;"/><text fill="#000000" font-family="sans-serif" font-size="13" lengthAdjust="spacingAndGlyphs" textLength="45" x="225" y="483.6269">include</text><!--MD5=[64d10a1e04a2ca98a25cfab9b99e4f75]
link UC3 to Verifica Armazém--><path d="M169.569,731.85 C144.848,724.96 119.162,715.62 97,703 C72.9905,689.33 68.2477,668.95 79,643.5 C96.4175,602.27 145.35,589.32 189.454,586.59 " fill="none" id="UC3-to-Verifica Armazém" style="stroke: #A80036; stroke-width: 1.0; stroke-dasharray: 7.0,7.0;"/><polygon fill="#A80036" points="194.53,586.32,185.3289,582.8073,189.5372,586.5875,185.7569,590.7958,194.53,586.32" style="stroke: #A80036; stroke-width: 1.0;"/><text fill="#000000" font-family="sans-serif" font-size="13" lengthAdjust="spacingAndGlyphs" textLength="45" x="127.284" y="601.1369">include</text><!--MD5=[73d20f4958115bf8c17d957ab7e30d4a]
link UC4 to Verifica grão--><path d="M271,879.25 C271,869.33 271,859.41 271,849.5 " fill="none" id="UC4-to-Verifica grão" style="stroke: #A80036; stroke-width: 1.0; stroke-dasharray: 7.0,7.0;"/><polygon fill="#A80036" points="271,844.31,267,853.31,271,849.31,275,853.31,271,844.31" style="stroke: #A80036; stroke-width: 1.0;"/><text fill="#000000" font-family="sans-serif" font-size="13" lengthAdjust="spacingAndGlyphs" textLength="45" x="225" y="874.6469">include</text><!--MD5=[422c4fbb0ccdad0d6ff3f51ba22c727e]
link UC5 to Verifica  Plano de Custo--><path d="M161.804,1115.53 C139.525,1108.52 116.848,1099.51 97,1088 C72.7324,1073.93 68.0821,1053.34 79,1027.5 C93.8068,992.45 130.991,976.85 168.736,970.48 " fill="none" id="UC5-to-Verifica  Plano de Custo" style="stroke: #A80036; stroke-width: 1.0; stroke-dasharray: 7.0,7.0;"/><polygon fill="#A80036" points="173.821,969.68,164.3075,967.1318,168.8821,970.4594,165.5545,975.034,173.821,969.68" style="stroke: #A80036; stroke-width: 1.0;"/><text fill="#000000" font-family="sans-serif" font-size="13" lengthAdjust="spacingAndGlyphs" textLength="45" x="97.5048" y="1105.3869">include</text><!--MD5=[88c89643bc8874cf67b8218945932110]
link UC6 to Verifica Marca Ventilação--><path d="M331.343,1290.98 C358.977,1277.44 359.857,1263.9 333.983,1250.36 " fill="none" id="UC6-to-Verifica Marca Ventilação" style="stroke: #A80036; stroke-width: 1.0; stroke-dasharray: 7.0,7.0;"/><polygon fill="#A80036" points="329.224,1248.01,335.5237,1255.5805,333.7075,1250.2232,339.0649,1248.4069,329.224,1248.01" style="stroke: #A80036; stroke-width: 1.0;"/><text fill="#000000" font-family="sans-serif" font-size="13" lengthAdjust="spacingAndGlyphs" textLength="45" x="294.061" y="1266.9169">include</text><!--MD5=[fa488402139febfe9b4a1cbd11dba0b3]
reverse link UC6 to Verifica Marca Ventilação--><path d="M206.129,1288.63 C181.592,1275.09 183.807,1261.55 212.776,1248.01 " fill="none" id="UC6-backto-Verifica Marca Ventilação" style="stroke: #A80036; stroke-width: 1.0; stroke-dasharray: 7.0,7.0;"/><polygon fill="#A80036" points="210.657,1290.98,204.5073,1283.2871,206.2179,1288.6791,200.8259,1290.3896,210.657,1290.98" style="stroke: #A80036; stroke-width: 1.0;"/><text fill="#000000" font-family="sans-serif" font-size="13" lengthAdjust="spacingAndGlyphs" textLength="45" x="154.868" y="1281.5269">include</text><!--MD5=[5068f94ea554eadbd5e7e6df9a4bfce0]
link UC7 to Verifica Agricultor--><path d="M168.203,1537.46 C143.904,1530.62 118.754,1521.39 97,1509 C70.3912,1493.85 67.0837,1470.71 79,1442.5 C96.3111,1401.53 144.648,1388.21 188.487,1385.11 " fill="none" id="UC7-to-Verifica Agricultor" style="stroke: #A80036; stroke-width: 1.0; stroke-dasharray: 7.0,7.0;"/><polygon fill="#A80036" points="193.534,1384.8,184.3021,1381.3689,188.5437,1385.1117,184.8009,1389.3533,193.534,1384.8" style="stroke: #A80036; stroke-width: 1.0;"/><text fill="#000000" font-family="sans-serif" font-size="13" lengthAdjust="spacingAndGlyphs" textLength="45" x="124.865" y="1399.9969">include</text><!--MD5=[2632477ee79c86dc14ddd8fe27cb7b19]
link UC8 to Verifica Motorista--><path d="M271,1691.324 C271,1681.391 271,1671.458 271,1661.525 " fill="none" id="UC8-to-Verifica Motorista" style="stroke: #A80036; stroke-width: 1.0; stroke-dasharray: 7.0,7.0;"/><polygon fill="#A80036" points="271,1656.33,267,1665.33,271,1661.33,275,1665.33,271,1656.33" style="stroke: #A80036; stroke-width: 1.0;"/><text fill="#000000" font-family="sans-serif" font-size="13" lengthAdjust="spacingAndGlyphs" textLength="45" x="225" y="1686.6979">include</text><!--MD5=[8f4ee180bc57d164c2ba60bf022f147b]
link UC9 to Verifica Usuário--><path d="M271,1833.953 C271,1823.93 271,1813.906 271,1803.883 " fill="none" id="UC9-to-Verifica Usuário" style="stroke: #A80036; stroke-width: 1.0; stroke-dasharray: 7.0,7.0;"/><polygon fill="#A80036" points="271,1798.641,267,1807.641,271,1803.641,275,1807.641,271,1798.641" style="stroke: #A80036; stroke-width: 1.0;"/><text fill="#000000" font-family="sans-serif" font-size="13" lengthAdjust="spacingAndGlyphs" textLength="45" x="225" y="1829.1659">include</text><!--MD5=[eaf075ac7d4767f07dd76e507c90fd66]
link UC17 to Verifica Ventilação--><path d="M271,1977.766 C271,1967.989 271,1958.212 271,1948.435 " fill="none" id="UC17-to-Verifica Ventilação" style="stroke: #A80036; stroke-width: 1.0; stroke-dasharray: 7.0,7.0;"/><polygon fill="#A80036" points="271,1943.322,267,1952.322,271,1948.322,275,1952.322,271,1943.322" style="stroke: #A80036; stroke-width: 1.0;"/><text fill="#000000" font-family="sans-serif" font-size="13" lengthAdjust="spacingAndGlyphs" textLength="45" x="225" y="1973.4169">include</text><!--MD5=[f9e075bb650f17f125ee8ea55043b668]
link UC3 to Troca Status Armazém--><path d="M271,721.45 C271,711.43 271,701.42 271,691.4 " fill="none" id="UC3-to-Troca Status Armazém" style="stroke: #A80036; stroke-width: 1.0; stroke-dasharray: 7.0,7.0;"/><polygon fill="#A80036" points="271,686.17,267,695.17,271,691.17,275,695.17,271,686.17" style="stroke: #A80036; stroke-width: 1.0;"/><text fill="#000000" font-family="sans-serif" font-size="13" lengthAdjust="spacingAndGlyphs" textLength="52" x="218" y="716.6769">extends</text><!--MD5=[a99d14047412c8153a69fdf4783b79f0]
reverse link UC5 to Troca Status Agricultor--><path d="M271,1100.16 C271,1090.29 271,1080.43 271,1070.56 " fill="none" id="UC5-backto-Troca Status Agricultor" style="stroke: #A80036; stroke-width: 1.0; stroke-dasharray: 7.0,7.0;"/><polygon fill="#A80036" points="271,1105.32,275,1096.32,271,1100.32,267,1096.32,271,1105.32" style="stroke: #A80036; stroke-width: 1.0;"/><text fill="#000000" font-family="sans-serif" font-size="13" lengthAdjust="spacingAndGlyphs" textLength="52" x="218" y="1101.2069">extends</text><!--MD5=[828f469f76dd6b935a4403a8af7bdd36]
reverse link UC7 to Troca Status Plano de Custo--><path d="M271,1521.6 C271,1511.65 271,1501.71 271,1491.76 " fill="none" id="UC7-backto-Troca Status Plano de Custo" style="stroke: #A80036; stroke-width: 1.0; stroke-dasharray: 7.0,7.0;"/><polygon fill="#A80036" points="271,1526.8,275,1517.8,271,1521.8,267,1517.8,271,1526.8" style="stroke: #A80036; stroke-width: 1.0;"/><text fill="#000000" font-family="sans-serif" font-size="13" lengthAdjust="spacingAndGlyphs" textLength="52" x="218" y="1522.5469">extends</text><!--MD5=[3b63cb70eb4b8e31f47a92fabaf5aeb4]
link UC12 to Consome Api--><path d="M271,2119.941 C271,2109.887 271,2099.833 271,2089.779 " fill="none" id="UC12-to-Consome Api" style="stroke: #A80036; stroke-width: 1.0; stroke-dasharray: 7.0,7.0;"/><polygon fill="#A80036" points="271,2084.521,267,2093.521,271,2089.521,275,2093.521,271,2084.521" style="stroke: #A80036; stroke-width: 1.0;"/><text fill="#000000" font-family="sans-serif" font-size="13" lengthAdjust="spacingAndGlyphs" textLength="45" x="225" y="2115.0989">include</text><!--MD5=[c31ee38dc9184e8c8351c4c5fb32b46a]
link UC13 to Verifica Armazem--><path d="M271,2262.367 C271,2252.426 271,2242.485 271,2232.544 " fill="none" id="UC13-to-Verifica Armazem" style="stroke: #A80036; stroke-width: 1.0; stroke-dasharray: 7.0,7.0;"/><polygon fill="#A80036" points="271,2227.345,267,2236.345,271,2232.345,275,2236.345,271,2227.345" style="stroke: #A80036; stroke-width: 1.0;"/><text fill="#000000" font-family="sans-serif" font-size="13" lengthAdjust="spacingAndGlyphs" textLength="45" x="225" y="2257.7259">include</text><!--MD5=[e9923d9fd4075a960db40f09654be8d8]
link fc to UC1--><path d="M35.0366,1670.183 C38.0703,1452.59 54.475,437.12 97,387 C117.655,362.66 150.056,351.98 181.26,347.89 " fill="none" id="fc-to-UC1" style="stroke: #A80036; stroke-width: 1.0;"/><polygon fill="#A80036" points="186.256,347.29,176.8414,344.3978,181.2921,347.8894,177.8004,352.3401,186.256,347.29" style="stroke: #A80036; stroke-width: 1.0;"/><!--MD5=[4af9e8427d276ef4a9c3c7d33d3ba91c]
link fc to UC2--><path d="M35.3498,1670.23 C39.6928,1470.02 60.6325,598.77 97,555 C112.214,536.69 133.933,525.6 156.866,519.03 " fill="none" id="fc-to-UC2" style="stroke: #A80036; stroke-width: 1.0;"/><polygon fill="#A80036" points="161.776,517.7,152.0426,516.1961,156.9504,519.0092,154.1373,523.917,161.776,517.7" style="stroke: #A80036; stroke-width: 1.0;"/><!--MD5=[71fba4d683dd6a260b46bc412e62a629]
link fc to UC3--><path d="M34.5395,1670.476 C35.0656,1502.2 40.7797,864.18 97,796 C109.577,780.75 126.584,770.24 145.045,763.05 " fill="none" id="fc-to-UC3" style="stroke: #A80036; stroke-width: 1.0;"/><polygon fill="#A80036" points="149.767,761.29,139.9378,760.6687,145.0789,763.0284,142.7192,768.1696,149.767,761.29" style="stroke: #A80036; stroke-width: 1.0;"/><!--MD5=[671315809142cbf8f95afb4988884e94]
link fc to UC4--><path d="M34.933,1670.255 C36.9322,1517.62 47.4308,985.58 97,930 C122.05,901.91 162.944,892.96 198.685,891.25 " fill="none" id="fc-to-UC4" style="stroke: #A80036; stroke-width: 1.0;"/><polygon fill="#A80036" points="203.918,891.04,194.7695,887.3925,198.9218,891.2341,195.0801,895.3864,203.918,891.04" style="stroke: #A80036; stroke-width: 1.0;"/><!--MD5=[579da7dd7a8d5bb55d216568f69ffe38]
link fc to UC5--><path d="M33.774,1670.379 C32.6511,1560.44 35.4289,1260.48 97,1188 C108.281,1174.72 122.85,1164.85 138.741,1157.54 " fill="none" id="fc-to-UC5" style="stroke: #A80036; stroke-width: 1.0;"/><polygon fill="#A80036" points="143.713,1155.35,133.8642,1155.3185,139.1375,1157.3661,137.0899,1162.6394,143.713,1155.35" style="stroke: #A80036; stroke-width: 1.0;"/><!--MD5=[f04ef6138f736af0e2ee35ff4576a85b]
link fc to UC6--><path d="M36.1429,1670.265 C40.3699,1586.38 54.4605,1398.41 97,1353 C113.57,1335.31 136.223,1324.52 159.676,1318.06 " fill="none" id="fc-to-UC6" style="stroke: #A80036; stroke-width: 1.0;"/><polygon fill="#A80036" points="164.691,1316.74,154.9704,1315.1555,159.8548,1318.0092,157.0011,1322.8935,164.691,1316.74" style="stroke: #A80036; stroke-width: 1.0;"/><!--MD5=[722ca5e842d1159c19e0c300b19a5516]
link fc to UC7--><path d="M48.6741,1670.332 C58.7456,1647.113 74.5113,1619.28 97,1602 C113.656,1589.21 133.575,1579.96 153.873,1573.28 " fill="none" id="fc-to-UC7" style="stroke: #A80036; stroke-width: 1.0;"/><polygon fill="#A80036" points="158.761,1571.72,148.9708,1570.6463,153.9978,1573.2405,151.4036,1578.2675,158.761,1571.72" style="stroke: #A80036; stroke-width: 1.0;"/><!--MD5=[4f9103fb50691a237b80f1e7fec300d3]
link fc to UC8--><path d="M61.0571,1711 C89.9552,1711 137.735,1711 180.315,1711 " fill="none" id="fc-to-UC8" style="stroke: #A80036; stroke-width: 1.0;"/><polygon fill="#A80036" points="185.481,1711,176.481,1707,180.481,1711,176.481,1715,185.481,1711" style="stroke: #A80036; stroke-width: 1.0;"/><!--MD5=[2355cd95abc723b93fd45cbdd1ecb9e7]
link fc to UC9--><path d="M49.1693,1751.675 C59.2674,1773.983 74.8924,1800.233 97,1816 C123.553,1834.938 157.888,1844.355 188.962,1848.893 " fill="none" id="fc-to-UC9" style="stroke: #A80036; stroke-width: 1.0;"/><polygon fill="#A80036" points="193.919,1849.58,185.5541,1844.3812,188.9664,1848.8929,184.4547,1852.3053,193.919,1849.58" style="stroke: #A80036; stroke-width: 1.0;"/><!--MD5=[0bad0c5d2c6be10c7254ee4dd13be2bc]
link fc to UC10--><path d="M36.0353,1751.656 C41.2396,1879.773 59.986,2269.11 97,2311 C115.255,2331.66 141.87,2342.767 168.774,2348.473 " fill="none" id="fc-to-UC10" style="stroke: #A80036; stroke-width: 1.0;"/><polygon fill="#A80036" points="173.799,2349.477,165.7576,2343.7905,168.896,2348.497,164.1896,2351.6354,173.799,2349.477" style="stroke: #A80036; stroke-width: 1.0;"/><!--MD5=[3c4cf5bbf2cf2c181d0688712cf1ace5]
link fc to UC11--><path d="M35.5084,1751.541 C39.3319,1890.518 54.9115,2341.787 97,2390 C115.131,2410.769 141.708,2421.909 168.616,2427.612 " fill="none" id="fc-to-UC11" style="stroke: #A80036; stroke-width: 1.0;"/><polygon fill="#A80036" points="173.643,2428.615,165.5997,2422.9312,168.7397,2427.6366,164.0343,2430.7766,173.643,2428.615" style="stroke: #A80036; stroke-width: 1.0;"/><!--MD5=[ca0d67a591010804dc127e11195a9af3]
link fc to UC12--><path d="M35.3503,1751.805 C38.0884,1841.596 49.538,2052.27 97,2102 C120.624,2126.752 156.501,2136.77 189.47,2140.194 " fill="none" id="fc-to-UC12" style="stroke: #A80036; stroke-width: 1.0;"/><polygon fill="#A80036" points="194.734,2140.688,186.147,2135.8647,189.7559,2140.2209,185.3997,2143.8297,194.734,2140.688" style="stroke: #A80036; stroke-width: 1.0;"/><!--MD5=[da7e1953a56f11775e9263196b099bf8]
link fc to UC13--><path d="M36.5426,1751.694 C42.8548,1870.035 63.6571,2207.974 97,2244 C123.653,2272.798 166.995,2281.28 203.627,2282.572 " fill="none" id="fc-to-UC13" style="stroke: #A80036; stroke-width: 1.0;"/><polygon fill="#A80036" points="208.98,2282.712,200.0883,2278.4768,203.9817,2282.5805,199.8779,2286.474,208.98,2282.712" style="stroke: #A80036; stroke-width: 1.0;"/><!--MD5=[71a3aaefdd69da88e7aa71e7529b11d2]
link fc to UC14--><path d="M35.0647,1751.543 C37.5169,1900.935 49.3752,2414.829 97,2469 C119.33,2494.399 154.456,2504.794 187.239,2508.393 " fill="none" id="fc-to-UC14" style="stroke: #A80036; stroke-width: 1.0;"/><polygon fill="#A80036" points="192.478,2508.913,183.919,2504.0402,187.5026,2508.4172,183.1257,2512.0008,192.478,2508.913" style="stroke: #A80036; stroke-width: 1.0;"/><!--MD5=[fbce197ccc8bd34786e0db471eaf6886]
link fc to UC15--><path d="M34.7902,1751.547 C36.2918,1909.967 45.2794,2481.409 97,2542 C113.533,2561.3683 137.377,2572.5112 162.102,2578.7187 " fill="none" id="fc-to-UC15" style="stroke: #A80036; stroke-width: 1.0;"/><polygon fill="#A80036" points="167.057,2579.8954,159.2253,2573.9235,162.1924,2578.7397,157.3762,2581.7068,167.057,2579.8954" style="stroke: #A80036; stroke-width: 1.0;"/><!--MD5=[920535a8ef135e552eff52f7e8176111]
link fc to UC16--><path d="M34.8128,1670.307 C36.7685,1438.83 48.8417,296.44 97,241 C124.412,209.44 171.957,202.48 210.275,202.83 " fill="none" id="fc-to-UC16" style="stroke: #A80036; stroke-width: 1.0;"/><polygon fill="#A80036" points="215.378,202.93,206.4503,198.7712,210.3788,202.8414,206.3086,206.77,215.378,202.93" style="stroke: #A80036; stroke-width: 1.0;"/><!--MD5=[9c1c7a06451b5aa946d3d7d4d44ff4c3]
link fc to UC17--><path d="M39.4988,1751.719 C48.0571,1814.669 67.498,1931.362 97,1960 C118.484,1980.855 148.651,1991.343 177.789,1996.333 " fill="none" id="fc-to-UC17" style="stroke: #A80036; stroke-width: 1.0;"/><polygon fill="#A80036" points="182.834,1997.145,174.5839,1991.7659,177.8975,1996.3506,173.3128,1999.6643,182.834,1997.145" style="stroke: #A80036; stroke-width: 1.0;"/><!--MD5=[a298eb181a575cdf9554afadd7c578b4]
@startuml
left to right direction
actor "Usuário " as fc
rectangle SistemaArmazenamentoSilo {
  usecase "Gerenciar Categoria" as UC1
  usecase "Gereniar Unidade de Medida" as UC2
  usecase "Gerenciar(MenosExcluir) armazém" as UC3
  usecase "Gerenciar grão" as UC4
  usecase "Gerenciar(MenosExcluir) Plano de Custo" as UC5
  usecase "Gerenciar Marca Ventilação" as UC6
  usecase "Gerenciar(MenosExcluir) Agricultor" as UC7
  usecase "Gerenciar Motorista" as UC8
  usecase "Gerenciar Usuário" as UC9
  usecase "Trocar Status Armazém" as UC10
  usecase "Trocar Status Agricultor" as UC11
  usecase "Armazenar Grãos" as UC12
  usecase "Retirar grãos" as UC13
  usecase "Visualizar estoque" as UC14
  usecase "Visualizar movimentações" as UC15
  usecase "Fazer Login" as UC16
  usecase "Cadastrar Ventilação" as UC17
  UC16 <. (Mensagem de Erro de Login) : extends
  UC16 .> (Verifica senha) : include
  UC1 .> (Verifica Categoria) : include
  UC2 .> (Verifica Unidade de Medida) : include
  UC3 .> (Verifica Armazém) : include
  UC4 .> (Verifica grão) : include
  UC5 .> (Verifica  Plano de Custo) : include
  UC6 .> (Verifica Marca Ventilação) : include
  UC7 .> (Verifica Agricultor) : include
  UC8 .> (Verifica Motorista) : include
  UC9 .> (Verifica Usuário) : include
  UC17 .> (Verifica Ventilação) : include
  UC3 .> (Troca Status Armazém) : extends 
  UC5 <. (Troca Status Agricultor) : extends
  UC7 <. (Troca Status Plano de Custo) : extends
  UC6 <. (Verifica Marca Ventilação) : include
  UC12 .> (Consome Api) : include
  UC13 .> (Verifica Armazem) : include


}

fc - -> UC1
fc - -> UC2
fc - -> UC3
fc - -> UC4
fc - -> UC5
fc - -> UC6
fc - -> UC7
fc - -> UC8
fc - -> UC9
fc - -> UC10
fc - -> UC11
fc - -> UC12
fc - -> UC13
fc - -> UC14
fc - -> UC15
fc - -> UC16
fc - -> UC17
@enduml

PlantUML version 1.2020.19(Mon Oct 12 15:10:01 UTC 2020)
(GPL source distribution)
Java Runtime: Java(TM) SE Runtime Environment
JVM: Java HotSpot(TM) 64-Bit Server VM
Default Encoding: UTF-8
Language: en
Country: US
--></g></svg>