<?xml version="1.0" encoding="UTF-8" standalone="no"?><svg xmlns="http://www.w3.org/2000/svg" xmlns:xlink="http://www.w3.org/1999/xlink" contentScriptType="application/ecmascript" contentStyleType="text/css" height="913px" preserveAspectRatio="none" style="width:2078px;height:913px;" version="1.1" viewBox="0 0 2078 913" width="2078px" zoomAndPan="magnify"><defs><filter height="300%" id="fl39ajk3sbout" width="300%" x="-1" y="-1"><feGaussianBlur result="blurOut" stdDeviation="2.0"/><feColorMatrix in="blurOut" result="blurOut2" type="matrix" values="0 0 0 0 0 0 0 0 0 0 0 0 0 0 0 0 0 0 .4 0"/><feOffset dx="4.0" dy="4.0" in="blurOut2" result="blurOut3"/><feBlend in="SourceGraphic" in2="blurOut3" mode="normal"/></filter></defs><g><!--MD5=[34f77ae20e5ca8f95616fb6f1f65f7c6]
cluster Crud_e_Modelagem--><polygon fill="#FFFFFF" filter="url(#fl39ajk3sbout)" points="16,6,174,6,181,28.2969,1410,28.2969,1410,906,16,906,16,6" style="stroke:#000000;stroke-width:1.5;"/><line style="stroke:#000000;stroke-width:1.5;" x1="16" x2="181" y1="28.2969" y2="28.2969"/><text fill="#000000" font-family="sans-serif" font-size="14" font-weight="bold" lengthAdjust="spacingAndGlyphs" textLength="152" x="20" y="20.9951">Crud_e_Modelagem</text><!--MD5=[458e484193f336cd13db74ba3cd5379a]
cluster Movimentações--><polygon fill="#FFFFFF" filter="url(#fl39ajk3sbout)" points="1434,31.5,1567,31.5,1574,53.7969,2061,53.7969,2061,842,1434,842,1434,31.5" style="stroke:#000000;stroke-width:1.5;"/><line style="stroke:#000000;stroke-width:1.5;" x1="1434" x2="1574" y1="53.7969" y2="53.7969"/><text fill="#000000" font-family="sans-serif" font-size="14" font-weight="bold" lengthAdjust="spacingAndGlyphs" textLength="127" x="1438" y="46.4951">Movimentações</text><!--MD5=[ec4e9ac521a71f7b069122f6baf1b57e]
class Pessoa--><rect codeLine="2" fill="#FEFECE" filter="url(#fl39ajk3sbout)" height="112.0234" id="Pessoa" style="stroke:#A80036;stroke-width:1.5;" width="115" x="1076.5" y="47.5"/><ellipse cx="1109.5" cy="63.5" fill="#ADD1B2" rx="11" ry="11" style="stroke:#A80036;stroke-width:1.0;"/><path d="M1111.8438,59.1719 C1110.9063,58.7344 1110.3125,58.5938 1109.4375,58.5938 C1106.8125,58.5938 1104.8125,60.6719 1104.8125,63.3906 L1104.8125,64.5156 C1104.8125,67.0938 1106.9219,68.9844 1109.8125,68.9844 C1111.0313,68.9844 1112.1875,68.6875 1112.9375,68.1406 C1113.5156,67.7344 1113.8438,67.2813 1113.8438,66.8906 C1113.8438,66.4375 1113.4531,66.0469 1112.9844,66.0469 C1112.7656,66.0469 1112.5625,66.125 1112.375,66.3125 C1111.9219,66.7969 1111.9219,66.7969 1111.7344,66.8906 C1111.3125,67.1563 1110.625,67.2813 1109.8594,67.2813 C1107.8125,67.2813 1106.5156,66.1875 1106.5156,64.4844 L1106.5156,63.3906 C1106.5156,61.6094 1107.7656,60.2969 1109.5,60.2969 C1110.0781,60.2969 1110.6875,60.4531 1111.1563,60.7031 C1111.6406,60.9844 1111.8125,61.2031 1111.9063,61.6094 C1111.9688,62.0156 1112,62.1406 1112.1406,62.2656 C1112.2813,62.4063 1112.5156,62.5156 1112.7344,62.5156 C1113,62.5156 1113.2656,62.375 1113.4375,62.1563 C1113.5469,62 1113.5781,61.8125 1113.5781,61.3906 L1113.5781,59.9688 C1113.5781,59.5313 1113.5625,59.4063 1113.4688,59.25 C1113.3125,58.9844 1113.0313,58.8438 1112.7344,58.8438 C1112.4375,58.8438 1112.2344,58.9375 1112.0156,59.25 L1111.8438,59.1719 Z " fill="#000000"/><text fill="#000000" font-family="sans-serif" font-size="12" lengthAdjust="spacingAndGlyphs" textLength="43" x="1127.5" y="67.6543">Pessoa</text><line style="stroke:#A80036;stroke-width:1.5;" x1="1077.5" x2="1190.5" y1="79.5" y2="79.5"/><rect fill="none" height="6" style="stroke:#C82930;stroke-width:1.0;" width="6" x="1084.5" y="87.5"/><text fill="#000000" font-family="sans-serif" font-size="11" lengthAdjust="spacingAndGlyphs" textLength="58" x="1096.5" y="93.7104">id: Integer</text><rect fill="none" height="6" style="stroke:#C82930;stroke-width:1.0;" width="6" x="1084.5" y="100.3047"/><text fill="#000000" font-family="sans-serif" font-size="11" lengthAdjust="spacingAndGlyphs" textLength="69" x="1096.5" y="106.5151">nome:String</text><rect fill="none" height="6" style="stroke:#C82930;stroke-width:1.0;" width="6" x="1084.5" y="113.1094"/><text fill="#000000" font-family="sans-serif" font-size="11" lengthAdjust="spacingAndGlyphs" textLength="54" x="1096.5" y="119.3198">nif: String</text><rect fill="none" height="6" style="stroke:#C82930;stroke-width:1.0;" width="6" x="1084.5" y="125.9141"/><text fill="#000000" font-family="sans-serif" font-size="11" lengthAdjust="spacingAndGlyphs" textLength="68" x="1096.5" y="132.1245">email:String</text><rect fill="none" height="6" style="stroke:#C82930;stroke-width:1.0;" width="6" x="1084.5" y="138.7188"/><text fill="#000000" font-family="sans-serif" font-size="11" lengthAdjust="spacingAndGlyphs" textLength="89" x="1096.5" y="144.9292">telefone: String</text><line style="stroke:#A80036;stroke-width:1.5;" x1="1077.5" x2="1190.5" y1="151.5234" y2="151.5234"/><!--MD5=[35a64b983c79880384a2fd9b61f0c24b]
class Usuario--><rect codeLine="10" fill="#FEFECE" filter="url(#fl39ajk3sbout)" height="73.6094" id="Usuario" style="stroke:#A80036;stroke-width:1.5;" width="112" x="1151" y="252.5"/><ellipse cx="1181.3" cy="268.5" fill="#ADD1B2" rx="11" ry="11" style="stroke:#A80036;stroke-width:1.0;"/><path d="M1183.6438,264.1719 C1182.7063,263.7344 1182.1125,263.5938 1181.2375,263.5938 C1178.6125,263.5938 1176.6125,265.6719 1176.6125,268.3906 L1176.6125,269.5156 C1176.6125,272.0938 1178.7219,273.9844 1181.6125,273.9844 C1182.8313,273.9844 1183.9875,273.6875 1184.7375,273.1406 C1185.3156,272.7344 1185.6438,272.2813 1185.6438,271.8906 C1185.6438,271.4375 1185.2531,271.0469 1184.7844,271.0469 C1184.5656,271.0469 1184.3625,271.125 1184.175,271.3125 C1183.7219,271.7969 1183.7219,271.7969 1183.5344,271.8906 C1183.1125,272.1563 1182.425,272.2813 1181.6594,272.2813 C1179.6125,272.2813 1178.3156,271.1875 1178.3156,269.4844 L1178.3156,268.3906 C1178.3156,266.6094 1179.5656,265.2969 1181.3,265.2969 C1181.8781,265.2969 1182.4875,265.4531 1182.9563,265.7031 C1183.4406,265.9844 1183.6125,266.2031 1183.7063,266.6094 C1183.7688,267.0156 1183.8,267.1406 1183.9406,267.2656 C1184.0813,267.4063 1184.3156,267.5156 1184.5344,267.5156 C1184.8,267.5156 1185.0656,267.375 1185.2375,267.1563 C1185.3469,267 1185.3781,266.8125 1185.3781,266.3906 L1185.3781,264.9688 C1185.3781,264.5313 1185.3625,264.4063 1185.2688,264.25 C1185.1125,263.9844 1184.8313,263.8438 1184.5344,263.8438 C1184.2375,263.8438 1184.0344,263.9375 1183.8156,264.25 L1183.6438,264.1719 Z " fill="#000000"/><text fill="#000000" font-family="sans-serif" font-size="12" lengthAdjust="spacingAndGlyphs" textLength="46" x="1198.7" y="272.6543">Usuario</text><line style="stroke:#A80036;stroke-width:1.5;" x1="1152" x2="1262" y1="284.5" y2="284.5"/><rect fill="none" height="6" style="stroke:#C82930;stroke-width:1.0;" width="6" x="1159" y="292.5"/><text fill="#000000" font-family="sans-serif" font-size="11" lengthAdjust="spacingAndGlyphs" textLength="71" x="1171" y="298.7104">senha:String</text><line style="stroke:#A80036;stroke-width:1.5;" x1="1152" x2="1262" y1="305.3047" y2="305.3047"/><ellipse cx="1162" cy="316.3047" fill="#84BE84" rx="3" ry="3" style="stroke:#038048;stroke-width:1.0;"/><text fill="#000000" font-family="sans-serif" font-size="11" lengthAdjust="spacingAndGlyphs" textLength="86" x="1171" y="319.5151">void methods()</text><!--MD5=[0b1628d350daeda1dc91bef617b02ae5]
class Cidade--><rect codeLine="15" fill="#FEFECE" filter="url(#fl39ajk3sbout)" height="73.6094" id="Cidade" style="stroke:#A80036;stroke-width:1.5;" width="95" x="1298.5" y="252.5"/><ellipse cx="1322.95" cy="268.5" fill="#ADD1B2" rx="11" ry="11" style="stroke:#A80036;stroke-width:1.0;"/><path d="M1325.2938,264.1719 C1324.3563,263.7344 1323.7625,263.5938 1322.8875,263.5938 C1320.2625,263.5938 1318.2625,265.6719 1318.2625,268.3906 L1318.2625,269.5156 C1318.2625,272.0938 1320.3719,273.9844 1323.2625,273.9844 C1324.4813,273.9844 1325.6375,273.6875 1326.3875,273.1406 C1326.9656,272.7344 1327.2938,272.2813 1327.2938,271.8906 C1327.2938,271.4375 1326.9031,271.0469 1326.4344,271.0469 C1326.2156,271.0469 1326.0125,271.125 1325.825,271.3125 C1325.3719,271.7969 1325.3719,271.7969 1325.1844,271.8906 C1324.7625,272.1563 1324.075,272.2813 1323.3094,272.2813 C1321.2625,272.2813 1319.9656,271.1875 1319.9656,269.4844 L1319.9656,268.3906 C1319.9656,266.6094 1321.2156,265.2969 1322.95,265.2969 C1323.5281,265.2969 1324.1375,265.4531 1324.6063,265.7031 C1325.0906,265.9844 1325.2625,266.2031 1325.3563,266.6094 C1325.4188,267.0156 1325.45,267.1406 1325.5906,267.2656 C1325.7313,267.4063 1325.9656,267.5156 1326.1844,267.5156 C1326.45,267.5156 1326.7156,267.375 1326.8875,267.1563 C1326.9969,267 1327.0281,266.8125 1327.0281,266.3906 L1327.0281,264.9688 C1327.0281,264.5313 1327.0125,264.4063 1326.9188,264.25 C1326.7625,263.9844 1326.4813,263.8438 1326.1844,263.8438 C1325.8875,263.8438 1325.6844,263.9375 1325.4656,264.25 L1325.2938,264.1719 Z " fill="#000000"/><text fill="#000000" font-family="sans-serif" font-size="12" lengthAdjust="spacingAndGlyphs" textLength="42" x="1339.05" y="272.6543">Cidade</text><line style="stroke:#A80036;stroke-width:1.5;" x1="1299.5" x2="1392.5" y1="284.5" y2="284.5"/><rect fill="none" height="6" style="stroke:#C82930;stroke-width:1.0;" width="6" x="1306.5" y="292.5"/><text fill="#000000" font-family="sans-serif" font-size="11" lengthAdjust="spacingAndGlyphs" textLength="54" x="1318.5" y="298.7104">id:Integer</text><rect fill="none" height="6" style="stroke:#C82930;stroke-width:1.0;" width="6" x="1306.5" y="305.3047"/><text fill="#000000" font-family="sans-serif" font-size="11" lengthAdjust="spacingAndGlyphs" textLength="69" x="1318.5" y="311.5151">nome:String</text><line style="stroke:#A80036;stroke-width:1.5;" x1="1299.5" x2="1392.5" y1="318.1094" y2="318.1094"/><!--MD5=[d8933eb2ae217ae3c21bf6e2973c277f]
class Estado--><rect codeLine="20" fill="#FEFECE" filter="url(#fl39ajk3sbout)" height="73.6094" id="Estado" style="stroke:#A80036;stroke-width:1.5;" width="95" x="1298.5" y="470.5"/><ellipse cx="1323.4" cy="486.5" fill="#ADD1B2" rx="11" ry="11" style="stroke:#A80036;stroke-width:1.0;"/><path d="M1325.7438,482.1719 C1324.8063,481.7344 1324.2125,481.5938 1323.3375,481.5938 C1320.7125,481.5938 1318.7125,483.6719 1318.7125,486.3906 L1318.7125,487.5156 C1318.7125,490.0938 1320.8219,491.9844 1323.7125,491.9844 C1324.9313,491.9844 1326.0875,491.6875 1326.8375,491.1406 C1327.4156,490.7344 1327.7438,490.2813 1327.7438,489.8906 C1327.7438,489.4375 1327.3531,489.0469 1326.8844,489.0469 C1326.6656,489.0469 1326.4625,489.125 1326.275,489.3125 C1325.8219,489.7969 1325.8219,489.7969 1325.6344,489.8906 C1325.2125,490.1563 1324.525,490.2813 1323.7594,490.2813 C1321.7125,490.2813 1320.4156,489.1875 1320.4156,487.4844 L1320.4156,486.3906 C1320.4156,484.6094 1321.6656,483.2969 1323.4,483.2969 C1323.9781,483.2969 1324.5875,483.4531 1325.0563,483.7031 C1325.5406,483.9844 1325.7125,484.2031 1325.8063,484.6094 C1325.8688,485.0156 1325.9,485.1406 1326.0406,485.2656 C1326.1813,485.4063 1326.4156,485.5156 1326.6344,485.5156 C1326.9,485.5156 1327.1656,485.375 1327.3375,485.1563 C1327.4469,485 1327.4781,484.8125 1327.4781,484.3906 L1327.4781,482.9688 C1327.4781,482.5313 1327.4625,482.4063 1327.3688,482.25 C1327.2125,481.9844 1326.9313,481.8438 1326.6344,481.8438 C1326.3375,481.8438 1326.1344,481.9375 1325.9156,482.25 L1325.7438,482.1719 Z " fill="#000000"/><text fill="#000000" font-family="sans-serif" font-size="12" lengthAdjust="spacingAndGlyphs" textLength="41" x="1339.6" y="490.6543">Estado</text><line style="stroke:#A80036;stroke-width:1.5;" x1="1299.5" x2="1392.5" y1="502.5" y2="502.5"/><rect fill="none" height="6" style="stroke:#C82930;stroke-width:1.0;" width="6" x="1306.5" y="510.5"/><text fill="#000000" font-family="sans-serif" font-size="11" lengthAdjust="spacingAndGlyphs" textLength="54" x="1318.5" y="516.7104">id:Integer</text><rect fill="none" height="6" style="stroke:#C82930;stroke-width:1.0;" width="6" x="1306.5" y="523.3047"/><text fill="#000000" font-family="sans-serif" font-size="11" lengthAdjust="spacingAndGlyphs" textLength="69" x="1318.5" y="529.5151">nome:String</text><line style="stroke:#A80036;stroke-width:1.5;" x1="1299.5" x2="1392.5" y1="536.1094" y2="536.1094"/><!--MD5=[f6699c9d1626f6c22719e692d65e9a11]
class Agricultor--><rect codeLine="26" fill="#FEFECE" filter="url(#fl39ajk3sbout)" height="86.4141" id="Agricultor" style="stroke:#A80036;stroke-width:1.5;" width="113" x="855.5" y="246.5"/><ellipse cx="880.85" cy="262.5" fill="#ADD1B2" rx="11" ry="11" style="stroke:#A80036;stroke-width:1.0;"/><path d="M883.1938,258.1719 C882.2563,257.7344 881.6625,257.5938 880.7875,257.5938 C878.1625,257.5938 876.1625,259.6719 876.1625,262.3906 L876.1625,263.5156 C876.1625,266.0938 878.2719,267.9844 881.1625,267.9844 C882.3813,267.9844 883.5375,267.6875 884.2875,267.1406 C884.8656,266.7344 885.1938,266.2813 885.1938,265.8906 C885.1938,265.4375 884.8031,265.0469 884.3344,265.0469 C884.1156,265.0469 883.9125,265.125 883.725,265.3125 C883.2719,265.7969 883.2719,265.7969 883.0844,265.8906 C882.6625,266.1563 881.975,266.2813 881.2094,266.2813 C879.1625,266.2813 877.8656,265.1875 877.8656,263.4844 L877.8656,262.3906 C877.8656,260.6094 879.1156,259.2969 880.85,259.2969 C881.4281,259.2969 882.0375,259.4531 882.5063,259.7031 C882.9906,259.9844 883.1625,260.2031 883.2563,260.6094 C883.3188,261.0156 883.35,261.1406 883.4906,261.2656 C883.6313,261.4063 883.8656,261.5156 884.0844,261.5156 C884.35,261.5156 884.6156,261.375 884.7875,261.1563 C884.8969,261 884.9281,260.8125 884.9281,260.3906 L884.9281,258.9688 C884.9281,258.5313 884.9125,258.4063 884.8188,258.25 C884.6625,257.9844 884.3813,257.8438 884.0844,257.8438 C883.7875,257.8438 883.5844,257.9375 883.3656,258.25 L883.1938,258.1719 Z " fill="#000000"/><text fill="#000000" font-family="sans-serif" font-size="12" lengthAdjust="spacingAndGlyphs" textLength="58" x="897.15" y="266.6543">Agricultor</text><line style="stroke:#A80036;stroke-width:1.5;" x1="856.5" x2="967.5" y1="278.5" y2="278.5"/><rect fill="none" height="6" style="stroke:#C82930;stroke-width:1.0;" width="6" x="863.5" y="286.5"/><text fill="#000000" font-family="sans-serif" font-size="11" lengthAdjust="spacingAndGlyphs" textLength="87" x="875.5" y="292.7104">imagem: String</text><rect fill="none" height="6" style="stroke:#C82930;stroke-width:1.0;" width="6" x="863.5" y="299.3047"/><text fill="#000000" font-family="sans-serif" font-size="11" lengthAdjust="spacingAndGlyphs" textLength="84" x="875.5" y="305.5151">status:Boolean</text><line style="stroke:#A80036;stroke-width:1.5;" x1="856.5" x2="967.5" y1="312.1094" y2="312.1094"/><ellipse cx="866.5" cy="323.1094" fill="#84BE84" rx="3" ry="3" style="stroke:#038048;stroke-width:1.0;"/><text fill="#000000" font-family="sans-serif" font-size="11" lengthAdjust="spacingAndGlyphs" textLength="86" x="875.5" y="326.3198">void methods()</text><!--MD5=[b93cc77a921693b14dc8d458900415a6]
class Motorista--><rect codeLine="32" fill="#FEFECE" filter="url(#fl39ajk3sbout)" height="60.8047" id="Motorista" style="stroke:#A80036;stroke-width:1.5;" width="112" x="1004" y="259"/><ellipse cx="1029.8" cy="275" fill="#ADD1B2" rx="11" ry="11" style="stroke:#A80036;stroke-width:1.0;"/><path d="M1032.1438,270.6719 C1031.2063,270.2344 1030.6125,270.0938 1029.7375,270.0938 C1027.1125,270.0938 1025.1125,272.1719 1025.1125,274.8906 L1025.1125,276.0156 C1025.1125,278.5938 1027.2219,280.4844 1030.1125,280.4844 C1031.3313,280.4844 1032.4875,280.1875 1033.2375,279.6406 C1033.8156,279.2344 1034.1438,278.7813 1034.1438,278.3906 C1034.1438,277.9375 1033.7531,277.5469 1033.2844,277.5469 C1033.0656,277.5469 1032.8625,277.625 1032.675,277.8125 C1032.2219,278.2969 1032.2219,278.2969 1032.0344,278.3906 C1031.6125,278.6563 1030.925,278.7813 1030.1594,278.7813 C1028.1125,278.7813 1026.8156,277.6875 1026.8156,275.9844 L1026.8156,274.8906 C1026.8156,273.1094 1028.0656,271.7969 1029.8,271.7969 C1030.3781,271.7969 1030.9875,271.9531 1031.4563,272.2031 C1031.9406,272.4844 1032.1125,272.7031 1032.2063,273.1094 C1032.2688,273.5156 1032.3,273.6406 1032.4406,273.7656 C1032.5813,273.9063 1032.8156,274.0156 1033.0344,274.0156 C1033.3,274.0156 1033.5656,273.875 1033.7375,273.6563 C1033.8469,273.5 1033.8781,273.3125 1033.8781,272.8906 L1033.8781,271.4688 C1033.8781,271.0313 1033.8625,270.9063 1033.7688,270.75 C1033.6125,270.4844 1033.3313,270.3438 1033.0344,270.3438 C1032.7375,270.3438 1032.5344,270.4375 1032.3156,270.75 L1032.1438,270.6719 Z " fill="#000000"/><text fill="#000000" font-family="sans-serif" font-size="12" lengthAdjust="spacingAndGlyphs" textLength="56" x="1046.2" y="279.1543">Motorista</text><line style="stroke:#A80036;stroke-width:1.5;" x1="1005" x2="1115" y1="291" y2="291"/><line style="stroke:#A80036;stroke-width:1.5;" x1="1005" x2="1115" y1="299" y2="299"/><ellipse cx="1015" cy="310" fill="#84BE84" rx="3" ry="3" style="stroke:#038048;stroke-width:1.0;"/><text fill="#000000" font-family="sans-serif" font-size="11" lengthAdjust="spacingAndGlyphs" textLength="86" x="1024" y="313.2104">void methods()</text><!--MD5=[c355dea5bcbcc83c9c79f6b6e9de012a]
class Caminhao--><rect codeLine="36" fill="#FEFECE" filter="url(#fl39ajk3sbout)" height="99.2188" id="Caminhao" style="stroke:#A80036;stroke-width:1.5;" width="153" x="983.5" y="458"/><ellipse cx="1026.85" cy="474" fill="#ADD1B2" rx="11" ry="11" style="stroke:#A80036;stroke-width:1.0;"/><path d="M1029.1938,469.6719 C1028.2563,469.2344 1027.6625,469.0938 1026.7875,469.0938 C1024.1625,469.0938 1022.1625,471.1719 1022.1625,473.8906 L1022.1625,475.0156 C1022.1625,477.5938 1024.2719,479.4844 1027.1625,479.4844 C1028.3813,479.4844 1029.5375,479.1875 1030.2875,478.6406 C1030.8656,478.2344 1031.1938,477.7813 1031.1938,477.3906 C1031.1938,476.9375 1030.8031,476.5469 1030.3344,476.5469 C1030.1156,476.5469 1029.9125,476.625 1029.725,476.8125 C1029.2719,477.2969 1029.2719,477.2969 1029.0844,477.3906 C1028.6625,477.6563 1027.975,477.7813 1027.2094,477.7813 C1025.1625,477.7813 1023.8656,476.6875 1023.8656,474.9844 L1023.8656,473.8906 C1023.8656,472.1094 1025.1156,470.7969 1026.85,470.7969 C1027.4281,470.7969 1028.0375,470.9531 1028.5063,471.2031 C1028.9906,471.4844 1029.1625,471.7031 1029.2563,472.1094 C1029.3188,472.5156 1029.35,472.6406 1029.4906,472.7656 C1029.6313,472.9063 1029.8656,473.0156 1030.0844,473.0156 C1030.35,473.0156 1030.6156,472.875 1030.7875,472.6563 C1030.8969,472.5 1030.9281,472.3125 1030.9281,471.8906 L1030.9281,470.4688 C1030.9281,470.0313 1030.9125,469.9063 1030.8188,469.75 C1030.6625,469.4844 1030.3813,469.3438 1030.0844,469.3438 C1029.7875,469.3438 1029.5844,469.4375 1029.3656,469.75 L1029.1938,469.6719 Z " fill="#000000"/><text fill="#000000" font-family="sans-serif" font-size="12" lengthAdjust="spacingAndGlyphs" textLength="58" x="1047.15" y="478.1543">Caminhao</text><line style="stroke:#A80036;stroke-width:1.5;" x1="984.5" x2="1135.5" y1="490" y2="490"/><rect fill="none" height="6" style="stroke:#C82930;stroke-width:1.0;" width="6" x="991.5" y="498"/><text fill="#000000" font-family="sans-serif" font-size="11" lengthAdjust="spacingAndGlyphs" textLength="127" x="1003.5" y="504.2104">placaCaminhao: String</text><rect fill="none" height="6" style="stroke:#C82930;stroke-width:1.0;" width="6" x="991.5" y="510.8047"/><text fill="#000000" font-family="sans-serif" font-size="11" lengthAdjust="spacingAndGlyphs" textLength="89" x="1003.5" y="517.0151">volume: double</text><rect fill="none" height="6" style="stroke:#C82930;stroke-width:1.0;" width="6" x="991.5" y="523.6094"/><text fill="#000000" font-family="sans-serif" font-size="11" lengthAdjust="spacingAndGlyphs" textLength="98" x="1003.5" y="529.8198">tamanho: Integer</text><rect fill="none" height="6" style="stroke:#C82930;stroke-width:1.0;" width="6" x="991.5" y="536.4141"/><text fill="#000000" font-family="sans-serif" font-size="11" lengthAdjust="spacingAndGlyphs" textLength="76" x="1003.5" y="542.6245">Double: peso</text><line style="stroke:#A80036;stroke-width:1.5;" x1="984.5" x2="1135.5" y1="549.2188" y2="549.2188"/><!--MD5=[3db2279e7389b856b7ec936b0d83aaff]
class MarcaCaminhao--><rect codeLine="45" fill="#FEFECE" filter="url(#fl39ajk3sbout)" height="227.2656" id="MarcaCaminhao" style="stroke:#A80036;stroke-width:1.5;" width="149" x="985.5" y="663"/><ellipse cx="1010.85" cy="679" fill="#EB937F" rx="11" ry="11" style="stroke:#A80036;stroke-width:1.0;"/><path d="M1009.6469,679.875 L1011.1,679.875 L1011.1,679.9844 C1011.1,680.3906 1011.1313,680.5469 1011.2094,680.7031 C1011.3656,680.9531 1011.6469,681.1094 1011.9438,681.1094 C1012.1938,681.1094 1012.4594,680.9688 1012.6156,680.75 C1012.7406,680.5938 1012.7719,680.4375 1012.7719,679.9844 L1012.7719,678.0625 C1012.7719,677.9063 1012.7719,677.8594 1012.7563,677.7031 C1012.6938,677.2344 1012.3813,676.9219 1011.9281,676.9219 C1011.6781,676.9219 1011.4125,677.0625 1011.2406,677.2813 C1011.1313,677.4531 1011.1,677.6094 1011.1,678.0625 L1011.1,678.1875 L1009.6469,678.1875 L1009.6469,675.7813 L1013.6313,675.7813 L1013.6313,676.6406 C1013.6313,677.0469 1013.6625,677.2188 1013.7406,677.375 C1013.9125,677.625 1014.1938,677.7813 1014.475,677.7813 C1014.7406,677.7813 1015.0063,677.6406 1015.1781,677.4219 C1015.2875,677.25 1015.3188,677.1094 1015.3188,676.6406 L1015.3188,674.0938 L1007.6938,674.0938 C1007.2563,674.0938 1007.1313,674.1094 1006.975,674.2031 C1006.725,674.3594 1006.5688,674.6563 1006.5688,674.9375 C1006.5688,675.2188 1006.7094,675.4688 1006.9281,675.6406 C1007.0844,675.75 1007.2719,675.7813 1007.6938,675.7813 L1007.9438,675.7813 L1007.9438,682.2969 L1007.6938,682.2969 C1007.2875,682.2969 1007.1313,682.3125 1006.975,682.4219 C1006.725,682.5938 1006.5688,682.8594 1006.5688,683.1563 C1006.5688,683.4219 1006.7094,683.6719 1006.9281,683.8281 C1007.0688,683.9531 1007.3031,684 1007.6938,684 L1015.6938,684 L1015.6938,681.4219 C1015.6938,680.9844 1015.6625,680.8438 1015.5844,680.6875 C1015.4125,680.4375 1015.1313,680.2813 1014.85,680.2813 C1014.5844,680.2813 1014.3188,680.3906 1014.1469,680.6406 C1014.0375,680.7969 1014.0063,680.9375 1014.0063,681.4219 L1014.0063,682.2969 L1009.6469,682.2969 L1009.6469,679.875 Z " fill="#000000"/><text fill="#000000" font-family="sans-serif" font-size="12" lengthAdjust="spacingAndGlyphs" textLength="94" x="1027.15" y="683.1543">MarcaCaminhao</text><line style="stroke:#A80036;stroke-width:1.5;" x1="986.5" x2="1133.5" y1="695" y2="695"/><text fill="#000000" font-family="sans-serif" font-size="11" lengthAdjust="spacingAndGlyphs" textLength="125" x="991.5" y="709.2104">VOLKSWAGEN:Integer</text><text fill="#000000" font-family="sans-serif" font-size="11" lengthAdjust="spacingAndGlyphs" textLength="137" x="991.5" y="722.0151">MERCEDESBENZ:Integer</text><text fill="#000000" font-family="sans-serif" font-size="11" lengthAdjust="spacingAndGlyphs" textLength="84" x="991.5" y="734.8198">VOLVO:Integer</text><text fill="#000000" font-family="sans-serif" font-size="11" lengthAdjust="spacingAndGlyphs" textLength="87" x="991.5" y="747.6245">SCANIA:Integer</text><text fill="#000000" font-family="sans-serif" font-size="11" lengthAdjust="spacingAndGlyphs" textLength="75" x="991.5" y="760.4292">FORD:Integer</text><text fill="#000000" font-family="sans-serif" font-size="11" lengthAdjust="spacingAndGlyphs" textLength="79" x="991.5" y="773.2339">IVECO:Integer</text><text fill="#000000" font-family="sans-serif" font-size="11" lengthAdjust="spacingAndGlyphs" textLength="95" x="991.5" y="786.0386">HYUNDAI:Integer</text><text fill="#000000" font-family="sans-serif" font-size="11" lengthAdjust="spacingAndGlyphs" textLength="69" x="991.5" y="798.8433">MAN:Integer</text><text fill="#000000" font-family="sans-serif" font-size="11" lengthAdjust="spacingAndGlyphs" textLength="89" x="991.5" y="811.6479">AGRALE:Integer</text><text fill="#000000" font-family="sans-serif" font-size="11" lengthAdjust="spacingAndGlyphs" textLength="71" x="991.5" y="824.4526">EFFA:Integer</text><text fill="#000000" font-family="sans-serif" font-size="11" lengthAdjust="spacingAndGlyphs" textLength="133" x="991.5" y="837.2573">INTERNATIONAL:Integer</text><text fill="#000000" font-family="sans-serif" font-size="11" lengthAdjust="spacingAndGlyphs" textLength="109" x="991.5" y="850.062">SINOTRUCK:Integer</text><text fill="#000000" font-family="sans-serif" font-size="11" lengthAdjust="spacingAndGlyphs" textLength="101" x="991.5" y="862.8667">SHACMAN:Integer</text><text fill="#000000" font-family="sans-serif" font-size="11" lengthAdjust="spacingAndGlyphs" textLength="96" x="991.5" y="875.6714">EXTERNA:Integer</text><line style="stroke:#A80036;stroke-width:1.5;" x1="986.5" x2="1133.5" y1="882.2656" y2="882.2656"/><!--MD5=[64dfc6b2369b13f3049fb96245ac5fb3]
class UnidadeDeMedida--><rect codeLine="63" fill="#FEFECE" filter="url(#fl39ajk3sbout)" height="99.2188" id="UnidadeDeMedida" style="stroke:#A80036;stroke-width:1.5;" width="153" x="519.5" y="240"/><ellipse cx="539" cy="256" fill="#ADD1B2" rx="11" ry="11" style="stroke:#A80036;stroke-width:1.0;"/><path d="M541.3438,251.6719 C540.4063,251.2344 539.8125,251.0938 538.9375,251.0938 C536.3125,251.0938 534.3125,253.1719 534.3125,255.8906 L534.3125,257.0156 C534.3125,259.5938 536.4219,261.4844 539.3125,261.4844 C540.5313,261.4844 541.6875,261.1875 542.4375,260.6406 C543.0156,260.2344 543.3438,259.7813 543.3438,259.3906 C543.3438,258.9375 542.9531,258.5469 542.4844,258.5469 C542.2656,258.5469 542.0625,258.625 541.875,258.8125 C541.4219,259.2969 541.4219,259.2969 541.2344,259.3906 C540.8125,259.6563 540.125,259.7813 539.3594,259.7813 C537.3125,259.7813 536.0156,258.6875 536.0156,256.9844 L536.0156,255.8906 C536.0156,254.1094 537.2656,252.7969 539,252.7969 C539.5781,252.7969 540.1875,252.9531 540.6563,253.2031 C541.1406,253.4844 541.3125,253.7031 541.4063,254.1094 C541.4688,254.5156 541.5,254.6406 541.6406,254.7656 C541.7813,254.9063 542.0156,255.0156 542.2344,255.0156 C542.5,255.0156 542.7656,254.875 542.9375,254.6563 C543.0469,254.5 543.0781,254.3125 543.0781,253.8906 L543.0781,252.4688 C543.0781,252.0313 543.0625,251.9063 542.9688,251.75 C542.8125,251.4844 542.5313,251.3438 542.2344,251.3438 C541.9375,251.3438 541.7344,251.4375 541.5156,251.75 L541.3438,251.6719 Z " fill="#000000"/><text fill="#000000" font-family="sans-serif" font-size="12" lengthAdjust="spacingAndGlyphs" textLength="111" x="554" y="260.1543">UnidadeDeMedida</text><line style="stroke:#A80036;stroke-width:1.5;" x1="520.5" x2="671.5" y1="272" y2="272"/><rect fill="none" height="6" style="stroke:#C82930;stroke-width:1.0;" width="6" x="527.5" y="280"/><text fill="#000000" font-family="sans-serif" font-size="11" lengthAdjust="spacingAndGlyphs" textLength="58" x="539.5" y="286.2104">id: Integer</text><rect fill="none" height="6" style="stroke:#C82930;stroke-width:1.0;" width="6" x="527.5" y="292.8047"/><text fill="#000000" font-family="sans-serif" font-size="11" lengthAdjust="spacingAndGlyphs" textLength="127" x="539.5" y="299.0151">unidadeMedida: String</text><rect fill="none" height="6" style="stroke:#C82930;stroke-width:1.0;" width="6" x="527.5" y="305.6094"/><text fill="#000000" font-family="sans-serif" font-size="11" lengthAdjust="spacingAndGlyphs" textLength="67" x="539.5" y="311.8198">desc: String</text><line style="stroke:#A80036;stroke-width:1.5;" x1="520.5" x2="671.5" y1="318.4141" y2="318.4141"/><ellipse cx="530.5" cy="329.4141" fill="#84BE84" rx="3" ry="3" style="stroke:#038048;stroke-width:1.0;"/><text fill="#000000" font-family="sans-serif" font-size="11" lengthAdjust="spacingAndGlyphs" textLength="86" x="539.5" y="332.6245">void methods()</text><!--MD5=[7e1ce8ab2bf669717f28e918f4971b9a]
class Categoria--><rect codeLine="70" fill="#FEFECE" filter="url(#fl39ajk3sbout)" height="99.2188" id="Categoria" style="stroke:#A80036;stroke-width:1.5;" width="112" x="708" y="240"/><ellipse cx="732.9" cy="256" fill="#ADD1B2" rx="11" ry="11" style="stroke:#A80036;stroke-width:1.0;"/><path d="M735.2438,251.6719 C734.3063,251.2344 733.7125,251.0938 732.8375,251.0938 C730.2125,251.0938 728.2125,253.1719 728.2125,255.8906 L728.2125,257.0156 C728.2125,259.5938 730.3219,261.4844 733.2125,261.4844 C734.4313,261.4844 735.5875,261.1875 736.3375,260.6406 C736.9156,260.2344 737.2438,259.7813 737.2438,259.3906 C737.2438,258.9375 736.8531,258.5469 736.3844,258.5469 C736.1656,258.5469 735.9625,258.625 735.775,258.8125 C735.3219,259.2969 735.3219,259.2969 735.1344,259.3906 C734.7125,259.6563 734.025,259.7813 733.2594,259.7813 C731.2125,259.7813 729.9156,258.6875 729.9156,256.9844 L729.9156,255.8906 C729.9156,254.1094 731.1656,252.7969 732.9,252.7969 C733.4781,252.7969 734.0875,252.9531 734.5563,253.2031 C735.0406,253.4844 735.2125,253.7031 735.3063,254.1094 C735.3688,254.5156 735.4,254.6406 735.5406,254.7656 C735.6813,254.9063 735.9156,255.0156 736.1344,255.0156 C736.4,255.0156 736.6656,254.875 736.8375,254.6563 C736.9469,254.5 736.9781,254.3125 736.9781,253.8906 L736.9781,252.4688 C736.9781,252.0313 736.9625,251.9063 736.8688,251.75 C736.7125,251.4844 736.4313,251.3438 736.1344,251.3438 C735.8375,251.3438 735.6344,251.4375 735.4156,251.75 L735.2438,251.6719 Z " fill="#000000"/><text fill="#000000" font-family="sans-serif" font-size="12" lengthAdjust="spacingAndGlyphs" textLength="58" x="749.1" y="260.1543">Categoria</text><line style="stroke:#A80036;stroke-width:1.5;" x1="709" x2="819" y1="272" y2="272"/><rect fill="none" height="6" style="stroke:#C82930;stroke-width:1.0;" width="6" x="716" y="280"/><text fill="#000000" font-family="sans-serif" font-size="11" lengthAdjust="spacingAndGlyphs" textLength="58" x="728" y="286.2104">id: Integer</text><rect fill="none" height="6" style="stroke:#C82930;stroke-width:1.0;" width="6" x="716" y="292.8047"/><text fill="#000000" font-family="sans-serif" font-size="11" lengthAdjust="spacingAndGlyphs" textLength="66" x="728" y="299.0151">sigla: String</text><rect fill="none" height="6" style="stroke:#C82930;stroke-width:1.0;" width="6" x="716" y="305.6094"/><text fill="#000000" font-family="sans-serif" font-size="11" lengthAdjust="spacingAndGlyphs" textLength="67" x="728" y="311.8198">desc: String</text><line style="stroke:#A80036;stroke-width:1.5;" x1="709" x2="819" y1="318.4141" y2="318.4141"/><ellipse cx="719" cy="329.4141" fill="#84BE84" rx="3" ry="3" style="stroke:#038048;stroke-width:1.0;"/><text fill="#000000" font-family="sans-serif" font-size="11" lengthAdjust="spacingAndGlyphs" textLength="86" x="728" y="332.6245">void methods()</text><!--MD5=[e93cb49f72b19fc135ef1a34f8991eb7]
class Grao--><rect codeLine="77" fill="#FEFECE" filter="url(#fl39ajk3sbout)" height="99.2188" id="Grao" style="stroke:#A80036;stroke-width:1.5;" width="112" x="589" y="54"/><ellipse cx="626.95" cy="70" fill="#ADD1B2" rx="11" ry="11" style="stroke:#A80036;stroke-width:1.0;"/><path d="M629.2938,65.6719 C628.3563,65.2344 627.7625,65.0938 626.8875,65.0938 C624.2625,65.0938 622.2625,67.1719 622.2625,69.8906 L622.2625,71.0156 C622.2625,73.5938 624.3719,75.4844 627.2625,75.4844 C628.4813,75.4844 629.6375,75.1875 630.3875,74.6406 C630.9656,74.2344 631.2938,73.7813 631.2938,73.3906 C631.2938,72.9375 630.9031,72.5469 630.4344,72.5469 C630.2156,72.5469 630.0125,72.625 629.825,72.8125 C629.3719,73.2969 629.3719,73.2969 629.1844,73.3906 C628.7625,73.6563 628.075,73.7813 627.3094,73.7813 C625.2625,73.7813 623.9656,72.6875 623.9656,70.9844 L623.9656,69.8906 C623.9656,68.1094 625.2156,66.7969 626.95,66.7969 C627.5281,66.7969 628.1375,66.9531 628.6063,67.2031 C629.0906,67.4844 629.2625,67.7031 629.3563,68.1094 C629.4188,68.5156 629.45,68.6406 629.5906,68.7656 C629.7313,68.9063 629.9656,69.0156 630.1844,69.0156 C630.45,69.0156 630.7156,68.875 630.8875,68.6563 C630.9969,68.5 631.0281,68.3125 631.0281,67.8906 L631.0281,66.4688 C631.0281,66.0313 631.0125,65.9063 630.9188,65.75 C630.7625,65.4844 630.4813,65.3438 630.1844,65.3438 C629.8875,65.3438 629.6844,65.4375 629.4656,65.75 L629.2938,65.6719 Z " fill="#000000"/><text fill="#000000" font-family="sans-serif" font-size="12" lengthAdjust="spacingAndGlyphs" textLength="29" x="646.05" y="74.1543">Grao</text><line style="stroke:#A80036;stroke-width:1.5;" x1="590" x2="700" y1="86" y2="86"/><rect fill="none" height="6" style="stroke:#C82930;stroke-width:1.0;" width="6" x="597" y="94"/><text fill="#000000" font-family="sans-serif" font-size="11" lengthAdjust="spacingAndGlyphs" textLength="58" x="609" y="100.2104">id: Integer</text><rect fill="none" height="6" style="stroke:#C82930;stroke-width:1.0;" width="6" x="597" y="106.8047"/><text fill="#000000" font-family="sans-serif" font-size="11" lengthAdjust="spacingAndGlyphs" textLength="73" x="609" y="113.0151">nome: String</text><rect fill="none" height="6" style="stroke:#C82930;stroke-width:1.0;" width="6" x="597" y="119.6094"/><text fill="#000000" font-family="sans-serif" font-size="11" lengthAdjust="spacingAndGlyphs" textLength="67" x="609" y="125.8198">desc: String</text><line style="stroke:#A80036;stroke-width:1.5;" x1="590" x2="700" y1="132.4141" y2="132.4141"/><ellipse cx="600" cy="143.4141" fill="#84BE84" rx="3" ry="3" style="stroke:#038048;stroke-width:1.0;"/><text fill="#000000" font-family="sans-serif" font-size="11" lengthAdjust="spacingAndGlyphs" textLength="86" x="609" y="146.6245">void methods()</text><!--MD5=[07632fa0993d655feb9aade4b0a6979a]
class MarcaVentilacao--><rect codeLine="84" fill="#FEFECE" filter="url(#fl39ajk3sbout)" height="86.4141" id="MarcaVentilacao" style="stroke:#A80036;stroke-width:1.5;" width="130" x="202" y="464.5"/><ellipse cx="217" cy="480.5" fill="#ADD1B2" rx="11" ry="11" style="stroke:#A80036;stroke-width:1.0;"/><path d="M219.3438,476.1719 C218.4063,475.7344 217.8125,475.5938 216.9375,475.5938 C214.3125,475.5938 212.3125,477.6719 212.3125,480.3906 L212.3125,481.5156 C212.3125,484.0938 214.4219,485.9844 217.3125,485.9844 C218.5313,485.9844 219.6875,485.6875 220.4375,485.1406 C221.0156,484.7344 221.3438,484.2813 221.3438,483.8906 C221.3438,483.4375 220.9531,483.0469 220.4844,483.0469 C220.2656,483.0469 220.0625,483.125 219.875,483.3125 C219.4219,483.7969 219.4219,483.7969 219.2344,483.8906 C218.8125,484.1563 218.125,484.2813 217.3594,484.2813 C215.3125,484.2813 214.0156,483.1875 214.0156,481.4844 L214.0156,480.3906 C214.0156,478.6094 215.2656,477.2969 217,477.2969 C217.5781,477.2969 218.1875,477.4531 218.6563,477.7031 C219.1406,477.9844 219.3125,478.2031 219.4063,478.6094 C219.4688,479.0156 219.5,479.1406 219.6406,479.2656 C219.7813,479.4063 220.0156,479.5156 220.2344,479.5156 C220.5,479.5156 220.7656,479.375 220.9375,479.1563 C221.0469,479 221.0781,478.8125 221.0781,478.3906 L221.0781,476.9688 C221.0781,476.5313 221.0625,476.4063 220.9688,476.25 C220.8125,475.9844 220.5313,475.8438 220.2344,475.8438 C219.9375,475.8438 219.7344,475.9375 219.5156,476.25 L219.3438,476.1719 Z " fill="#000000"/><text fill="#000000" font-family="sans-serif" font-size="12" lengthAdjust="spacingAndGlyphs" textLength="98" x="231" y="484.6543">MarcaVentilacao</text><line style="stroke:#A80036;stroke-width:1.5;" x1="203" x2="331" y1="496.5" y2="496.5"/><rect fill="none" height="6" style="stroke:#C82930;stroke-width:1.0;" width="6" x="210" y="504.5"/><text fill="#000000" font-family="sans-serif" font-size="11" lengthAdjust="spacingAndGlyphs" textLength="58" x="222" y="510.7104">id: Integer</text><rect fill="none" height="6" style="stroke:#C82930;stroke-width:1.0;" width="6" x="210" y="517.3047"/><text fill="#000000" font-family="sans-serif" font-size="11" lengthAdjust="spacingAndGlyphs" textLength="75" x="222" y="523.5151">marca: String</text><rect fill="none" height="6" style="stroke:#C82930;stroke-width:1.0;" width="6" x="210" y="530.1094"/><text fill="#000000" font-family="sans-serif" font-size="11" lengthAdjust="spacingAndGlyphs" textLength="67" x="222" y="536.3198">desc: String</text><line style="stroke:#A80036;stroke-width:1.5;" x1="203" x2="331" y1="542.9141" y2="542.9141"/><!--MD5=[5af9142a6bc4a9aeac22eec6360c6d3f]
class Ventilacao--><rect codeLine="91" fill="#FEFECE" filter="url(#fl39ajk3sbout)" height="124.8281" id="Ventilacao" style="stroke:#A80036;stroke-width:1.5;" width="159" x="187.5" y="227"/><ellipse cx="231.75" cy="243" fill="#ADD1B2" rx="11" ry="11" style="stroke:#A80036;stroke-width:1.0;"/><path d="M234.0938,238.6719 C233.1563,238.2344 232.5625,238.0938 231.6875,238.0938 C229.0625,238.0938 227.0625,240.1719 227.0625,242.8906 L227.0625,244.0156 C227.0625,246.5938 229.1719,248.4844 232.0625,248.4844 C233.2813,248.4844 234.4375,248.1875 235.1875,247.6406 C235.7656,247.2344 236.0938,246.7813 236.0938,246.3906 C236.0938,245.9375 235.7031,245.5469 235.2344,245.5469 C235.0156,245.5469 234.8125,245.625 234.625,245.8125 C234.1719,246.2969 234.1719,246.2969 233.9844,246.3906 C233.5625,246.6563 232.875,246.7813 232.1094,246.7813 C230.0625,246.7813 228.7656,245.6875 228.7656,243.9844 L228.7656,242.8906 C228.7656,241.1094 230.0156,239.7969 231.75,239.7969 C232.3281,239.7969 232.9375,239.9531 233.4063,240.2031 C233.8906,240.4844 234.0625,240.7031 234.1563,241.1094 C234.2188,241.5156 234.25,241.6406 234.3906,241.7656 C234.5313,241.9063 234.7656,242.0156 234.9844,242.0156 C235.25,242.0156 235.5156,241.875 235.6875,241.6563 C235.7969,241.5 235.8281,241.3125 235.8281,240.8906 L235.8281,239.4688 C235.8281,239.0313 235.8125,238.9063 235.7188,238.75 C235.5625,238.4844 235.2813,238.3438 234.9844,238.3438 C234.6875,238.3438 234.4844,238.4375 234.2656,238.75 L234.0938,238.6719 Z " fill="#000000"/><text fill="#000000" font-family="sans-serif" font-size="12" lengthAdjust="spacingAndGlyphs" textLength="62" x="252.25" y="247.1543">Ventilacao</text><line style="stroke:#A80036;stroke-width:1.5;" x1="188.5" x2="345.5" y1="259" y2="259"/><rect fill="none" height="6" style="stroke:#C82930;stroke-width:1.0;" width="6" x="195.5" y="267"/><text fill="#000000" font-family="sans-serif" font-size="11" lengthAdjust="spacingAndGlyphs" textLength="58" x="207.5" y="273.2104">id: Integer</text><rect fill="none" height="6" style="stroke:#C82930;stroke-width:1.0;" width="6" x="195.5" y="279.8047"/><text fill="#000000" font-family="sans-serif" font-size="11" lengthAdjust="spacingAndGlyphs" textLength="36" x="207.5" y="286.0151">nome:</text><rect fill="none" height="6" style="stroke:#C82930;stroke-width:1.0;" width="6" x="195.5" y="292.6094"/><text fill="#000000" font-family="sans-serif" font-size="11" lengthAdjust="spacingAndGlyphs" textLength="67" x="207.5" y="298.8198">desc: String</text><rect fill="none" height="6" style="stroke:#C82930;stroke-width:1.0;" width="6" x="195.5" y="305.4141"/><text fill="#000000" font-family="sans-serif" font-size="11" lengthAdjust="spacingAndGlyphs" textLength="133" x="207.5" y="311.6245">velocidadeRPM: Double</text><rect fill="none" height="6" style="stroke:#C82930;stroke-width:1.0;" width="6" x="195.5" y="318.2188"/><text fill="#000000" font-family="sans-serif" font-size="11" lengthAdjust="spacingAndGlyphs" textLength="93" x="207.5" y="324.4292">kilowats: Double</text><line style="stroke:#A80036;stroke-width:1.5;" x1="188.5" x2="345.5" y1="331.0234" y2="331.0234"/><ellipse cx="198.5" cy="342.0234" fill="#84BE84" rx="3" ry="3" style="stroke:#038048;stroke-width:1.0;"/><text fill="#000000" font-family="sans-serif" font-size="11" lengthAdjust="spacingAndGlyphs" textLength="86" x="207.5" y="345.2339">void methods()</text><!--MD5=[0a8c0962b12022b9d8929b1ac9dc838e]
class Armazem--><rect codeLine="100" fill="#FEFECE" filter="url(#fl39ajk3sbout)" height="124.8281" id="Armazem" style="stroke:#A80036;stroke-width:1.5;" width="139" x="374.5" y="41"/><ellipse cx="412" cy="57" fill="#ADD1B2" rx="11" ry="11" style="stroke:#A80036;stroke-width:1.0;"/><path d="M414.3438,52.6719 C413.4063,52.2344 412.8125,52.0938 411.9375,52.0938 C409.3125,52.0938 407.3125,54.1719 407.3125,56.8906 L407.3125,58.0156 C407.3125,60.5938 409.4219,62.4844 412.3125,62.4844 C413.5313,62.4844 414.6875,62.1875 415.4375,61.6406 C416.0156,61.2344 416.3438,60.7813 416.3438,60.3906 C416.3438,59.9375 415.9531,59.5469 415.4844,59.5469 C415.2656,59.5469 415.0625,59.625 414.875,59.8125 C414.4219,60.2969 414.4219,60.2969 414.2344,60.3906 C413.8125,60.6563 413.125,60.7813 412.3594,60.7813 C410.3125,60.7813 409.0156,59.6875 409.0156,57.9844 L409.0156,56.8906 C409.0156,55.1094 410.2656,53.7969 412,53.7969 C412.5781,53.7969 413.1875,53.9531 413.6563,54.2031 C414.1406,54.4844 414.3125,54.7031 414.4063,55.1094 C414.4688,55.5156 414.5,55.6406 414.6406,55.7656 C414.7813,55.9063 415.0156,56.0156 415.2344,56.0156 C415.5,56.0156 415.7656,55.875 415.9375,55.6563 C416.0469,55.5 416.0781,55.3125 416.0781,54.8906 L416.0781,53.4688 C416.0781,53.0313 416.0625,52.9063 415.9688,52.75 C415.8125,52.4844 415.5313,52.3438 415.2344,52.3438 C414.9375,52.3438 414.7344,52.4375 414.5156,52.75 L414.3438,52.6719 Z " fill="#000000"/><text fill="#000000" font-family="sans-serif" font-size="12" lengthAdjust="spacingAndGlyphs" textLength="57" x="431" y="61.1543">Armazem</text><line style="stroke:#A80036;stroke-width:1.5;" x1="375.5" x2="512.5" y1="73" y2="73"/><rect fill="none" height="6" style="stroke:#C82930;stroke-width:1.0;" width="6" x="382.5" y="81"/><text fill="#000000" font-family="sans-serif" font-size="11" lengthAdjust="spacingAndGlyphs" textLength="58" x="394.5" y="87.2104">id: Integer</text><rect fill="none" height="6" style="stroke:#C82930;stroke-width:1.0;" width="6" x="382.5" y="93.8047"/><text fill="#000000" font-family="sans-serif" font-size="11" lengthAdjust="spacingAndGlyphs" textLength="67" x="394.5" y="100.0151">desc: String</text><rect fill="none" height="6" style="stroke:#C82930;stroke-width:1.0;" width="6" x="382.5" y="106.6094"/><text fill="#000000" font-family="sans-serif" font-size="11" lengthAdjust="spacingAndGlyphs" textLength="66" x="394.5" y="112.8198">sigla: String</text><rect fill="none" height="6" style="stroke:#C82930;stroke-width:1.0;" width="6" x="382.5" y="119.4141"/><text fill="#000000" font-family="sans-serif" font-size="11" lengthAdjust="spacingAndGlyphs" textLength="88" x="394.5" y="125.6245">status: Boolean</text><rect fill="none" height="6" style="stroke:#C82930;stroke-width:1.0;" width="6" x="382.5" y="132.2188"/><text fill="#000000" font-family="sans-serif" font-size="11" lengthAdjust="spacingAndGlyphs" textLength="113" x="394.5" y="138.4292">capacidade: Double</text><rect fill="none" height="6" style="stroke:#C82930;stroke-width:1.0;" width="6" x="382.5" y="145.0234"/><text fill="#000000" font-family="sans-serif" font-size="11" lengthAdjust="spacingAndGlyphs" textLength="87" x="394.5" y="151.2339">imagem: String</text><line style="stroke:#A80036;stroke-width:1.5;" x1="375.5" x2="512.5" y1="157.8281" y2="157.8281"/><!--MD5=[74e36fb2b647c2f688adf7ed4adc86d9]
class Localizacao--><rect codeLine="110" fill="#FEFECE" filter="url(#fl39ajk3sbout)" height="73.6094" id="Localizacao" style="stroke:#A80036;stroke-width:1.5;" width="102" x="382" y="252.5"/><ellipse cx="397" cy="268.5" fill="#ADD1B2" rx="11" ry="11" style="stroke:#A80036;stroke-width:1.0;"/><path d="M399.3438,264.1719 C398.4063,263.7344 397.8125,263.5938 396.9375,263.5938 C394.3125,263.5938 392.3125,265.6719 392.3125,268.3906 L392.3125,269.5156 C392.3125,272.0938 394.4219,273.9844 397.3125,273.9844 C398.5313,273.9844 399.6875,273.6875 400.4375,273.1406 C401.0156,272.7344 401.3438,272.2813 401.3438,271.8906 C401.3438,271.4375 400.9531,271.0469 400.4844,271.0469 C400.2656,271.0469 400.0625,271.125 399.875,271.3125 C399.4219,271.7969 399.4219,271.7969 399.2344,271.8906 C398.8125,272.1563 398.125,272.2813 397.3594,272.2813 C395.3125,272.2813 394.0156,271.1875 394.0156,269.4844 L394.0156,268.3906 C394.0156,266.6094 395.2656,265.2969 397,265.2969 C397.5781,265.2969 398.1875,265.4531 398.6563,265.7031 C399.1406,265.9844 399.3125,266.2031 399.4063,266.6094 C399.4688,267.0156 399.5,267.1406 399.6406,267.2656 C399.7813,267.4063 400.0156,267.5156 400.2344,267.5156 C400.5,267.5156 400.7656,267.375 400.9375,267.1563 C401.0469,267 401.0781,266.8125 401.0781,266.3906 L401.0781,264.9688 C401.0781,264.5313 401.0625,264.4063 400.9688,264.25 C400.8125,263.9844 400.5313,263.8438 400.2344,263.8438 C399.9375,263.8438 399.7344,263.9375 399.5156,264.25 L399.3438,264.1719 Z " fill="#000000"/><text fill="#000000" font-family="sans-serif" font-size="12" lengthAdjust="spacingAndGlyphs" textLength="70" x="411" y="272.6543">Localizacao</text><line style="stroke:#A80036;stroke-width:1.5;" x1="383" x2="483" y1="284.5" y2="284.5"/><rect fill="none" height="6" style="stroke:#C82930;stroke-width:1.0;" width="6" x="390" y="292.5"/><text fill="#000000" font-family="sans-serif" font-size="11" lengthAdjust="spacingAndGlyphs" textLength="54" x="402" y="298.7104">lat: String</text><rect fill="none" height="6" style="stroke:#C82930;stroke-width:1.0;" width="6" x="390" y="305.3047"/><text fill="#000000" font-family="sans-serif" font-size="11" lengthAdjust="spacingAndGlyphs" textLength="64" x="402" y="311.5151">long: String</text><line style="stroke:#A80036;stroke-width:1.5;" x1="383" x2="483" y1="318.1094" y2="318.1094"/><!--MD5=[1caaed32069ab8baac52dce72684dc3c]
class TipoConta--><rect codeLine="115" fill="#FEFECE" filter="url(#fl39ajk3sbout)" height="73.6094" id="TipoConta" style="stroke:#A80036;stroke-width:1.5;" width="120" x="32" y="252.5"/><ellipse cx="59.6" cy="268.5" fill="#EB937F" rx="11" ry="11" style="stroke:#A80036;stroke-width:1.0;"/><path d="M58.3969,269.375 L59.85,269.375 L59.85,269.4844 C59.85,269.8906 59.8813,270.0469 59.9594,270.2031 C60.1156,270.4531 60.3969,270.6094 60.6938,270.6094 C60.9438,270.6094 61.2094,270.4688 61.3656,270.25 C61.4906,270.0938 61.5219,269.9375 61.5219,269.4844 L61.5219,267.5625 C61.5219,267.4063 61.5219,267.3594 61.5063,267.2031 C61.4438,266.7344 61.1313,266.4219 60.6781,266.4219 C60.4281,266.4219 60.1625,266.5625 59.9906,266.7813 C59.8813,266.9531 59.85,267.1094 59.85,267.5625 L59.85,267.6875 L58.3969,267.6875 L58.3969,265.2813 L62.3813,265.2813 L62.3813,266.1406 C62.3813,266.5469 62.4125,266.7188 62.4906,266.875 C62.6625,267.125 62.9438,267.2813 63.225,267.2813 C63.4906,267.2813 63.7563,267.1406 63.9281,266.9219 C64.0375,266.75 64.0688,266.6094 64.0688,266.1406 L64.0688,263.5938 L56.4438,263.5938 C56.0063,263.5938 55.8813,263.6094 55.725,263.7031 C55.475,263.8594 55.3188,264.1563 55.3188,264.4375 C55.3188,264.7188 55.4594,264.9688 55.6781,265.1406 C55.8344,265.25 56.0219,265.2813 56.4438,265.2813 L56.6938,265.2813 L56.6938,271.7969 L56.4438,271.7969 C56.0375,271.7969 55.8813,271.8125 55.725,271.9219 C55.475,272.0938 55.3188,272.3594 55.3188,272.6563 C55.3188,272.9219 55.4594,273.1719 55.6781,273.3281 C55.8188,273.4531 56.0531,273.5 56.4438,273.5 L64.4438,273.5 L64.4438,270.9219 C64.4438,270.4844 64.4125,270.3438 64.3344,270.1875 C64.1625,269.9375 63.8813,269.7813 63.6,269.7813 C63.3344,269.7813 63.0688,269.8906 62.8969,270.1406 C62.7875,270.2969 62.7563,270.4375 62.7563,270.9219 L62.7563,271.7969 L58.3969,271.7969 L58.3969,269.375 Z " fill="#000000"/><text fill="#000000" font-family="sans-serif" font-size="12" lengthAdjust="spacingAndGlyphs" textLength="60" x="76.4" y="272.6543">TipoConta</text><line style="stroke:#A80036;stroke-width:1.5;" x1="33" x2="151" y1="284.5" y2="284.5"/><text fill="#000000" font-family="sans-serif" font-size="11" lengthAdjust="spacingAndGlyphs" textLength="108" x="38" y="298.7104">DEVEDORA:Integer</text><text fill="#000000" font-family="sans-serif" font-size="11" lengthAdjust="spacingAndGlyphs" textLength="99" x="38" y="311.5151">CREDORA:Integer</text><line style="stroke:#A80036;stroke-width:1.5;" x1="33" x2="151" y1="318.1094" y2="318.1094"/><!--MD5=[c20c7e6e86d55803c48f9632a298d31a]
class PlanoDeCusto--><rect codeLine="120" fill="#FEFECE" filter="url(#fl39ajk3sbout)" height="124.8281" id="PlanoDeCusto" style="stroke:#A80036;stroke-width:1.5;" width="193" x="32.5" y="41"/><ellipse cx="83.75" cy="57" fill="#ADD1B2" rx="11" ry="11" style="stroke:#A80036;stroke-width:1.0;"/><path d="M86.0938,52.6719 C85.1563,52.2344 84.5625,52.0938 83.6875,52.0938 C81.0625,52.0938 79.0625,54.1719 79.0625,56.8906 L79.0625,58.0156 C79.0625,60.5938 81.1719,62.4844 84.0625,62.4844 C85.2813,62.4844 86.4375,62.1875 87.1875,61.6406 C87.7656,61.2344 88.0938,60.7813 88.0938,60.3906 C88.0938,59.9375 87.7031,59.5469 87.2344,59.5469 C87.0156,59.5469 86.8125,59.625 86.625,59.8125 C86.1719,60.2969 86.1719,60.2969 85.9844,60.3906 C85.5625,60.6563 84.875,60.7813 84.1094,60.7813 C82.0625,60.7813 80.7656,59.6875 80.7656,57.9844 L80.7656,56.8906 C80.7656,55.1094 82.0156,53.7969 83.75,53.7969 C84.3281,53.7969 84.9375,53.9531 85.4063,54.2031 C85.8906,54.4844 86.0625,54.7031 86.1563,55.1094 C86.2188,55.5156 86.25,55.6406 86.3906,55.7656 C86.5313,55.9063 86.7656,56.0156 86.9844,56.0156 C87.25,56.0156 87.5156,55.875 87.6875,55.6563 C87.7969,55.5 87.8281,55.3125 87.8281,54.8906 L87.8281,53.4688 C87.8281,53.0313 87.8125,52.9063 87.7188,52.75 C87.5625,52.4844 87.2813,52.3438 86.9844,52.3438 C86.6875,52.3438 86.4844,52.4375 86.2656,52.75 L86.0938,52.6719 Z " fill="#000000"/><text fill="#000000" font-family="sans-serif" font-size="12" lengthAdjust="spacingAndGlyphs" textLength="82" x="104.25" y="61.1543">PlanoDeCusto</text><line style="stroke:#A80036;stroke-width:1.5;" x1="33.5" x2="224.5" y1="73" y2="73"/><rect fill="none" height="6" style="stroke:#C82930;stroke-width:1.0;" width="6" x="40.5" y="81"/><text fill="#000000" font-family="sans-serif" font-size="11" lengthAdjust="spacingAndGlyphs" textLength="58" x="52.5" y="87.2104">id: Integer</text><rect fill="none" height="6" style="stroke:#C82930;stroke-width:1.0;" width="6" x="40.5" y="93.8047"/><text fill="#000000" font-family="sans-serif" font-size="11" lengthAdjust="spacingAndGlyphs" textLength="167" x="52.5" y="100.0151">dataContabilidade: LocalDate</text><rect fill="none" height="6" style="stroke:#C82930;stroke-width:1.0;" width="6" x="40.5" y="106.6094"/><text fill="#000000" font-family="sans-serif" font-size="11" lengthAdjust="spacingAndGlyphs" textLength="114" x="52.5" y="112.8198">bloqueado: Boolean</text><rect fill="none" height="6" style="stroke:#C82930;stroke-width:1.0;" width="6" x="40.5" y="119.4141"/><text fill="#000000" font-family="sans-serif" font-size="11" lengthAdjust="spacingAndGlyphs" textLength="114" x="52.5" y="125.6245">obrigatorio: Boolean</text><rect fill="none" height="6" style="stroke:#C82930;stroke-width:1.0;" width="6" x="40.5" y="132.2188"/><text fill="#000000" font-family="sans-serif" font-size="11" lengthAdjust="spacingAndGlyphs" textLength="80" x="52.5" y="138.4292">preco: Double</text><rect fill="none" height="6" style="stroke:#C82930;stroke-width:1.0;" width="6" x="40.5" y="145.0234"/><text fill="#000000" font-family="sans-serif" font-size="11" lengthAdjust="spacingAndGlyphs" textLength="67" x="52.5" y="151.2339">desc: String</text><line style="stroke:#A80036;stroke-width:1.5;" x1="33.5" x2="224.5" y1="157.8281" y2="157.8281"/><!--MD5=[088a46a2f0cb650e184c984a011833fa]
class ArmazenarGrao--><rect codeLine="133" fill="#FEFECE" filter="url(#fl39ajk3sbout)" height="188.8516" id="ArmazenarGrao" style="stroke:#A80036;stroke-width:1.5;" width="215" x="1765.5" y="413"/><ellipse cx="1821.75" cy="429" fill="#ADD1B2" rx="11" ry="11" style="stroke:#A80036;stroke-width:1.0;"/><path d="M1824.0938,424.6719 C1823.1563,424.2344 1822.5625,424.0938 1821.6875,424.0938 C1819.0625,424.0938 1817.0625,426.1719 1817.0625,428.8906 L1817.0625,430.0156 C1817.0625,432.5938 1819.1719,434.4844 1822.0625,434.4844 C1823.2813,434.4844 1824.4375,434.1875 1825.1875,433.6406 C1825.7656,433.2344 1826.0938,432.7813 1826.0938,432.3906 C1826.0938,431.9375 1825.7031,431.5469 1825.2344,431.5469 C1825.0156,431.5469 1824.8125,431.625 1824.625,431.8125 C1824.1719,432.2969 1824.1719,432.2969 1823.9844,432.3906 C1823.5625,432.6563 1822.875,432.7813 1822.1094,432.7813 C1820.0625,432.7813 1818.7656,431.6875 1818.7656,429.9844 L1818.7656,428.8906 C1818.7656,427.1094 1820.0156,425.7969 1821.75,425.7969 C1822.3281,425.7969 1822.9375,425.9531 1823.4063,426.2031 C1823.8906,426.4844 1824.0625,426.7031 1824.1563,427.1094 C1824.2188,427.5156 1824.25,427.6406 1824.3906,427.7656 C1824.5313,427.9063 1824.7656,428.0156 1824.9844,428.0156 C1825.25,428.0156 1825.5156,427.875 1825.6875,427.6563 C1825.7969,427.5 1825.8281,427.3125 1825.8281,426.8906 L1825.8281,425.4688 C1825.8281,425.0313 1825.8125,424.9063 1825.7188,424.75 C1825.5625,424.4844 1825.2813,424.3438 1824.9844,424.3438 C1824.6875,424.3438 1824.4844,424.4375 1824.2656,424.75 L1824.0938,424.6719 Z " fill="#000000"/><text fill="#000000" font-family="sans-serif" font-size="12" lengthAdjust="spacingAndGlyphs" textLength="94" x="1842.25" y="433.1543">ArmazenarGrao</text><line style="stroke:#A80036;stroke-width:1.5;" x1="1766.5" x2="1979.5" y1="445" y2="445"/><rect fill="none" height="6" style="stroke:#C82930;stroke-width:1.0;" width="6" x="1773.5" y="453"/><text fill="#000000" font-family="sans-serif" font-size="11" lengthAdjust="spacingAndGlyphs" textLength="58" x="1785.5" y="459.2104">id: Integer</text><rect fill="none" height="6" style="stroke:#C82930;stroke-width:1.0;" width="6" x="1773.5" y="465.8047"/><text fill="#000000" font-family="sans-serif" font-size="11" lengthAdjust="spacingAndGlyphs" textLength="189" x="1785.5" y="472.0151">horarioArmazenagem: LocalTime</text><rect fill="none" height="6" style="stroke:#C82930;stroke-width:1.0;" width="6" x="1773.5" y="478.6094"/><text fill="#000000" font-family="sans-serif" font-size="11" lengthAdjust="spacingAndGlyphs" textLength="164" x="1785.5" y="484.8198">umidadeRelativaDoAr: String</text><rect fill="none" height="6" style="stroke:#C82930;stroke-width:1.0;" width="6" x="1773.5" y="491.4141"/><text fill="#000000" font-family="sans-serif" font-size="11" lengthAdjust="spacingAndGlyphs" textLength="145" x="1785.5" y="497.6245">pressaoVaporGrao: String</text><rect fill="none" height="6" style="stroke:#C82930;stroke-width:1.0;" width="6" x="1773.5" y="504.2188"/><text fill="#000000" font-family="sans-serif" font-size="11" lengthAdjust="spacingAndGlyphs" textLength="130" x="1785.5" y="510.4292">pressaoVaporAr: String</text><rect fill="none" height="6" style="stroke:#C82930;stroke-width:1.0;" width="6" x="1773.5" y="517.0234"/><text fill="#000000" font-family="sans-serif" font-size="11" lengthAdjust="spacingAndGlyphs" textLength="119" x="1785.5" y="523.2339">temperatura: Double</text><rect fill="none" height="6" style="stroke:#C82930;stroke-width:1.0;" width="6" x="1773.5" y="529.8281"/><text fill="#000000" font-family="sans-serif" font-size="11" lengthAdjust="spacingAndGlyphs" textLength="186" x="1785.5" y="536.0386">condicaoArmazenamento: String</text><rect fill="none" height="6" style="stroke:#C82930;stroke-width:1.0;" width="6" x="1773.5" y="542.6328"/><text fill="#000000" font-family="sans-serif" font-size="11" lengthAdjust="spacingAndGlyphs" textLength="169" x="1785.5" y="548.8433">etapaArmazenamento: String</text><rect fill="none" height="6" style="stroke:#C82930;stroke-width:1.0;" width="6" x="1773.5" y="555.4375"/><text fill="#000000" font-family="sans-serif" font-size="11" lengthAdjust="spacingAndGlyphs" textLength="163" x="1785.5" y="561.6479">custoArmazenagem: Double</text><rect fill="none" height="6" style="stroke:#C82930;stroke-width:1.0;" width="6" x="1773.5" y="568.2422"/><text fill="#000000" font-family="sans-serif" font-size="11" lengthAdjust="spacingAndGlyphs" textLength="185" x="1785.5" y="574.4526">quantidadeArmazenada: Double</text><rect fill="none" height="6" style="stroke:#C82930;stroke-width:1.0;" width="6" x="1773.5" y="581.0469"/><text fill="#000000" font-family="sans-serif" font-size="11" lengthAdjust="spacingAndGlyphs" textLength="114" x="1785.5" y="587.2573">situacaoGrao: String</text><line style="stroke:#A80036;stroke-width:1.5;" x1="1766.5" x2="1979.5" y1="593.8516" y2="593.8516"/><!--MD5=[35db2d789f95abc391e5a1a287df2cab]
class RetirarGrao--><rect codeLine="148" fill="#FEFECE" filter="url(#fl39ajk3sbout)" height="73.6094" id="RetirarGrao" style="stroke:#A80036;stroke-width:1.5;" width="189" x="1541.5" y="470.5"/><ellipse cx="1597.75" cy="486.5" fill="#ADD1B2" rx="11" ry="11" style="stroke:#A80036;stroke-width:1.0;"/><path d="M1600.0938,482.1719 C1599.1563,481.7344 1598.5625,481.5938 1597.6875,481.5938 C1595.0625,481.5938 1593.0625,483.6719 1593.0625,486.3906 L1593.0625,487.5156 C1593.0625,490.0938 1595.1719,491.9844 1598.0625,491.9844 C1599.2813,491.9844 1600.4375,491.6875 1601.1875,491.1406 C1601.7656,490.7344 1602.0938,490.2813 1602.0938,489.8906 C1602.0938,489.4375 1601.7031,489.0469 1601.2344,489.0469 C1601.0156,489.0469 1600.8125,489.125 1600.625,489.3125 C1600.1719,489.7969 1600.1719,489.7969 1599.9844,489.8906 C1599.5625,490.1563 1598.875,490.2813 1598.1094,490.2813 C1596.0625,490.2813 1594.7656,489.1875 1594.7656,487.4844 L1594.7656,486.3906 C1594.7656,484.6094 1596.0156,483.2969 1597.75,483.2969 C1598.3281,483.2969 1598.9375,483.4531 1599.4063,483.7031 C1599.8906,483.9844 1600.0625,484.2031 1600.1563,484.6094 C1600.2188,485.0156 1600.25,485.1406 1600.3906,485.2656 C1600.5313,485.4063 1600.7656,485.5156 1600.9844,485.5156 C1601.25,485.5156 1601.5156,485.375 1601.6875,485.1563 C1601.7969,485 1601.8281,484.8125 1601.8281,484.3906 L1601.8281,482.9688 C1601.8281,482.5313 1601.8125,482.4063 1601.7188,482.25 C1601.5625,481.9844 1601.2813,481.8438 1600.9844,481.8438 C1600.6875,481.8438 1600.4844,481.9375 1600.2656,482.25 L1600.0938,482.1719 Z " fill="#000000"/><text fill="#000000" font-family="sans-serif" font-size="12" lengthAdjust="spacingAndGlyphs" textLength="68" x="1618.25" y="490.6543">RetirarGrao</text><line style="stroke:#A80036;stroke-width:1.5;" x1="1542.5" x2="1729.5" y1="502.5" y2="502.5"/><rect fill="none" height="6" style="stroke:#C82930;stroke-width:1.0;" width="6" x="1549.5" y="510.5"/><text fill="#000000" font-family="sans-serif" font-size="11" lengthAdjust="spacingAndGlyphs" textLength="58" x="1561.5" y="516.7104">id: Integer</text><rect fill="none" height="6" style="stroke:#C82930;stroke-width:1.0;" width="6" x="1549.5" y="523.3047"/><text fill="#000000" font-family="sans-serif" font-size="11" lengthAdjust="spacingAndGlyphs" textLength="163" x="1561.5" y="529.5151">quantidadeRetirada : Double</text><line style="stroke:#A80036;stroke-width:1.5;" x1="1542.5" x2="1729.5" y1="536.1094" y2="536.1094"/><!--MD5=[f55971fb40c0e846bf09e8a88e692933]
class Situacao--><rect codeLine="153" fill="#FEFECE" filter="url(#fl39ajk3sbout)" height="73.6094" id="Situacao" style="stroke:#A80036;stroke-width:1.5;" width="215" x="1829.5" y="66.5"/><ellipse cx="1907.25" cy="82.5" fill="#ADD1B2" rx="11" ry="11" style="stroke:#A80036;stroke-width:1.0;"/><path d="M1909.5938,78.1719 C1908.6563,77.7344 1908.0625,77.5938 1907.1875,77.5938 C1904.5625,77.5938 1902.5625,79.6719 1902.5625,82.3906 L1902.5625,83.5156 C1902.5625,86.0938 1904.6719,87.9844 1907.5625,87.9844 C1908.7813,87.9844 1909.9375,87.6875 1910.6875,87.1406 C1911.2656,86.7344 1911.5938,86.2813 1911.5938,85.8906 C1911.5938,85.4375 1911.2031,85.0469 1910.7344,85.0469 C1910.5156,85.0469 1910.3125,85.125 1910.125,85.3125 C1909.6719,85.7969 1909.6719,85.7969 1909.4844,85.8906 C1909.0625,86.1563 1908.375,86.2813 1907.6094,86.2813 C1905.5625,86.2813 1904.2656,85.1875 1904.2656,83.4844 L1904.2656,82.3906 C1904.2656,80.6094 1905.5156,79.2969 1907.25,79.2969 C1907.8281,79.2969 1908.4375,79.4531 1908.9063,79.7031 C1909.3906,79.9844 1909.5625,80.2031 1909.6563,80.6094 C1909.7188,81.0156 1909.75,81.1406 1909.8906,81.2656 C1910.0313,81.4063 1910.2656,81.5156 1910.4844,81.5156 C1910.75,81.5156 1911.0156,81.375 1911.1875,81.1563 C1911.2969,81 1911.3281,80.8125 1911.3281,80.3906 L1911.3281,78.9688 C1911.3281,78.5313 1911.3125,78.4063 1911.2188,78.25 C1911.0625,77.9844 1910.7813,77.8438 1910.4844,77.8438 C1910.1875,77.8438 1909.9844,77.9375 1909.7656,78.25 L1909.5938,78.1719 Z " fill="#000000"/><text fill="#000000" font-family="sans-serif" font-size="12" lengthAdjust="spacingAndGlyphs" textLength="51" x="1927.75" y="86.6543">Situacao</text><line style="stroke:#A80036;stroke-width:1.5;" x1="1830.5" x2="2043.5" y1="98.5" y2="98.5"/><rect fill="none" height="6" style="stroke:#C82930;stroke-width:1.0;" width="6" x="1837.5" y="106.5"/><text fill="#000000" font-family="sans-serif" font-size="11" lengthAdjust="spacingAndGlyphs" textLength="58" x="1849.5" y="112.7104">id: Integer</text><rect fill="none" height="6" style="stroke:#C82930;stroke-width:1.0;" width="6" x="1837.5" y="119.3047"/><text fill="#000000" font-family="sans-serif" font-size="11" lengthAdjust="spacingAndGlyphs" textLength="189" x="1849.5" y="125.5151">quantidadeArmazenada : Double</text><line style="stroke:#A80036;stroke-width:1.5;" x1="1830.5" x2="2043.5" y1="132.1094" y2="132.1094"/><!--MD5=[36c1942e8942a3e4f47e6de3733e3d18]
class Endereco--><rect codeLine="158" fill="#FEFECE" filter="url(#fl39ajk3sbout)" height="73.6094" id="Endereco" style="stroke:#A80036;stroke-width:1.5;" width="121" x="1631.5" y="739.5"/><ellipse cx="1660.45" cy="755.5" fill="#ADD1B2" rx="11" ry="11" style="stroke:#A80036;stroke-width:1.0;"/><path d="M1662.7938,751.1719 C1661.8563,750.7344 1661.2625,750.5938 1660.3875,750.5938 C1657.7625,750.5938 1655.7625,752.6719 1655.7625,755.3906 L1655.7625,756.5156 C1655.7625,759.0938 1657.8719,760.9844 1660.7625,760.9844 C1661.9813,760.9844 1663.1375,760.6875 1663.8875,760.1406 C1664.4656,759.7344 1664.7938,759.2813 1664.7938,758.8906 C1664.7938,758.4375 1664.4031,758.0469 1663.9344,758.0469 C1663.7156,758.0469 1663.5125,758.125 1663.325,758.3125 C1662.8719,758.7969 1662.8719,758.7969 1662.6844,758.8906 C1662.2625,759.1563 1661.575,759.2813 1660.8094,759.2813 C1658.7625,759.2813 1657.4656,758.1875 1657.4656,756.4844 L1657.4656,755.3906 C1657.4656,753.6094 1658.7156,752.2969 1660.45,752.2969 C1661.0281,752.2969 1661.6375,752.4531 1662.1063,752.7031 C1662.5906,752.9844 1662.7625,753.2031 1662.8563,753.6094 C1662.9188,754.0156 1662.95,754.1406 1663.0906,754.2656 C1663.2313,754.4063 1663.4656,754.5156 1663.6844,754.5156 C1663.95,754.5156 1664.2156,754.375 1664.3875,754.1563 C1664.4969,754 1664.5281,753.8125 1664.5281,753.3906 L1664.5281,751.9688 C1664.5281,751.5313 1664.5125,751.4063 1664.4188,751.25 C1664.2625,750.9844 1663.9813,750.8438 1663.6844,750.8438 C1663.3875,750.8438 1663.1844,750.9375 1662.9656,751.25 L1662.7938,751.1719 Z " fill="#000000"/><text fill="#000000" font-family="sans-serif" font-size="12" lengthAdjust="spacingAndGlyphs" textLength="58" x="1677.55" y="759.6543">Endereco</text><line style="stroke:#A80036;stroke-width:1.5;" x1="1632.5" x2="1751.5" y1="771.5" y2="771.5"/><rect fill="none" height="6" style="stroke:#C82930;stroke-width:1.0;" width="6" x="1639.5" y="779.5"/><text fill="#000000" font-family="sans-serif" font-size="11" lengthAdjust="spacingAndGlyphs" textLength="58" x="1651.5" y="785.7104">id: Integer</text><rect fill="none" height="6" style="stroke:#C82930;stroke-width:1.0;" width="6" x="1639.5" y="792.3047"/><text fill="#000000" font-family="sans-serif" font-size="11" lengthAdjust="spacingAndGlyphs" textLength="95" x="1651.5" y="798.5151">endereco: String</text><line style="stroke:#A80036;stroke-width:1.5;" x1="1632.5" x2="1751.5" y1="805.1094" y2="805.1094"/><!--MD5=[1af7ac7ccfd113949641e1142ab84c37]
class EstadoGrao--><rect codeLine="163" fill="#FEFECE" filter="url(#fl39ajk3sbout)" height="99.2188" id="EstadoGrao" style="stroke:#A80036;stroke-width:1.5;" width="133" x="1806.5" y="727"/><ellipse cx="1835.45" cy="743" fill="#EB937F" rx="11" ry="11" style="stroke:#A80036;stroke-width:1.0;"/><path d="M1834.2469,743.875 L1835.7,743.875 L1835.7,743.9844 C1835.7,744.3906 1835.7313,744.5469 1835.8094,744.7031 C1835.9656,744.9531 1836.2469,745.1094 1836.5438,745.1094 C1836.7938,745.1094 1837.0594,744.9688 1837.2156,744.75 C1837.3406,744.5938 1837.3719,744.4375 1837.3719,743.9844 L1837.3719,742.0625 C1837.3719,741.9063 1837.3719,741.8594 1837.3563,741.7031 C1837.2938,741.2344 1836.9813,740.9219 1836.5281,740.9219 C1836.2781,740.9219 1836.0125,741.0625 1835.8406,741.2813 C1835.7313,741.4531 1835.7,741.6094 1835.7,742.0625 L1835.7,742.1875 L1834.2469,742.1875 L1834.2469,739.7813 L1838.2313,739.7813 L1838.2313,740.6406 C1838.2313,741.0469 1838.2625,741.2188 1838.3406,741.375 C1838.5125,741.625 1838.7938,741.7813 1839.075,741.7813 C1839.3406,741.7813 1839.6063,741.6406 1839.7781,741.4219 C1839.8875,741.25 1839.9188,741.1094 1839.9188,740.6406 L1839.9188,738.0938 L1832.2938,738.0938 C1831.8563,738.0938 1831.7313,738.1094 1831.575,738.2031 C1831.325,738.3594 1831.1688,738.6563 1831.1688,738.9375 C1831.1688,739.2188 1831.3094,739.4688 1831.5281,739.6406 C1831.6844,739.75 1831.8719,739.7813 1832.2938,739.7813 L1832.5438,739.7813 L1832.5438,746.2969 L1832.2938,746.2969 C1831.8875,746.2969 1831.7313,746.3125 1831.575,746.4219 C1831.325,746.5938 1831.1688,746.8594 1831.1688,747.1563 C1831.1688,747.4219 1831.3094,747.6719 1831.5281,747.8281 C1831.6688,747.9531 1831.9031,748 1832.2938,748 L1840.2938,748 L1840.2938,745.4219 C1840.2938,744.9844 1840.2625,744.8438 1840.1844,744.6875 C1840.0125,744.4375 1839.7313,744.2813 1839.45,744.2813 C1839.1844,744.2813 1838.9188,744.3906 1838.7469,744.6406 C1838.6375,744.7969 1838.6063,744.9375 1838.6063,745.4219 L1838.6063,746.2969 L1834.2469,746.2969 L1834.2469,743.875 Z " fill="#000000"/><text fill="#000000" font-family="sans-serif" font-size="12" lengthAdjust="spacingAndGlyphs" textLength="70" x="1852.55" y="747.1543">EstadoGrao</text><line style="stroke:#A80036;stroke-width:1.5;" x1="1807.5" x2="1938.5" y1="759" y2="759"/><text fill="#000000" font-family="sans-serif" font-size="11" lengthAdjust="spacingAndGlyphs" textLength="121" x="1812.5" y="773.2104">UMIDOESECO:Integer</text><text fill="#000000" font-family="sans-serif" font-size="11" lengthAdjust="spacingAndGlyphs" textLength="111" x="1812.5" y="786.0151">SECOESUJO:Integer</text><text fill="#000000" font-family="sans-serif" font-size="11" lengthAdjust="spacingAndGlyphs" textLength="117" x="1812.5" y="798.8198">UMIDOESUJO:Integer</text><text fill="#000000" font-family="sans-serif" font-size="11" lengthAdjust="spacingAndGlyphs" textLength="116" x="1812.5" y="811.6245">SECOELIMPO:Integer</text><line style="stroke:#A80036;stroke-width:1.5;" x1="1807.5" x2="1938.5" y1="818.2188" y2="818.2188"/><!--MD5=[ae7b0ca0f7e312421d3750230ec017c3]
class Agricultor_Copia--><rect codeLine="170" fill="#008000" filter="url(#fl39ajk3sbout)" height="48" id="Agricultor_Copia" style="stroke:#A80036;stroke-width:1.5;" width="130" x="1750" y="265.5"/><ellipse cx="1765" cy="281.5" fill="#ADD1B2" rx="11" ry="11" style="stroke:#A80036;stroke-width:1.0;"/><path d="M1767.3438,277.1719 C1766.4063,276.7344 1765.8125,276.5938 1764.9375,276.5938 C1762.3125,276.5938 1760.3125,278.6719 1760.3125,281.3906 L1760.3125,282.5156 C1760.3125,285.0938 1762.4219,286.9844 1765.3125,286.9844 C1766.5313,286.9844 1767.6875,286.6875 1768.4375,286.1406 C1769.0156,285.7344 1769.3438,285.2813 1769.3438,284.8906 C1769.3438,284.4375 1768.9531,284.0469 1768.4844,284.0469 C1768.2656,284.0469 1768.0625,284.125 1767.875,284.3125 C1767.4219,284.7969 1767.4219,284.7969 1767.2344,284.8906 C1766.8125,285.1563 1766.125,285.2813 1765.3594,285.2813 C1763.3125,285.2813 1762.0156,284.1875 1762.0156,282.4844 L1762.0156,281.3906 C1762.0156,279.6094 1763.2656,278.2969 1765,278.2969 C1765.5781,278.2969 1766.1875,278.4531 1766.6563,278.7031 C1767.1406,278.9844 1767.3125,279.2031 1767.4063,279.6094 C1767.4688,280.0156 1767.5,280.1406 1767.6406,280.2656 C1767.7813,280.4063 1768.0156,280.5156 1768.2344,280.5156 C1768.5,280.5156 1768.7656,280.375 1768.9375,280.1563 C1769.0469,280 1769.0781,279.8125 1769.0781,279.3906 L1769.0781,277.9688 C1769.0781,277.5313 1769.0625,277.4063 1768.9688,277.25 C1768.8125,276.9844 1768.5313,276.8438 1768.2344,276.8438 C1767.9375,276.8438 1767.7344,276.9375 1767.5156,277.25 L1767.3438,277.1719 Z " fill="#000000"/><text fill="#000000" font-family="sans-serif" font-size="12" lengthAdjust="spacingAndGlyphs" textLength="98" x="1779" y="285.6543">Agricultor_Copia</text><line style="stroke:#A80036;stroke-width:1.5;" x1="1751" x2="1879" y1="297.5" y2="297.5"/><line style="stroke:#A80036;stroke-width:1.5;" x1="1751" x2="1879" y1="305.5" y2="305.5"/><!--MD5=[b8b751714b5d74e1ec2cd8fb5018ceee]
class Armazem_Copia--><rect codeLine="173" fill="#008000" filter="url(#fl39ajk3sbout)" height="48" id="Armazem_Copia" style="stroke:#A80036;stroke-width:1.5;" width="129" x="1915.5" y="265.5"/><ellipse cx="1930.5" cy="281.5" fill="#ADD1B2" rx="11" ry="11" style="stroke:#A80036;stroke-width:1.0;"/><path d="M1932.8438,277.1719 C1931.9063,276.7344 1931.3125,276.5938 1930.4375,276.5938 C1927.8125,276.5938 1925.8125,278.6719 1925.8125,281.3906 L1925.8125,282.5156 C1925.8125,285.0938 1927.9219,286.9844 1930.8125,286.9844 C1932.0313,286.9844 1933.1875,286.6875 1933.9375,286.1406 C1934.5156,285.7344 1934.8438,285.2813 1934.8438,284.8906 C1934.8438,284.4375 1934.4531,284.0469 1933.9844,284.0469 C1933.7656,284.0469 1933.5625,284.125 1933.375,284.3125 C1932.9219,284.7969 1932.9219,284.7969 1932.7344,284.8906 C1932.3125,285.1563 1931.625,285.2813 1930.8594,285.2813 C1928.8125,285.2813 1927.5156,284.1875 1927.5156,282.4844 L1927.5156,281.3906 C1927.5156,279.6094 1928.7656,278.2969 1930.5,278.2969 C1931.0781,278.2969 1931.6875,278.4531 1932.1563,278.7031 C1932.6406,278.9844 1932.8125,279.2031 1932.9063,279.6094 C1932.9688,280.0156 1933,280.1406 1933.1406,280.2656 C1933.2813,280.4063 1933.5156,280.5156 1933.7344,280.5156 C1934,280.5156 1934.2656,280.375 1934.4375,280.1563 C1934.5469,280 1934.5781,279.8125 1934.5781,279.3906 L1934.5781,277.9688 C1934.5781,277.5313 1934.5625,277.4063 1934.4688,277.25 C1934.3125,276.9844 1934.0313,276.8438 1933.7344,276.8438 C1933.4375,276.8438 1933.2344,276.9375 1933.0156,277.25 L1932.8438,277.1719 Z " fill="#000000"/><text fill="#000000" font-family="sans-serif" font-size="12" lengthAdjust="spacingAndGlyphs" textLength="97" x="1944.5" y="285.6543">Armazem_Copia</text><line style="stroke:#A80036;stroke-width:1.5;" x1="1916.5" x2="2043.5" y1="297.5" y2="297.5"/><line style="stroke:#A80036;stroke-width:1.5;" x1="1916.5" x2="2043.5" y1="305.5" y2="305.5"/><!--MD5=[cf845e9af2dc27e5c35f10956bdff0ff]
class Grao_Copia--><rect codeLine="176" fill="#008000" filter="url(#fl39ajk3sbout)" height="48" id="Grao_Copia" style="stroke:#A80036;stroke-width:1.5;" width="101" x="1613.5" y="265.5"/><ellipse cx="1628.5" cy="281.5" fill="#ADD1B2" rx="11" ry="11" style="stroke:#A80036;stroke-width:1.0;"/><path d="M1630.8438,277.1719 C1629.9063,276.7344 1629.3125,276.5938 1628.4375,276.5938 C1625.8125,276.5938 1623.8125,278.6719 1623.8125,281.3906 L1623.8125,282.5156 C1623.8125,285.0938 1625.9219,286.9844 1628.8125,286.9844 C1630.0313,286.9844 1631.1875,286.6875 1631.9375,286.1406 C1632.5156,285.7344 1632.8438,285.2813 1632.8438,284.8906 C1632.8438,284.4375 1632.4531,284.0469 1631.9844,284.0469 C1631.7656,284.0469 1631.5625,284.125 1631.375,284.3125 C1630.9219,284.7969 1630.9219,284.7969 1630.7344,284.8906 C1630.3125,285.1563 1629.625,285.2813 1628.8594,285.2813 C1626.8125,285.2813 1625.5156,284.1875 1625.5156,282.4844 L1625.5156,281.3906 C1625.5156,279.6094 1626.7656,278.2969 1628.5,278.2969 C1629.0781,278.2969 1629.6875,278.4531 1630.1563,278.7031 C1630.6406,278.9844 1630.8125,279.2031 1630.9063,279.6094 C1630.9688,280.0156 1631,280.1406 1631.1406,280.2656 C1631.2813,280.4063 1631.5156,280.5156 1631.7344,280.5156 C1632,280.5156 1632.2656,280.375 1632.4375,280.1563 C1632.5469,280 1632.5781,279.8125 1632.5781,279.3906 L1632.5781,277.9688 C1632.5781,277.5313 1632.5625,277.4063 1632.4688,277.25 C1632.3125,276.9844 1632.0313,276.8438 1631.7344,276.8438 C1631.4375,276.8438 1631.2344,276.9375 1631.0156,277.25 L1630.8438,277.1719 Z " fill="#000000"/><text fill="#000000" font-family="sans-serif" font-size="12" lengthAdjust="spacingAndGlyphs" textLength="69" x="1642.5" y="285.6543">Grao_Copia</text><line style="stroke:#A80036;stroke-width:1.5;" x1="1614.5" x2="1713.5" y1="297.5" y2="297.5"/><line style="stroke:#A80036;stroke-width:1.5;" x1="1614.5" x2="1713.5" y1="305.5" y2="305.5"/><!--MD5=[d146a88b916ccbf81501093f3121b4f3]
class Motorista_Copia--><rect codeLine="179" fill="#008000" filter="url(#fl39ajk3sbout)" height="48" id="Motorista_Copia" style="stroke:#A80036;stroke-width:1.5;" width="128" x="1450" y="265.5"/><ellipse cx="1465" cy="281.5" fill="#ADD1B2" rx="11" ry="11" style="stroke:#A80036;stroke-width:1.0;"/><path d="M1467.3438,277.1719 C1466.4063,276.7344 1465.8125,276.5938 1464.9375,276.5938 C1462.3125,276.5938 1460.3125,278.6719 1460.3125,281.3906 L1460.3125,282.5156 C1460.3125,285.0938 1462.4219,286.9844 1465.3125,286.9844 C1466.5313,286.9844 1467.6875,286.6875 1468.4375,286.1406 C1469.0156,285.7344 1469.3438,285.2813 1469.3438,284.8906 C1469.3438,284.4375 1468.9531,284.0469 1468.4844,284.0469 C1468.2656,284.0469 1468.0625,284.125 1467.875,284.3125 C1467.4219,284.7969 1467.4219,284.7969 1467.2344,284.8906 C1466.8125,285.1563 1466.125,285.2813 1465.3594,285.2813 C1463.3125,285.2813 1462.0156,284.1875 1462.0156,282.4844 L1462.0156,281.3906 C1462.0156,279.6094 1463.2656,278.2969 1465,278.2969 C1465.5781,278.2969 1466.1875,278.4531 1466.6563,278.7031 C1467.1406,278.9844 1467.3125,279.2031 1467.4063,279.6094 C1467.4688,280.0156 1467.5,280.1406 1467.6406,280.2656 C1467.7813,280.4063 1468.0156,280.5156 1468.2344,280.5156 C1468.5,280.5156 1468.7656,280.375 1468.9375,280.1563 C1469.0469,280 1469.0781,279.8125 1469.0781,279.3906 L1469.0781,277.9688 C1469.0781,277.5313 1469.0625,277.4063 1468.9688,277.25 C1468.8125,276.9844 1468.5313,276.8438 1468.2344,276.8438 C1467.9375,276.8438 1467.7344,276.9375 1467.5156,277.25 L1467.3438,277.1719 Z " fill="#000000"/><text fill="#000000" font-family="sans-serif" font-size="12" lengthAdjust="spacingAndGlyphs" textLength="96" x="1479" y="285.6543">Motorista_Copia</text><line style="stroke:#A80036;stroke-width:1.5;" x1="1451" x2="1577" y1="297.5" y2="297.5"/><line style="stroke:#A80036;stroke-width:1.5;" x1="1451" x2="1577" y1="305.5" y2="305.5"/><!--MD5=[fcf5bb342e7f37916acf2757beba031a]
reverse link Pessoa to Usuario--><path codeLine="182" d="M1157.87,164.674 C1169.35,193.592 1182.72,227.295 1192.61,252.232 " fill="none" id="Pessoa-backto-Usuario" style="stroke:#A80036;stroke-width:1.0;"/><polygon fill="#A80036" points="1155.9,159.706,1155.5051,169.5469,1157.7459,164.3528,1162.94,166.5936,1155.9,159.706" style="stroke:#A80036;stroke-width:1.0;"/><text fill="#000000" font-family="sans-serif" font-size="13" lengthAdjust="spacingAndGlyphs" textLength="8" x="1150.0816" y="179.5437">1</text><text fill="#000000" font-family="sans-serif" font-size="13" lengthAdjust="spacingAndGlyphs" textLength="8" x="1181.3343" y="241.3712">1</text><!--MD5=[19995aef0359ebd3f37ba33d41b0b673]
reverse link Pessoa to Agricultor--><path codeLine="183" d="M1072.46,155.394 C1045.86,177.401 1014.38,203.458 986,227 C978.414,233.292 970.394,239.95 962.543,246.472 " fill="none" id="Pessoa-backto-Agricultor" style="stroke:#A80036;stroke-width:1.0;"/><polygon fill="#A80036" points="1076.34,152.177,1066.855,154.8294,1072.4866,155.3631,1071.9528,160.9948,1076.34,152.177" style="stroke:#A80036;stroke-width:1.0;"/><text fill="#000000" font-family="sans-serif" font-size="13" lengthAdjust="spacingAndGlyphs" textLength="8" x="1060.4398" y="154.5267">1</text><text fill="#000000" font-family="sans-serif" font-size="13" lengthAdjust="spacingAndGlyphs" textLength="8" x="961.9608" y="235.4636">1</text><!--MD5=[36f02dcbe01c65237d354f401f97b271]
reverse link Pessoa to Motorista--><path codeLine="184" d="M1109.78,164.727 C1097.07,196.336 1082.06,233.65 1071.87,258.982 " fill="none" id="Pessoa-backto-Motorista" style="stroke:#A80036;stroke-width:1.0;"/><polygon fill="#A80036" points="1111.8,159.706,1104.7327,166.5655,1109.9357,164.3454,1112.1557,169.5484,1111.8,159.706" style="stroke:#A80036;stroke-width:1.0;"/><text fill="#000000" font-family="sans-serif" font-size="13" lengthAdjust="spacingAndGlyphs" textLength="8" x="1100.6069" y="179.5437">1</text><text fill="#000000" font-family="sans-serif" font-size="13" lengthAdjust="spacingAndGlyphs" textLength="8" x="1065.5916" y="247.7683">1</text><!--MD5=[c86655b86f719092228cc4e86a551caf]
link Motorista to Caminhao--><path codeLine="185" d="M1060,332.081 C1060,332.081 1060,409.086 1060,444.65 " fill="none" id="Motorista-Caminhao" style="stroke:#A80036;stroke-width:1.0;"/><polygon fill="#A80036" points="1060,457.835,1064,448.835,1060,452.835,1056,448.835,1060,457.835" style="stroke:#A80036;stroke-width:1.0;"/><line style="stroke:#A80036;stroke-width:1.0;" x1="1060" x2="1060" y1="452.835" y2="444.835"/><polygon fill="#A80036" points="1060,320.081,1056,326.081,1060,332.081,1064,326.081,1060,320.081" style="stroke:#A80036;stroke-width:1.0;"/><text fill="#000000" font-family="sans-serif" font-size="13" lengthAdjust="spacingAndGlyphs" textLength="8" x="1051.175" y="340.0359">1</text><text fill="#000000" font-family="sans-serif" font-size="13" lengthAdjust="spacingAndGlyphs" textLength="8" x="1051.4375" y="446.857">1</text><!--MD5=[8ed61fa2c4bf0c68652ab1eec172d3f0]
link Caminhao to MarcaCaminhao--><path codeLine="186" d="M1060,569.161 C1060,569.161 1060,622.124 1060,649.807 " fill="none" id="Caminhao-MarcaCaminhao" style="stroke:#A80036;stroke-width:1.0;"/><polygon fill="#A80036" points="1060,662.907,1064,653.907,1060,657.907,1056,653.907,1060,662.907" style="stroke:#A80036;stroke-width:1.0;"/><line style="stroke:#A80036;stroke-width:1.0;" x1="1060" x2="1060" y1="657.907" y2="649.907"/><polygon fill="#FFFFFF" points="1060,557.161,1056,563.161,1060,569.161,1064,563.161,1060,557.161" style="stroke:#A80036;stroke-width:1.0;"/><text fill="#000000" font-family="sans-serif" font-size="13" lengthAdjust="spacingAndGlyphs" textLength="8" x="1051.4375" y="577.2601">1</text><text fill="#000000" font-family="sans-serif" font-size="13" lengthAdjust="spacingAndGlyphs" textLength="8" x="1051.7313" y="651.8335">1</text><!--MD5=[75293945321368f6389bdd0a7a0e67f5]
link Armazem to Localizacao--><path codeLine="187" d="M439.6047,178.0035 C439.6047,178.0035 437.057,220.641 435.953,239.099 " fill="none" id="Armazem-Localizacao" style="stroke:#A80036;stroke-width:1.0;"/><polygon fill="#A80036" points="435.166,252.267,439.6969,243.5222,435.4649,247.2759,431.7112,243.044,435.166,252.267" style="stroke:#A80036;stroke-width:1.0;"/><line style="stroke:#A80036;stroke-width:1.0;" x1="435.4649" x2="435.942" y1="247.2759" y2="239.29"/><polygon fill="#A80036" points="440.322,166.025,435.9705,171.7752,439.6047,178.0035,443.9562,172.2534,440.322,166.025" style="stroke:#A80036;stroke-width:1.0;"/><text fill="#000000" font-family="sans-serif" font-size="13" lengthAdjust="spacingAndGlyphs" textLength="8" x="431.4822" y="185.7675">1</text><text fill="#000000" font-family="sans-serif" font-size="13" lengthAdjust="spacingAndGlyphs" textLength="8" x="426.8393" y="241.4124">1</text><!--MD5=[df0ef4982d85a54af0f78ab5dd50a18f]
link PlanoDeCusto to TipoConta--><path codeLine="188" d="M114.2624,177.7895 C114.2624,177.7895 105.604,220.85 101.88,239.369 " fill="none" id="PlanoDeCusto-TipoConta" style="stroke:#A80036;stroke-width:1.0;"/><polygon fill="#A80036" points="99.286,252.267,104.9817,244.2322,100.2717,247.3651,97.1387,242.6551,99.286,252.267" style="stroke:#A80036;stroke-width:1.0;"/><line style="stroke:#A80036;stroke-width:1.0;" x1="100.2717" x2="101.8491" y1="247.3651" y2="239.522"/><polygon fill="#A80036" points="116.628,166.025,111.5237,171.1187,114.2624,177.7895,119.3667,172.6958,116.628,166.025" style="stroke:#A80036;stroke-width:1.0;"/><text fill="#000000" font-family="sans-serif" font-size="13" lengthAdjust="spacingAndGlyphs" textLength="15" x="99.4545" y="185.7675">1*</text><text fill="#000000" font-family="sans-serif" font-size="13" lengthAdjust="spacingAndGlyphs" textLength="8" x="91.8713" y="241.4124">1</text><!--MD5=[cfbbfbda8fd317afc3dbf40e29e47073]
link Ventilacao to MarcaVentilacao--><path codeLine="189" d="M267,364.108 C267,364.108 267,425.168 267,451.234 " fill="none" id="Ventilacao-MarcaVentilacao" style="stroke:#A80036;stroke-width:1.0;"/><polygon fill="#A80036" points="267,464.324,271,455.324,267,459.324,263,455.324,267,464.324" style="stroke:#A80036;stroke-width:1.0;"/><line style="stroke:#A80036;stroke-width:1.0;" x1="267" x2="267" y1="459.324" y2="451.324"/><polygon fill="#FFFFFF" points="267,352.108,263,358.108,267,364.108,271,358.108,267,352.108" style="stroke:#A80036;stroke-width:1.0;"/><text fill="#000000" font-family="sans-serif" font-size="13" lengthAdjust="spacingAndGlyphs" textLength="15" x="251.1797" y="371.8596">1*</text><text fill="#000000" font-family="sans-serif" font-size="13" lengthAdjust="spacingAndGlyphs" textLength="8" x="258.3625" y="453.292">1</text><!--MD5=[9366d0e4b4297b6a58fc4158423223a0]
link Armazem to Ventilacao--><path codeLine="190" d="M376.4962,174.6735 C376.4962,174.6735 348.799,203.466 335.784,216.995 " fill="none" id="Armazem-Ventilacao" style="stroke:#A80036;stroke-width:1.0;"/><polygon fill="#A80036" points="326.43,226.719,335.5523,223.0063,329.8965,223.1157,329.787,217.4599,326.43,226.719" style="stroke:#A80036;stroke-width:1.0;"/><line style="stroke:#A80036;stroke-width:1.0;" x1="329.8965" x2="335.443" y1="223.1157" y2="217.3505"/><polygon fill="#FFFFFF" points="384.815,166.025,377.7727,167.5763,376.4962,174.6735,383.5384,173.1222,384.815,166.025" style="stroke:#A80036;stroke-width:1.0;"/><text fill="#000000" font-family="sans-serif" font-size="13" lengthAdjust="spacingAndGlyphs" textLength="8" x="369.9041" y="185.7675">1</text><text fill="#000000" font-family="sans-serif" font-size="13" lengthAdjust="spacingAndGlyphs" textLength="8" x="324.4927" y="216.1156">1</text><!--MD5=[9add82004a0cc808a28806f85ffc7c35]
link RetirarGrao to Endereco--><path codeLine="191" d="M1646.0149,556.2531 C1646.0149,556.2531 1671.61,678.289 1681.69,726.35 " fill="none" id="RetirarGrao-Endereco" style="stroke:#A80036;stroke-width:1.0;"/><polygon fill="#A80036" points="1684.39,739.209,1686.456,729.5793,1683.3629,734.3156,1678.6266,731.2226,1684.39,739.209" style="stroke:#A80036;stroke-width:1.0;"/><line style="stroke:#A80036;stroke-width:1.0;" x1="1683.3629" x2="1681.72" y1="734.3156" y2="726.486"/><polygon fill="#A80036" points="1643.55,544.509,1640.8678,551.2027,1646.0149,556.2531,1648.6972,549.5594,1643.55,544.509" style="stroke:#A80036;stroke-width:1.0;"/><text fill="#000000" font-family="sans-serif" font-size="13" lengthAdjust="spacingAndGlyphs" textLength="8" x="1636.1602" y="564.2709">1</text><text fill="#000000" font-family="sans-serif" font-size="13" lengthAdjust="spacingAndGlyphs" textLength="8" x="1674.322" y="728.3441">1</text><!--MD5=[e61d24baa25a3dae9b7fd46921836c80]
link ArmazenarGrao to Endereco--><path codeLine="192" d="M1802.7053,612.1909 C1802.7053,612.1909 1745.48,696.615 1723.84,728.534 " fill="none" id="ArmazenarGrao-Endereco" style="stroke:#A80036;stroke-width:1.0;"/><polygon fill="#A80036" points="1716.53,739.316,1724.8922,734.1127,1719.3365,735.1779,1718.2713,729.6223,1716.53,739.316" style="stroke:#A80036;stroke-width:1.0;"/><line style="stroke:#A80036;stroke-width:1.0;" x1="1719.3365" x2="1723.825" y1="735.1779" y2="728.5555"/><polygon fill="#A80036" points="1809.44,602.259,1802.762,604.9801,1802.7053,612.1909,1809.3833,609.4699,1809.44,602.259" style="stroke:#A80036;stroke-width:1.0;"/><text fill="#000000" font-family="sans-serif" font-size="13" lengthAdjust="spacingAndGlyphs" textLength="8" x="1796.4786" y="621.8459">1</text><text fill="#000000" font-family="sans-serif" font-size="13" lengthAdjust="spacingAndGlyphs" textLength="8" x="1712.1869" y="728.4702">1</text><!--MD5=[4bfb4aa57a67fc3747af3eba3781f9f9]
link Grao to UnidadeDeMedida--><path codeLine="193" d="M628.9098,164.9218 C628.9098,164.9218 617.58,207.464 612.333,227.168 " fill="none" id="Grao-UnidadeDeMedida" style="stroke:#A80036;stroke-width:1.0;"/><polygon fill="#A80036" points="608.978,239.766,615.1596,232.0987,610.2649,234.9344,607.4291,230.0397,608.978,239.766" style="stroke:#A80036;stroke-width:1.0;"/><line style="stroke:#A80036;stroke-width:1.0;" x1="610.2649" x2="612.3235" y1="234.9344" y2="227.204"/><polygon fill="#FFFFFF" points="631.998,153.326,626.5886,158.0945,628.9098,164.9218,634.3192,160.1533,631.998,153.326" style="stroke:#A80036;stroke-width:1.0;"/><text fill="#000000" font-family="sans-serif" font-size="13" lengthAdjust="spacingAndGlyphs" textLength="15" x="614.1149" y="173.4483">1*</text><text fill="#000000" font-family="sans-serif" font-size="13" lengthAdjust="spacingAndGlyphs" textLength="8" x="602.2405" y="228.7783">1</text><!--MD5=[b7328005acd279fb6d417bc65e4e5f91]
link Grao to Categoria--><path codeLine="194" d="M683.094,163.4022 C683.094,163.4022 711.918,207.971 725.256,228.593 " fill="none" id="Grao-Categoria" style="stroke:#A80036;stroke-width:1.0;"/><polygon fill="#A80036" points="732.482,239.766,730.953,230.0366,729.7666,235.5676,724.2355,234.3812,732.482,239.766" style="stroke:#A80036;stroke-width:1.0;"/><line style="stroke:#A80036;stroke-width:1.0;" x1="729.7666" x2="725.4215" y1="235.5676" y2="228.85"/><polygon fill="#FFFFFF" points="676.577,153.326,676.4768,160.5364,683.094,163.4022,683.1942,156.1917,676.577,153.326" style="stroke:#A80036;stroke-width:1.0;"/><text fill="#000000" font-family="sans-serif" font-size="13" lengthAdjust="spacingAndGlyphs" textLength="15" x="664.9628" y="173.4483">1*</text><text fill="#000000" font-family="sans-serif" font-size="13" lengthAdjust="spacingAndGlyphs" textLength="8" x="719.4873" y="228.7783">1</text><!--MD5=[d62c35d70d6b883413450e087b02902d]
reverse link Armazem_Copia to ArmazenarGrao--><path codeLine="195" d="M1966.25,318.266 C1954.31,342.353 1936.33,378.649 1919.34,412.962 " fill="none" id="Armazem_Copia-backto-ArmazenarGrao" style="stroke:#A80036;stroke-width:1.0;"/><polygon fill="#A80036" points="1968.55,313.616,1960.973,319.908,1966.3322,318.0972,1968.143,323.4564,1968.55,313.616" style="stroke:#A80036;stroke-width:1.0;"/><text fill="#000000" font-family="sans-serif" font-size="13" lengthAdjust="spacingAndGlyphs" textLength="8" x="1956.7841" y="333.4055">1</text><text fill="#000000" font-family="sans-serif" font-size="13" lengthAdjust="spacingAndGlyphs" textLength="8" x="1914.714" y="401.9089">1</text><!--MD5=[a7cefcd755382eb6e0979709d53ee720]
reverse link Grao_Copia to ArmazenarGrao--><path codeLine="196" d="M1690,317.369 C1713.29,341.445 1748.88,378.22 1782.49,412.962 " fill="none" id="Grao_Copia-backto-ArmazenarGrao" style="stroke:#A80036;stroke-width:1.0;"/><polygon fill="#A80036" points="1686.37,313.616,1689.7638,322.8616,1689.8508,317.2055,1695.507,317.2924,1686.37,313.616" style="stroke:#A80036;stroke-width:1.0;"/><text fill="#000000" font-family="sans-serif" font-size="13" lengthAdjust="spacingAndGlyphs" textLength="8" x="1682.8477" y="333.4055">1</text><text fill="#000000" font-family="sans-serif" font-size="13" lengthAdjust="spacingAndGlyphs" textLength="8" x="1766.9587" y="401.9089">1</text><!--MD5=[2252e63a80250441e805c4e31753db7f]
reverse link Motorista_Copia to ArmazenarGrao--><path codeLine="197" d="M1545.28,317.012 C1560.04,328.707 1578.28,342.029 1596,352 C1659.44,387.699 1684.54,377.342 1748,413 C1753.79,416.253 1759.61,419.739 1765.42,423.384 " fill="none" id="Motorista_Copia-backto-ArmazenarGrao" style="stroke:#A80036;stroke-width:1.0;"/><polygon fill="#A80036" points="1541.21,313.761,1545.7531,322.4994,1545.1194,316.8782,1550.7406,316.2445,1541.21,313.761" style="stroke:#A80036;stroke-width:1.0;"/><text fill="#000000" font-family="sans-serif" font-size="13" lengthAdjust="spacingAndGlyphs" textLength="8" x="1538.8674" y="333.5858">1</text><text fill="#000000" font-family="sans-serif" font-size="13" lengthAdjust="spacingAndGlyphs" textLength="8" x="1749.5745" y="414.019">1</text><!--MD5=[d911555b90fb07ed07d0f71d37470d4b]
reverse link Agricultor_Copia to ArmazenarGrao--><path codeLine="198" d="M1822.54,318.568 C1829,342.655 1838.71,378.792 1847.88,412.962 " fill="none" id="Agricultor_Copia-backto-ArmazenarGrao" style="stroke:#A80036;stroke-width:1.0;"/><polygon fill="#A80036" points="1821.21,313.616,1819.6819,323.3456,1822.5072,318.4448,1827.408,321.2701,1821.21,313.616" style="stroke:#A80036;stroke-width:1.0;"/><text fill="#000000" font-family="sans-serif" font-size="13" lengthAdjust="spacingAndGlyphs" textLength="8" x="1813.7487" y="333.4055">1</text><text fill="#000000" font-family="sans-serif" font-size="13" lengthAdjust="spacingAndGlyphs" textLength="8" x="1837.5595" y="401.9089">1</text><!--MD5=[3d471a2d5f5774e8e96bcab329614c03]
reverse link Armazem_Copia to RetirarGrao--><path codeLine="199" d="M1948.7,316.975 C1933.93,328.662 1915.7,341.988 1898,352 C1835.36,387.439 1809.69,375.941 1748,413 C1721.08,429.173 1693.96,451.616 1673.15,470.459 " fill="none" id="Armazem_Copia-backto-RetirarGrao" style="stroke:#A80036;stroke-width:1.0;"/><polygon fill="#A80036" points="1952.77,313.726,1943.239,316.2078,1948.8601,316.8425,1948.2253,322.4636,1952.77,313.726" style="stroke:#A80036;stroke-width:1.0;"/><text fill="#000000" font-family="sans-serif" font-size="13" lengthAdjust="spacingAndGlyphs" textLength="8" x="1937.1577" y="333.5423">1</text><text fill="#000000" font-family="sans-serif" font-size="13" lengthAdjust="spacingAndGlyphs" textLength="8" x="1680.737" y="459.3619">1</text><!--MD5=[0f678b1607acc2fdba838178725144d0]
reverse link Grao_Copia to RetirarGrao--><path codeLine="200" d="M1660.35,318.655 C1655.31,357.512 1646.23,427.605 1640.69,470.308 " fill="none" id="Grao_Copia-backto-RetirarGrao" style="stroke:#A80036;stroke-width:1.0;"/><polygon fill="#A80036" points="1661,313.616,1655.8758,322.0268,1660.357,318.5745,1663.8093,323.0557,1661,313.616" style="stroke:#A80036;stroke-width:1.0;"/><text fill="#000000" font-family="sans-serif" font-size="13" lengthAdjust="spacingAndGlyphs" textLength="8" x="1651.2938" y="333.4055">1</text><text fill="#000000" font-family="sans-serif" font-size="13" lengthAdjust="spacingAndGlyphs" textLength="8" x="1632.8129" y="459.4608">1</text><!--MD5=[298cb57e84514196bc5d88b04a60c2cc]
reverse link Agricultor_Copia to RetirarGrao--><path codeLine="201" d="M1792.45,317.71 C1760.42,356.366 1701.67,427.256 1665.99,470.308 " fill="none" id="Agricultor_Copia-backto-RetirarGrao" style="stroke:#A80036;stroke-width:1.0;"/><polygon fill="#A80036" points="1795.84,313.616,1787.0138,317.9861,1792.6464,317.4632,1793.1693,323.0958,1795.84,313.616" style="stroke:#A80036;stroke-width:1.0;"/><text fill="#000000" font-family="sans-serif" font-size="13" lengthAdjust="spacingAndGlyphs" textLength="8" x="1782.1947" y="333.4055">1</text><text fill="#000000" font-family="sans-serif" font-size="13" lengthAdjust="spacingAndGlyphs" textLength="8" x="1662.6195" y="459.4608">1</text><!--MD5=[711a00c8a0ee3361f311301201c6ded5]
reverse link Motorista_Copia to RetirarGrao--><path codeLine="202" d="M1529.63,318.181 C1551.53,356.94 1591.34,427.43 1615.56,470.308 " fill="none" id="Motorista_Copia-backto-RetirarGrao" style="stroke:#A80036;stroke-width:1.0;"/><polygon fill="#A80036" points="1527.06,313.616,1527.9992,323.42,1529.5171,317.9706,1534.9665,319.4886,1527.06,313.616" style="stroke:#A80036;stroke-width:1.0;"/><text fill="#000000" font-family="sans-serif" font-size="13" lengthAdjust="spacingAndGlyphs" textLength="8" x="1521.2684" y="333.4055">1</text><text fill="#000000" font-family="sans-serif" font-size="13" lengthAdjust="spacingAndGlyphs" textLength="8" x="1603.2066" y="459.4608">1</text><!--MD5=[7ac92fff71ffbf7fc9b0de2d4bf1b126]
link Cidade to Estado--><path codeLine="203" d="M1346,338.654 C1346,338.654 1346,421.768 1346,456.912 " fill="none" id="Cidade-Estado" style="stroke:#A80036;stroke-width:1.0;"/><polygon fill="#A80036" points="1346,470.229,1350,461.229,1346,465.229,1342,461.229,1346,470.229" style="stroke:#A80036;stroke-width:1.0;"/><line style="stroke:#A80036;stroke-width:1.0;" x1="1346" x2="1346" y1="465.229" y2="457.2285"/><polygon fill="#FFFFFF" points="1346,326.654,1342,332.654,1346,338.654,1350,332.654,1346,326.654" style="stroke:#A80036;stroke-width:1.0;"/><text fill="#000000" font-family="sans-serif" font-size="13" lengthAdjust="spacingAndGlyphs" textLength="19" x="1325.4266" y="346.1601">1 *</text><text fill="#000000" font-family="sans-serif" font-size="13" lengthAdjust="spacingAndGlyphs" textLength="8" x="1337.2875" y="459.3677">1</text><!--MD5=[5e49a82029cbe9dbe0064e468b63c9bf]
link Pessoa to Cidade--><path codeLine="204" d="M1201.0222,159.482 C1201.0222,159.482 1254.84,204.749 1280,227 C1285.86,232.184 1291.95,237.688 1297.95,243.189 " fill="none" id="Pessoa-Cidade" style="stroke:#A80036;stroke-width:1.0;"/><polygon fill="#A80036" points="1307.92,252.387,1304.0173,243.3444,1304.245,248.9966,1298.5927,249.2244,1307.92,252.387" style="stroke:#A80036;stroke-width:1.0;"/><line style="stroke:#A80036;stroke-width:1.0;" x1="1304.245" x2="1298.365" y1="248.9966" y2="243.57"/><polygon fill="#FFFFFF" points="1191.79,151.816,1193.8508,158.7264,1201.0222,159.482,1198.9614,152.5716,1191.79,151.816" style="stroke:#A80036;stroke-width:1.0;"/><text fill="#000000" font-family="sans-serif" font-size="13" lengthAdjust="spacingAndGlyphs" textLength="19" x="1199.5704" y="153.6086">1 *</text><text fill="#000000" font-family="sans-serif" font-size="13" lengthAdjust="spacingAndGlyphs" textLength="8" x="1292.4245" y="241.5538">1</text><!--MD5=[58752b1fcdaddecf7590e56eda03964a]
link PlanoDeCusto to PlanoDeCusto--><path codeLine="205" d="M225.621,86.831 C245.892,88.555 260.5,94.111 260.5,103.5 C260.5,112.082 248.295,117.462 230.716,119.639 " fill="none" id="PlanoDeCusto-to-PlanoDeCusto" style="stroke:#A80036;stroke-width:1.0;"/><polygon fill="#A80036" points="225.621,120.169,234.9865,123.2166,230.5942,119.6518,234.159,115.2595,225.621,120.169" style="stroke:#A80036;stroke-width:1.0;"/><text fill="#000000" font-family="sans-serif" font-size="13" lengthAdjust="spacingAndGlyphs" textLength="84" x="266.5" y="108.0669">dependentes</text><text fill="#000000" font-family="sans-serif" font-size="13" lengthAdjust="spacingAndGlyphs" textLength="8" x="233.6392" y="81.9841">1</text><text fill="#000000" font-family="sans-serif" font-size="13" lengthAdjust="spacingAndGlyphs" textLength="7" x="233.5994" y="117.9787">*</text><!--MD5=[5557899370878fdbc5b040da2d215883]
link Situacao to Armazem_Copia--><path codeLine="206" d="M1948.2313,152.537 C1948.2313,152.537 1964.99,224.26 1971.58,252.47 " fill="none" id="Situacao-Armazem_Copia" style="stroke:#A80036;stroke-width:1.0;"/><polygon fill="#A80036" points="1974.58,265.323,1976.43,255.6494,1973.4437,260.4538,1968.6393,257.4676,1974.58,265.323" style="stroke:#A80036;stroke-width:1.0;"/><line style="stroke:#A80036;stroke-width:1.0;" x1="1973.4437" x2="1971.625" y1="260.4538" y2="252.664"/><polygon fill="#FFFFFF" points="1945.5,140.852,1942.9707,147.605,1948.2313,152.537,1950.7607,145.7841,1945.5,140.852" style="stroke:#A80036;stroke-width:1.0;"/><text fill="#000000" font-family="sans-serif" font-size="13" lengthAdjust="spacingAndGlyphs" textLength="8" x="1938.2172" y="160.1089">1</text><text fill="#000000" font-family="sans-serif" font-size="13" lengthAdjust="spacingAndGlyphs" textLength="8" x="1964.1661" y="254.2897">1</text><!--MD5=[416900c82e07851aa658fd5f571b79b8]
link ArmazenarGrao to EstadoGrao--><path codeLine="207" d="M1873,614.259 C1873,614.259 1873,684.452 1873,713.609 " fill="none" id="ArmazenarGrao-EstadoGrao" style="stroke:#A80036;stroke-width:1.0;"/><polygon fill="#A80036" points="1873,726.94,1877,717.94,1873,721.94,1869,717.94,1873,726.94" style="stroke:#A80036;stroke-width:1.0;"/><line style="stroke:#A80036;stroke-width:1.0;" x1="1873" x2="1873" y1="721.94" y2="713.94"/><polygon fill="#A80036" points="1873,602.259,1869,608.259,1873,614.259,1877,608.259,1873,602.259" style="stroke:#A80036;stroke-width:1.0;"/><text fill="#000000" font-family="sans-serif" font-size="13" lengthAdjust="spacingAndGlyphs" textLength="8" x="1864.7063" y="621.8459">1</text><text fill="#000000" font-family="sans-serif" font-size="13" lengthAdjust="spacingAndGlyphs" textLength="8" x="1864.4375" y="715.9768">1</text><!--MD5=[8aa96f7960151ac8f6a979f70d54a9a0]
@startuml
package Crud_e_Modelagem <<Folder>> {
class Pessoa {
  -id: Integer 
  -nome:String 
  -nif: String 
  -email:String 
  -telefone: String 
}

class Usuario {
  -senha:String 
  +void methods()
}

class Cidade {
  -id:Integer 
  -nome:String 
}

class Estado {
  -id:Integer 
  -nome:String 
}


class Agricultor {
  -imagem: String
  -status:Boolean 
  +void methods()
}

class Motorista {
  +void methods()
}

class Caminhao {
   -placaCaminhao: String
   -volume: double
   -tamanho: Integer
   -Double: peso
}



Enum MarcaCaminhao{
  VOLKSWAGEN:Integer
  MERCEDESBENZ:Integer
  VOLVO:Integer
  SCANIA:Integer
  FORD:Integer
  IVECO:Integer
  HYUNDAI:Integer
  MAN:Integer
  AGRALE:Integer
  EFFA:Integer
  INTERNATIONAL:Integer
  SINOTRUCK:Integer
  SHACMAN:Integer
  EXTERNA:Integer
  
}

class UnidadeDeMedida{
  -id: Integer 
  -unidadeMedida: String 
  -desc: String 
  +void methods()
}

class Categoria{
  -id: Integer 
  -sigla: String 
  -desc: String 
  +void methods()
}

class Grao{
  -id: Integer 
  -nome: String
  -desc: String 
  +void methods()
}

class MarcaVentilacao{
  -id: Integer 
  -marca: String 
  -desc: String 
  
}

class Ventilacao{
  -id: Integer 
  -nome: 
  -desc: String 
  -velocidadeRPM: Double 
  -kilowats: Double 
  +void methods()
}

class Armazem {
  -id: Integer 
  -desc: String 
  -sigla: String 
  -status: Boolean 
  -capacidade: Double 
  -imagem: String
  
}

class Localizacao {
  -lat: String 
  -long: String 
}

Enum TipoConta{
  DEVEDORA:Integer
  CREDORA:Integer
}

class PlanoDeCusto {
  -id: Integer 
  -dataContabilidade: LocalDate 
  -bloqueado: Boolean 
  -obrigatorio: Boolean 
  -preco: Double 
  -desc: String 

}
}

package Movimentações <<Folder>> {

class ArmazenarGrao {
  -id: Integer 
  -horarioArmazenagem: LocalTime 
  -umidadeRelativaDoAr: String 
  -pressaoVaporGrao: String 
  -pressaoVaporAr: String 
  -temperatura: Double 
  -condicaoArmazenamento: String 
  -etapaArmazenamento: String 
  -custoArmazenagem: Double 
  -quantidadeArmazenada: Double 
  -situacaoGrao: String
  
}

class RetirarGrao{
  -id: Integer 
  -quantidadeRetirada : Double 
}

class Situacao{
  -id: Integer 
  -quantidadeArmazenada : Double 
}

class Endereco{
  -id: Integer 
  -endereco: String 
}

Enum EstadoGrao{
  UMIDOESECO:Integer
  SECOESUJO:Integer
  UMIDOESUJO:Integer
  SECOELIMPO:Integer
}

class Agricultor_Copia #green{
}

class Armazem_Copia #green{
}

class Grao_Copia #green {
}

class Motorista_Copia #green {
}
}
Pessoa "1" <- - "1" Usuario 
Pessoa "1" <- - "1" Agricultor 
Pessoa "1" <- - "1" Motorista 
Motorista "1" *- -> "1" Caminhao
Caminhao"1" o- -> "1" MarcaCaminhao 
Armazem "1" *- -> "1" Localizacao 
PlanoDeCusto  "1*" *- -> "1" TipoConta 
Ventilacao "1*" o- -> "1" MarcaVentilacao 
Armazem "1" o- -> "1" Ventilacao 
RetirarGrao "1" *- -> "1" Endereco 
ArmazenarGrao "1" *- -> "1" Endereco
Grao "1*" o- -> "1" UnidadeDeMedida 
Grao "1*" o- -> "1" Categoria 
Armazem_Copia "1" <- - "1" ArmazenarGrao 
Grao_Copia "1" <- - "1" ArmazenarGrao 
Motorista_Copia "1" <- - "1" ArmazenarGrao 
Agricultor_Copia "1" <- - "1" ArmazenarGrao  
Armazem_Copia "1" <- - "1" RetirarGrao 
Grao_Copia "1" <- - "1" RetirarGrao 
Agricultor_Copia "1" <- - "1" RetirarGrao 
Motorista_Copia "1" <- - "1"RetirarGrao  
Cidade "1 *" o- -> "1" Estado 
Pessoa "1 *" o- -> "1" Cidade 
PlanoDeCusto  "1" - -> "*" PlanoDeCusto : "dependentes"
Situacao "1" o- -> "1" "Armazem_Copia"
ArmazenarGrao "1" *- -> "1" EstadoGrao
@enduml

PlantUML version 1.2020.22(Sun Dec 06 09:36:27 UTC 2020)
(GPL source distribution)
Java Runtime: Java(TM) SE Runtime Environment
JVM: Java HotSpot(TM) 64-Bit Server VM
Default Encoding: UTF-8
Language: en
Country: US
--></g></svg>