<?xml version="1.0" encoding="UTF-8" standalone="no"?><svg xmlns="http://www.w3.org/2000/svg" xmlns:xlink="http://www.w3.org/1999/xlink" contentScriptType="application/ecmascript" contentStyleType="text/css" height="913px" preserveAspectRatio="none" style="width:2076px;height:913px;" version="1.1" viewBox="0 0 2076 913" width="2076px" zoomAndPan="magnify"><defs><filter height="300%" id="fqu2hj5yvxt3v" width="300%" x="-1" y="-1"><feGaussianBlur result="blurOut" stdDeviation="2.0"/><feColorMatrix in="blurOut" result="blurOut2" type="matrix" values="0 0 0 0 0 0 0 0 0 0 0 0 0 0 0 0 0 0 .4 0"/><feOffset dx="4.0" dy="4.0" in="blurOut2" result="blurOut3"/><feBlend in="SourceGraphic" in2="blurOut3" mode="normal"/></filter></defs><g><!--MD5=[34f77ae20e5ca8f95616fb6f1f65f7c6]
cluster Crud_e_Modelagem--><polygon fill="#FFFFFF" filter="url(#fqu2hj5yvxt3v)" points="16,6,174,6,181,28.2969,1409,28.2969,1409,906,16,906,16,6" style="stroke: #000000; stroke-width: 1.5;"/><line style="stroke: #000000; stroke-width: 1.5;" x1="16" x2="181" y1="28.2969" y2="28.2969"/><text fill="#000000" font-family="sans-serif" font-size="14" font-weight="bold" lengthAdjust="spacingAndGlyphs" textLength="152" x="20" y="20.9951">Crud_e_Modelagem</text><!--MD5=[458e484193f336cd13db74ba3cd5379a]
cluster Movimentações--><polygon fill="#FFFFFF" filter="url(#fqu2hj5yvxt3v)" points="1433,31.5,1566,31.5,1573,53.7969,2059,53.7969,2059,829.5,1433,829.5,1433,31.5" style="stroke: #000000; stroke-width: 1.5;"/><line style="stroke: #000000; stroke-width: 1.5;" x1="1433" x2="1573" y1="53.7969" y2="53.7969"/><text fill="#000000" font-family="sans-serif" font-size="14" font-weight="bold" lengthAdjust="spacingAndGlyphs" textLength="127" x="1437" y="46.4951">Movimentações</text><!--MD5=[ec4e9ac521a71f7b069122f6baf1b57e]
class Pessoa--><rect codeLine="2" fill="#FEFECE" filter="url(#fqu2hj5yvxt3v)" height="112.0234" id="Pessoa" style="stroke: #A80036; stroke-width: 1.5;" width="115" x="1062.5" y="47.5"/><ellipse cx="1095.5" cy="63.5" fill="#ADD1B2" rx="11" ry="11" style="stroke: #A80036; stroke-width: 1.0;"/><path d="M1097.8438,59.1719 C1096.9063,58.7344 1096.3125,58.5938 1095.4375,58.5938 C1092.8125,58.5938 1090.8125,60.6719 1090.8125,63.3906 L1090.8125,64.5156 C1090.8125,67.0938 1092.9219,68.9844 1095.8125,68.9844 C1097.0313,68.9844 1098.1875,68.6875 1098.9375,68.1406 C1099.5156,67.7344 1099.8438,67.2813 1099.8438,66.8906 C1099.8438,66.4375 1099.4531,66.0469 1098.9844,66.0469 C1098.7656,66.0469 1098.5625,66.125 1098.375,66.3125 C1097.9219,66.7969 1097.9219,66.7969 1097.7344,66.8906 C1097.3125,67.1563 1096.625,67.2813 1095.8594,67.2813 C1093.8125,67.2813 1092.5156,66.1875 1092.5156,64.4844 L1092.5156,63.3906 C1092.5156,61.6094 1093.7656,60.2969 1095.5,60.2969 C1096.0781,60.2969 1096.6875,60.4531 1097.1563,60.7031 C1097.6406,60.9844 1097.8125,61.2031 1097.9063,61.6094 C1097.9688,62.0156 1098,62.1406 1098.1406,62.2656 C1098.2813,62.4063 1098.5156,62.5156 1098.7344,62.5156 C1099,62.5156 1099.2656,62.375 1099.4375,62.1563 C1099.5469,62 1099.5781,61.8125 1099.5781,61.3906 L1099.5781,59.9688 C1099.5781,59.5313 1099.5625,59.4063 1099.4688,59.25 C1099.3125,58.9844 1099.0313,58.8438 1098.7344,58.8438 C1098.4375,58.8438 1098.2344,58.9375 1098.0156,59.25 L1097.8438,59.1719 Z "/><text fill="#000000" font-family="sans-serif" font-size="12" lengthAdjust="spacingAndGlyphs" textLength="43" x="1113.5" y="67.6543">Pessoa</text><line style="stroke: #A80036; stroke-width: 1.5;" x1="1063.5" x2="1176.5" y1="79.5" y2="79.5"/><rect fill="none" height="6" style="stroke: #C82930; stroke-width: 1.0;" width="6" x="1070.5" y="87.5"/><text fill="#000000" font-family="sans-serif" font-size="11" lengthAdjust="spacingAndGlyphs" textLength="58" x="1082.5" y="93.7104">id: Integer</text><rect fill="none" height="6" style="stroke: #C82930; stroke-width: 1.0;" width="6" x="1070.5" y="100.3047"/><text fill="#000000" font-family="sans-serif" font-size="11" lengthAdjust="spacingAndGlyphs" textLength="69" x="1082.5" y="106.5151">nome:String</text><rect fill="none" height="6" style="stroke: #C82930; stroke-width: 1.0;" width="6" x="1070.5" y="113.1094"/><text fill="#000000" font-family="sans-serif" font-size="11" lengthAdjust="spacingAndGlyphs" textLength="54" x="1082.5" y="119.3198">nif: String</text><rect fill="none" height="6" style="stroke: #C82930; stroke-width: 1.0;" width="6" x="1070.5" y="125.9141"/><text fill="#000000" font-family="sans-serif" font-size="11" lengthAdjust="spacingAndGlyphs" textLength="68" x="1082.5" y="132.1245">email:String</text><rect fill="none" height="6" style="stroke: #C82930; stroke-width: 1.0;" width="6" x="1070.5" y="138.7188"/><text fill="#000000" font-family="sans-serif" font-size="11" lengthAdjust="spacingAndGlyphs" textLength="89" x="1082.5" y="144.9292">telefone: String</text><line style="stroke: #A80036; stroke-width: 1.5;" x1="1063.5" x2="1176.5" y1="151.5234" y2="151.5234"/><!--MD5=[35a64b983c79880384a2fd9b61f0c24b]
class Usuario--><rect codeLine="10" fill="#FEFECE" filter="url(#fqu2hj5yvxt3v)" height="73.6094" id="Usuario" style="stroke: #A80036; stroke-width: 1.5;" width="112" x="855" y="252.5"/><ellipse cx="885.3" cy="268.5" fill="#ADD1B2" rx="11" ry="11" style="stroke: #A80036; stroke-width: 1.0;"/><path d="M887.6438,264.1719 C886.7063,263.7344 886.1125,263.5938 885.2375,263.5938 C882.6125,263.5938 880.6125,265.6719 880.6125,268.3906 L880.6125,269.5156 C880.6125,272.0938 882.7219,273.9844 885.6125,273.9844 C886.8313,273.9844 887.9875,273.6875 888.7375,273.1406 C889.3156,272.7344 889.6438,272.2813 889.6438,271.8906 C889.6438,271.4375 889.2531,271.0469 888.7844,271.0469 C888.5656,271.0469 888.3625,271.125 888.175,271.3125 C887.7219,271.7969 887.7219,271.7969 887.5344,271.8906 C887.1125,272.1563 886.425,272.2813 885.6594,272.2813 C883.6125,272.2813 882.3156,271.1875 882.3156,269.4844 L882.3156,268.3906 C882.3156,266.6094 883.5656,265.2969 885.3,265.2969 C885.8781,265.2969 886.4875,265.4531 886.9563,265.7031 C887.4406,265.9844 887.6125,266.2031 887.7063,266.6094 C887.7688,267.0156 887.8,267.1406 887.9406,267.2656 C888.0813,267.4063 888.3156,267.5156 888.5344,267.5156 C888.8,267.5156 889.0656,267.375 889.2375,267.1563 C889.3469,267 889.3781,266.8125 889.3781,266.3906 L889.3781,264.9688 C889.3781,264.5313 889.3625,264.4063 889.2688,264.25 C889.1125,263.9844 888.8313,263.8438 888.5344,263.8438 C888.2375,263.8438 888.0344,263.9375 887.8156,264.25 L887.6438,264.1719 Z "/><text fill="#000000" font-family="sans-serif" font-size="12" lengthAdjust="spacingAndGlyphs" textLength="46" x="902.7" y="272.6543">Usuario</text><line style="stroke: #A80036; stroke-width: 1.5;" x1="856" x2="966" y1="284.5" y2="284.5"/><rect fill="none" height="6" style="stroke: #C82930; stroke-width: 1.0;" width="6" x="863" y="292.5"/><text fill="#000000" font-family="sans-serif" font-size="11" lengthAdjust="spacingAndGlyphs" textLength="71" x="875" y="298.7104">senha:String</text><line style="stroke: #A80036; stroke-width: 1.5;" x1="856" x2="966" y1="305.3047" y2="305.3047"/><ellipse cx="866" cy="316.3047" fill="#84BE84" rx="3" ry="3" style="stroke: #038048; stroke-width: 1.0;"/><text fill="#000000" font-family="sans-serif" font-size="11" lengthAdjust="spacingAndGlyphs" textLength="86" x="875" y="319.5151">void methods()</text><!--MD5=[0b1628d350daeda1dc91bef617b02ae5]
class Cidade--><rect codeLine="15" fill="#FEFECE" filter="url(#fqu2hj5yvxt3v)" height="73.6094" id="Cidade" style="stroke: #A80036; stroke-width: 1.5;" width="95" x="1002.5" y="252.5"/><ellipse cx="1026.95" cy="268.5" fill="#ADD1B2" rx="11" ry="11" style="stroke: #A80036; stroke-width: 1.0;"/><path d="M1029.2938,264.1719 C1028.3563,263.7344 1027.7625,263.5938 1026.8875,263.5938 C1024.2625,263.5938 1022.2625,265.6719 1022.2625,268.3906 L1022.2625,269.5156 C1022.2625,272.0938 1024.3719,273.9844 1027.2625,273.9844 C1028.4813,273.9844 1029.6375,273.6875 1030.3875,273.1406 C1030.9656,272.7344 1031.2938,272.2813 1031.2938,271.8906 C1031.2938,271.4375 1030.9031,271.0469 1030.4344,271.0469 C1030.2156,271.0469 1030.0125,271.125 1029.825,271.3125 C1029.3719,271.7969 1029.3719,271.7969 1029.1844,271.8906 C1028.7625,272.1563 1028.075,272.2813 1027.3094,272.2813 C1025.2625,272.2813 1023.9656,271.1875 1023.9656,269.4844 L1023.9656,268.3906 C1023.9656,266.6094 1025.2156,265.2969 1026.95,265.2969 C1027.5281,265.2969 1028.1375,265.4531 1028.6063,265.7031 C1029.0906,265.9844 1029.2625,266.2031 1029.3563,266.6094 C1029.4188,267.0156 1029.45,267.1406 1029.5906,267.2656 C1029.7313,267.4063 1029.9656,267.5156 1030.1844,267.5156 C1030.45,267.5156 1030.7156,267.375 1030.8875,267.1563 C1030.9969,267 1031.0281,266.8125 1031.0281,266.3906 L1031.0281,264.9688 C1031.0281,264.5313 1031.0125,264.4063 1030.9188,264.25 C1030.7625,263.9844 1030.4813,263.8438 1030.1844,263.8438 C1029.8875,263.8438 1029.6844,263.9375 1029.4656,264.25 L1029.2938,264.1719 Z "/><text fill="#000000" font-family="sans-serif" font-size="12" lengthAdjust="spacingAndGlyphs" textLength="42" x="1043.05" y="272.6543">Cidade</text><line style="stroke: #A80036; stroke-width: 1.5;" x1="1003.5" x2="1096.5" y1="284.5" y2="284.5"/><rect fill="none" height="6" style="stroke: #C82930; stroke-width: 1.0;" width="6" x="1010.5" y="292.5"/><text fill="#000000" font-family="sans-serif" font-size="11" lengthAdjust="spacingAndGlyphs" textLength="54" x="1022.5" y="298.7104">id:Integer</text><rect fill="none" height="6" style="stroke: #C82930; stroke-width: 1.0;" width="6" x="1010.5" y="305.3047"/><text fill="#000000" font-family="sans-serif" font-size="11" lengthAdjust="spacingAndGlyphs" textLength="69" x="1022.5" y="311.5151">nome:String</text><line style="stroke: #A80036; stroke-width: 1.5;" x1="1003.5" x2="1096.5" y1="318.1094" y2="318.1094"/><!--MD5=[d8933eb2ae217ae3c21bf6e2973c277f]
class Estado--><rect codeLine="20" fill="#FEFECE" filter="url(#fqu2hj5yvxt3v)" height="73.6094" id="Estado" style="stroke: #A80036; stroke-width: 1.5;" width="95" x="1002.5" y="470.5"/><ellipse cx="1027.4" cy="486.5" fill="#ADD1B2" rx="11" ry="11" style="stroke: #A80036; stroke-width: 1.0;"/><path d="M1029.7438,482.1719 C1028.8063,481.7344 1028.2125,481.5938 1027.3375,481.5938 C1024.7125,481.5938 1022.7125,483.6719 1022.7125,486.3906 L1022.7125,487.5156 C1022.7125,490.0938 1024.8219,491.9844 1027.7125,491.9844 C1028.9313,491.9844 1030.0875,491.6875 1030.8375,491.1406 C1031.4156,490.7344 1031.7438,490.2813 1031.7438,489.8906 C1031.7438,489.4375 1031.3531,489.0469 1030.8844,489.0469 C1030.6656,489.0469 1030.4625,489.125 1030.275,489.3125 C1029.8219,489.7969 1029.8219,489.7969 1029.6344,489.8906 C1029.2125,490.1563 1028.525,490.2813 1027.7594,490.2813 C1025.7125,490.2813 1024.4156,489.1875 1024.4156,487.4844 L1024.4156,486.3906 C1024.4156,484.6094 1025.6656,483.2969 1027.4,483.2969 C1027.9781,483.2969 1028.5875,483.4531 1029.0563,483.7031 C1029.5406,483.9844 1029.7125,484.2031 1029.8063,484.6094 C1029.8688,485.0156 1029.9,485.1406 1030.0406,485.2656 C1030.1813,485.4063 1030.4156,485.5156 1030.6344,485.5156 C1030.9,485.5156 1031.1656,485.375 1031.3375,485.1563 C1031.4469,485 1031.4781,484.8125 1031.4781,484.3906 L1031.4781,482.9688 C1031.4781,482.5313 1031.4625,482.4063 1031.3688,482.25 C1031.2125,481.9844 1030.9313,481.8438 1030.6344,481.8438 C1030.3375,481.8438 1030.1344,481.9375 1029.9156,482.25 L1029.7438,482.1719 Z "/><text fill="#000000" font-family="sans-serif" font-size="12" lengthAdjust="spacingAndGlyphs" textLength="41" x="1043.6" y="490.6543">Estado</text><line style="stroke: #A80036; stroke-width: 1.5;" x1="1003.5" x2="1096.5" y1="502.5" y2="502.5"/><rect fill="none" height="6" style="stroke: #C82930; stroke-width: 1.0;" width="6" x="1010.5" y="510.5"/><text fill="#000000" font-family="sans-serif" font-size="11" lengthAdjust="spacingAndGlyphs" textLength="54" x="1022.5" y="516.7104">id:Integer</text><rect fill="none" height="6" style="stroke: #C82930; stroke-width: 1.0;" width="6" x="1010.5" y="523.3047"/><text fill="#000000" font-family="sans-serif" font-size="11" lengthAdjust="spacingAndGlyphs" textLength="69" x="1022.5" y="529.5151">nome:String</text><line style="stroke: #A80036; stroke-width: 1.5;" x1="1003.5" x2="1096.5" y1="536.1094" y2="536.1094"/><!--MD5=[f6699c9d1626f6c22719e692d65e9a11]
class Agricultor--><rect codeLine="26" fill="#FEFECE" filter="url(#fqu2hj5yvxt3v)" height="86.4141" id="Agricultor" style="stroke: #A80036; stroke-width: 1.5;" width="113" x="1132.5" y="246.5"/><ellipse cx="1157.85" cy="262.5" fill="#ADD1B2" rx="11" ry="11" style="stroke: #A80036; stroke-width: 1.0;"/><path d="M1160.1938,258.1719 C1159.2563,257.7344 1158.6625,257.5938 1157.7875,257.5938 C1155.1625,257.5938 1153.1625,259.6719 1153.1625,262.3906 L1153.1625,263.5156 C1153.1625,266.0938 1155.2719,267.9844 1158.1625,267.9844 C1159.3813,267.9844 1160.5375,267.6875 1161.2875,267.1406 C1161.8656,266.7344 1162.1938,266.2813 1162.1938,265.8906 C1162.1938,265.4375 1161.8031,265.0469 1161.3344,265.0469 C1161.1156,265.0469 1160.9125,265.125 1160.725,265.3125 C1160.2719,265.7969 1160.2719,265.7969 1160.0844,265.8906 C1159.6625,266.1563 1158.975,266.2813 1158.2094,266.2813 C1156.1625,266.2813 1154.8656,265.1875 1154.8656,263.4844 L1154.8656,262.3906 C1154.8656,260.6094 1156.1156,259.2969 1157.85,259.2969 C1158.4281,259.2969 1159.0375,259.4531 1159.5063,259.7031 C1159.9906,259.9844 1160.1625,260.2031 1160.2563,260.6094 C1160.3188,261.0156 1160.35,261.1406 1160.4906,261.2656 C1160.6313,261.4063 1160.8656,261.5156 1161.0844,261.5156 C1161.35,261.5156 1161.6156,261.375 1161.7875,261.1563 C1161.8969,261 1161.9281,260.8125 1161.9281,260.3906 L1161.9281,258.9688 C1161.9281,258.5313 1161.9125,258.4063 1161.8188,258.25 C1161.6625,257.9844 1161.3813,257.8438 1161.0844,257.8438 C1160.7875,257.8438 1160.5844,257.9375 1160.3656,258.25 L1160.1938,258.1719 Z "/><text fill="#000000" font-family="sans-serif" font-size="12" lengthAdjust="spacingAndGlyphs" textLength="58" x="1174.15" y="266.6543">Agricultor</text><line style="stroke: #A80036; stroke-width: 1.5;" x1="1133.5" x2="1244.5" y1="278.5" y2="278.5"/><rect fill="none" height="6" style="stroke: #C82930; stroke-width: 1.0;" width="6" x="1140.5" y="286.5"/><text fill="#000000" font-family="sans-serif" font-size="11" lengthAdjust="spacingAndGlyphs" textLength="87" x="1152.5" y="292.7104">imagem: String</text><rect fill="none" height="6" style="stroke: #C82930; stroke-width: 1.0;" width="6" x="1140.5" y="299.3047"/><text fill="#000000" font-family="sans-serif" font-size="11" lengthAdjust="spacingAndGlyphs" textLength="84" x="1152.5" y="305.5151">status:Boolean</text><line style="stroke: #A80036; stroke-width: 1.5;" x1="1133.5" x2="1244.5" y1="312.1094" y2="312.1094"/><ellipse cx="1143.5" cy="323.1094" fill="#84BE84" rx="3" ry="3" style="stroke: #038048; stroke-width: 1.0;"/><text fill="#000000" font-family="sans-serif" font-size="11" lengthAdjust="spacingAndGlyphs" textLength="86" x="1152.5" y="326.3198">void methods()</text><!--MD5=[b93cc77a921693b14dc8d458900415a6]
class Motorista--><rect codeLine="32" fill="#FEFECE" filter="url(#fqu2hj5yvxt3v)" height="60.8047" id="Motorista" style="stroke: #A80036; stroke-width: 1.5;" width="112" x="1281" y="259"/><ellipse cx="1306.8" cy="275" fill="#ADD1B2" rx="11" ry="11" style="stroke: #A80036; stroke-width: 1.0;"/><path d="M1309.1438,270.6719 C1308.2063,270.2344 1307.6125,270.0938 1306.7375,270.0938 C1304.1125,270.0938 1302.1125,272.1719 1302.1125,274.8906 L1302.1125,276.0156 C1302.1125,278.5938 1304.2219,280.4844 1307.1125,280.4844 C1308.3313,280.4844 1309.4875,280.1875 1310.2375,279.6406 C1310.8156,279.2344 1311.1438,278.7813 1311.1438,278.3906 C1311.1438,277.9375 1310.7531,277.5469 1310.2844,277.5469 C1310.0656,277.5469 1309.8625,277.625 1309.675,277.8125 C1309.2219,278.2969 1309.2219,278.2969 1309.0344,278.3906 C1308.6125,278.6563 1307.925,278.7813 1307.1594,278.7813 C1305.1125,278.7813 1303.8156,277.6875 1303.8156,275.9844 L1303.8156,274.8906 C1303.8156,273.1094 1305.0656,271.7969 1306.8,271.7969 C1307.3781,271.7969 1307.9875,271.9531 1308.4563,272.2031 C1308.9406,272.4844 1309.1125,272.7031 1309.2063,273.1094 C1309.2688,273.5156 1309.3,273.6406 1309.4406,273.7656 C1309.5813,273.9063 1309.8156,274.0156 1310.0344,274.0156 C1310.3,274.0156 1310.5656,273.875 1310.7375,273.6563 C1310.8469,273.5 1310.8781,273.3125 1310.8781,272.8906 L1310.8781,271.4688 C1310.8781,271.0313 1310.8625,270.9063 1310.7688,270.75 C1310.6125,270.4844 1310.3313,270.3438 1310.0344,270.3438 C1309.7375,270.3438 1309.5344,270.4375 1309.3156,270.75 L1309.1438,270.6719 Z "/><text fill="#000000" font-family="sans-serif" font-size="12" lengthAdjust="spacingAndGlyphs" textLength="56" x="1323.2" y="279.1543">Motorista</text><line style="stroke: #A80036; stroke-width: 1.5;" x1="1282" x2="1392" y1="291" y2="291"/><line style="stroke: #A80036; stroke-width: 1.5;" x1="1282" x2="1392" y1="299" y2="299"/><ellipse cx="1292" cy="310" fill="#84BE84" rx="3" ry="3" style="stroke: #038048; stroke-width: 1.0;"/><text fill="#000000" font-family="sans-serif" font-size="11" lengthAdjust="spacingAndGlyphs" textLength="86" x="1301" y="313.2104">void methods()</text><!--MD5=[c355dea5bcbcc83c9c79f6b6e9de012a]
class Caminhao--><rect codeLine="36" fill="#FEFECE" filter="url(#fqu2hj5yvxt3v)" height="99.2188" id="Caminhao" style="stroke: #A80036; stroke-width: 1.5;" width="153" x="1239.5" y="458"/><ellipse cx="1282.85" cy="474" fill="#ADD1B2" rx="11" ry="11" style="stroke: #A80036; stroke-width: 1.0;"/><path d="M1285.1938,469.6719 C1284.2563,469.2344 1283.6625,469.0938 1282.7875,469.0938 C1280.1625,469.0938 1278.1625,471.1719 1278.1625,473.8906 L1278.1625,475.0156 C1278.1625,477.5938 1280.2719,479.4844 1283.1625,479.4844 C1284.3813,479.4844 1285.5375,479.1875 1286.2875,478.6406 C1286.8656,478.2344 1287.1938,477.7813 1287.1938,477.3906 C1287.1938,476.9375 1286.8031,476.5469 1286.3344,476.5469 C1286.1156,476.5469 1285.9125,476.625 1285.725,476.8125 C1285.2719,477.2969 1285.2719,477.2969 1285.0844,477.3906 C1284.6625,477.6563 1283.975,477.7813 1283.2094,477.7813 C1281.1625,477.7813 1279.8656,476.6875 1279.8656,474.9844 L1279.8656,473.8906 C1279.8656,472.1094 1281.1156,470.7969 1282.85,470.7969 C1283.4281,470.7969 1284.0375,470.9531 1284.5063,471.2031 C1284.9906,471.4844 1285.1625,471.7031 1285.2563,472.1094 C1285.3188,472.5156 1285.35,472.6406 1285.4906,472.7656 C1285.6313,472.9063 1285.8656,473.0156 1286.0844,473.0156 C1286.35,473.0156 1286.6156,472.875 1286.7875,472.6563 C1286.8969,472.5 1286.9281,472.3125 1286.9281,471.8906 L1286.9281,470.4688 C1286.9281,470.0313 1286.9125,469.9063 1286.8188,469.75 C1286.6625,469.4844 1286.3813,469.3438 1286.0844,469.3438 C1285.7875,469.3438 1285.5844,469.4375 1285.3656,469.75 L1285.1938,469.6719 Z "/><text fill="#000000" font-family="sans-serif" font-size="12" lengthAdjust="spacingAndGlyphs" textLength="58" x="1303.15" y="478.1543">Caminhao</text><line style="stroke: #A80036; stroke-width: 1.5;" x1="1240.5" x2="1391.5" y1="490" y2="490"/><rect fill="none" height="6" style="stroke: #C82930; stroke-width: 1.0;" width="6" x="1247.5" y="498"/><text fill="#000000" font-family="sans-serif" font-size="11" lengthAdjust="spacingAndGlyphs" textLength="127" x="1259.5" y="504.2104">placaCaminhao: String</text><rect fill="none" height="6" style="stroke: #C82930; stroke-width: 1.0;" width="6" x="1247.5" y="510.8047"/><text fill="#000000" font-family="sans-serif" font-size="11" lengthAdjust="spacingAndGlyphs" textLength="89" x="1259.5" y="517.0151">volume: double</text><rect fill="none" height="6" style="stroke: #C82930; stroke-width: 1.0;" width="6" x="1247.5" y="523.6094"/><text fill="#000000" font-family="sans-serif" font-size="11" lengthAdjust="spacingAndGlyphs" textLength="98" x="1259.5" y="529.8198">tamanho: Integer</text><rect fill="none" height="6" style="stroke: #C82930; stroke-width: 1.0;" width="6" x="1247.5" y="536.4141"/><text fill="#000000" font-family="sans-serif" font-size="11" lengthAdjust="spacingAndGlyphs" textLength="76" x="1259.5" y="542.6245">Double: peso</text><line style="stroke: #A80036; stroke-width: 1.5;" x1="1240.5" x2="1391.5" y1="549.2188" y2="549.2188"/><!--MD5=[3db2279e7389b856b7ec936b0d83aaff]
class MarcaCaminhao--><rect codeLine="45" fill="#FEFECE" filter="url(#fqu2hj5yvxt3v)" height="227.2656" id="MarcaCaminhao" style="stroke: #A80036; stroke-width: 1.5;" width="149" x="1241.5" y="663"/><ellipse cx="1266.85" cy="679" fill="#EB937F" rx="11" ry="11" style="stroke: #A80036; stroke-width: 1.0;"/><path d="M1265.6469,679.875 L1267.1,679.875 L1267.1,679.9844 C1267.1,680.3906 1267.1313,680.5469 1267.2094,680.7031 C1267.3656,680.9531 1267.6469,681.1094 1267.9438,681.1094 C1268.1938,681.1094 1268.4594,680.9688 1268.6156,680.75 C1268.7406,680.5938 1268.7719,680.4375 1268.7719,679.9844 L1268.7719,678.0625 C1268.7719,677.9063 1268.7719,677.8594 1268.7563,677.7031 C1268.6938,677.2344 1268.3813,676.9219 1267.9281,676.9219 C1267.6781,676.9219 1267.4125,677.0625 1267.2406,677.2813 C1267.1313,677.4531 1267.1,677.6094 1267.1,678.0625 L1267.1,678.1875 L1265.6469,678.1875 L1265.6469,675.7813 L1269.6313,675.7813 L1269.6313,676.6406 C1269.6313,677.0469 1269.6625,677.2188 1269.7406,677.375 C1269.9125,677.625 1270.1938,677.7813 1270.475,677.7813 C1270.7406,677.7813 1271.0063,677.6406 1271.1781,677.4219 C1271.2875,677.25 1271.3188,677.1094 1271.3188,676.6406 L1271.3188,674.0938 L1263.6938,674.0938 C1263.2563,674.0938 1263.1313,674.1094 1262.975,674.2031 C1262.725,674.3594 1262.5688,674.6563 1262.5688,674.9375 C1262.5688,675.2188 1262.7094,675.4688 1262.9281,675.6406 C1263.0844,675.75 1263.2719,675.7813 1263.6938,675.7813 L1263.9438,675.7813 L1263.9438,682.2969 L1263.6938,682.2969 C1263.2875,682.2969 1263.1313,682.3125 1262.975,682.4219 C1262.725,682.5938 1262.5688,682.8594 1262.5688,683.1563 C1262.5688,683.4219 1262.7094,683.6719 1262.9281,683.8281 C1263.0688,683.9531 1263.3031,684 1263.6938,684 L1271.6938,684 L1271.6938,681.4219 C1271.6938,680.9844 1271.6625,680.8438 1271.5844,680.6875 C1271.4125,680.4375 1271.1313,680.2813 1270.85,680.2813 C1270.5844,680.2813 1270.3188,680.3906 1270.1469,680.6406 C1270.0375,680.7969 1270.0063,680.9375 1270.0063,681.4219 L1270.0063,682.2969 L1265.6469,682.2969 L1265.6469,679.875 Z "/><text fill="#000000" font-family="sans-serif" font-size="12" lengthAdjust="spacingAndGlyphs" textLength="94" x="1283.15" y="683.1543">MarcaCaminhao</text><line style="stroke: #A80036; stroke-width: 1.5;" x1="1242.5" x2="1389.5" y1="695" y2="695"/><text fill="#000000" font-family="sans-serif" font-size="11" lengthAdjust="spacingAndGlyphs" textLength="125" x="1247.5" y="709.2104">VOLKSWAGEN:Integer</text><text fill="#000000" font-family="sans-serif" font-size="11" lengthAdjust="spacingAndGlyphs" textLength="137" x="1247.5" y="722.0151">MERCEDESBENZ:Integer</text><text fill="#000000" font-family="sans-serif" font-size="11" lengthAdjust="spacingAndGlyphs" textLength="84" x="1247.5" y="734.8198">VOLVO:Integer</text><text fill="#000000" font-family="sans-serif" font-size="11" lengthAdjust="spacingAndGlyphs" textLength="87" x="1247.5" y="747.6245">SCANIA:Integer</text><text fill="#000000" font-family="sans-serif" font-size="11" lengthAdjust="spacingAndGlyphs" textLength="75" x="1247.5" y="760.4292">FORD:Integer</text><text fill="#000000" font-family="sans-serif" font-size="11" lengthAdjust="spacingAndGlyphs" textLength="79" x="1247.5" y="773.2339">IVECO:Integer</text><text fill="#000000" font-family="sans-serif" font-size="11" lengthAdjust="spacingAndGlyphs" textLength="95" x="1247.5" y="786.0386">HYUNDAI:Integer</text><text fill="#000000" font-family="sans-serif" font-size="11" lengthAdjust="spacingAndGlyphs" textLength="69" x="1247.5" y="798.8433">MAN:Integer</text><text fill="#000000" font-family="sans-serif" font-size="11" lengthAdjust="spacingAndGlyphs" textLength="89" x="1247.5" y="811.6479">AGRALE:Integer</text><text fill="#000000" font-family="sans-serif" font-size="11" lengthAdjust="spacingAndGlyphs" textLength="71" x="1247.5" y="824.4526">EFFA:Integer</text><text fill="#000000" font-family="sans-serif" font-size="11" lengthAdjust="spacingAndGlyphs" textLength="133" x="1247.5" y="837.2573">INTERNATIONAL:Integer</text><text fill="#000000" font-family="sans-serif" font-size="11" lengthAdjust="spacingAndGlyphs" textLength="109" x="1247.5" y="850.062">SINOTRUCK:Integer</text><text fill="#000000" font-family="sans-serif" font-size="11" lengthAdjust="spacingAndGlyphs" textLength="101" x="1247.5" y="862.8667">SHACMAN:Integer</text><text fill="#000000" font-family="sans-serif" font-size="11" lengthAdjust="spacingAndGlyphs" textLength="96" x="1247.5" y="875.6714">EXTERNA:Integer</text><line style="stroke: #A80036; stroke-width: 1.5;" x1="1242.5" x2="1389.5" y1="882.2656" y2="882.2656"/><!--MD5=[64dfc6b2369b13f3049fb96245ac5fb3]
class UnidadeDeMedida--><rect codeLine="63" fill="#FEFECE" filter="url(#fqu2hj5yvxt3v)" height="99.2188" id="UnidadeDeMedida" style="stroke: #A80036; stroke-width: 1.5;" width="153" x="519.5" y="240"/><ellipse cx="539" cy="256" fill="#ADD1B2" rx="11" ry="11" style="stroke: #A80036; stroke-width: 1.0;"/><path d="M541.3438,251.6719 C540.4063,251.2344 539.8125,251.0938 538.9375,251.0938 C536.3125,251.0938 534.3125,253.1719 534.3125,255.8906 L534.3125,257.0156 C534.3125,259.5938 536.4219,261.4844 539.3125,261.4844 C540.5313,261.4844 541.6875,261.1875 542.4375,260.6406 C543.0156,260.2344 543.3438,259.7813 543.3438,259.3906 C543.3438,258.9375 542.9531,258.5469 542.4844,258.5469 C542.2656,258.5469 542.0625,258.625 541.875,258.8125 C541.4219,259.2969 541.4219,259.2969 541.2344,259.3906 C540.8125,259.6563 540.125,259.7813 539.3594,259.7813 C537.3125,259.7813 536.0156,258.6875 536.0156,256.9844 L536.0156,255.8906 C536.0156,254.1094 537.2656,252.7969 539,252.7969 C539.5781,252.7969 540.1875,252.9531 540.6563,253.2031 C541.1406,253.4844 541.3125,253.7031 541.4063,254.1094 C541.4688,254.5156 541.5,254.6406 541.6406,254.7656 C541.7813,254.9063 542.0156,255.0156 542.2344,255.0156 C542.5,255.0156 542.7656,254.875 542.9375,254.6563 C543.0469,254.5 543.0781,254.3125 543.0781,253.8906 L543.0781,252.4688 C543.0781,252.0313 543.0625,251.9063 542.9688,251.75 C542.8125,251.4844 542.5313,251.3438 542.2344,251.3438 C541.9375,251.3438 541.7344,251.4375 541.5156,251.75 L541.3438,251.6719 Z "/><text fill="#000000" font-family="sans-serif" font-size="12" lengthAdjust="spacingAndGlyphs" textLength="111" x="554" y="260.1543">UnidadeDeMedida</text><line style="stroke: #A80036; stroke-width: 1.5;" x1="520.5" x2="671.5" y1="272" y2="272"/><rect fill="none" height="6" style="stroke: #C82930; stroke-width: 1.0;" width="6" x="527.5" y="280"/><text fill="#000000" font-family="sans-serif" font-size="11" lengthAdjust="spacingAndGlyphs" textLength="58" x="539.5" y="286.2104">id: Integer</text><rect fill="none" height="6" style="stroke: #C82930; stroke-width: 1.0;" width="6" x="527.5" y="292.8047"/><text fill="#000000" font-family="sans-serif" font-size="11" lengthAdjust="spacingAndGlyphs" textLength="127" x="539.5" y="299.0151">unidadeMedida: String</text><rect fill="none" height="6" style="stroke: #C82930; stroke-width: 1.0;" width="6" x="527.5" y="305.6094"/><text fill="#000000" font-family="sans-serif" font-size="11" lengthAdjust="spacingAndGlyphs" textLength="67" x="539.5" y="311.8198">desc: String</text><line style="stroke: #A80036; stroke-width: 1.5;" x1="520.5" x2="671.5" y1="318.4141" y2="318.4141"/><ellipse cx="530.5" cy="329.4141" fill="#84BE84" rx="3" ry="3" style="stroke: #038048; stroke-width: 1.0;"/><text fill="#000000" font-family="sans-serif" font-size="11" lengthAdjust="spacingAndGlyphs" textLength="86" x="539.5" y="332.6245">void methods()</text><!--MD5=[7e1ce8ab2bf669717f28e918f4971b9a]
class Categoria--><rect codeLine="70" fill="#FEFECE" filter="url(#fqu2hj5yvxt3v)" height="99.2188" id="Categoria" style="stroke: #A80036; stroke-width: 1.5;" width="112" x="708" y="240"/><ellipse cx="732.9" cy="256" fill="#ADD1B2" rx="11" ry="11" style="stroke: #A80036; stroke-width: 1.0;"/><path d="M735.2438,251.6719 C734.3063,251.2344 733.7125,251.0938 732.8375,251.0938 C730.2125,251.0938 728.2125,253.1719 728.2125,255.8906 L728.2125,257.0156 C728.2125,259.5938 730.3219,261.4844 733.2125,261.4844 C734.4313,261.4844 735.5875,261.1875 736.3375,260.6406 C736.9156,260.2344 737.2438,259.7813 737.2438,259.3906 C737.2438,258.9375 736.8531,258.5469 736.3844,258.5469 C736.1656,258.5469 735.9625,258.625 735.775,258.8125 C735.3219,259.2969 735.3219,259.2969 735.1344,259.3906 C734.7125,259.6563 734.025,259.7813 733.2594,259.7813 C731.2125,259.7813 729.9156,258.6875 729.9156,256.9844 L729.9156,255.8906 C729.9156,254.1094 731.1656,252.7969 732.9,252.7969 C733.4781,252.7969 734.0875,252.9531 734.5563,253.2031 C735.0406,253.4844 735.2125,253.7031 735.3063,254.1094 C735.3688,254.5156 735.4,254.6406 735.5406,254.7656 C735.6813,254.9063 735.9156,255.0156 736.1344,255.0156 C736.4,255.0156 736.6656,254.875 736.8375,254.6563 C736.9469,254.5 736.9781,254.3125 736.9781,253.8906 L736.9781,252.4688 C736.9781,252.0313 736.9625,251.9063 736.8688,251.75 C736.7125,251.4844 736.4313,251.3438 736.1344,251.3438 C735.8375,251.3438 735.6344,251.4375 735.4156,251.75 L735.2438,251.6719 Z "/><text fill="#000000" font-family="sans-serif" font-size="12" lengthAdjust="spacingAndGlyphs" textLength="58" x="749.1" y="260.1543">Categoria</text><line style="stroke: #A80036; stroke-width: 1.5;" x1="709" x2="819" y1="272" y2="272"/><rect fill="none" height="6" style="stroke: #C82930; stroke-width: 1.0;" width="6" x="716" y="280"/><text fill="#000000" font-family="sans-serif" font-size="11" lengthAdjust="spacingAndGlyphs" textLength="58" x="728" y="286.2104">id: Integer</text><rect fill="none" height="6" style="stroke: #C82930; stroke-width: 1.0;" width="6" x="716" y="292.8047"/><text fill="#000000" font-family="sans-serif" font-size="11" lengthAdjust="spacingAndGlyphs" textLength="66" x="728" y="299.0151">sigla: String</text><rect fill="none" height="6" style="stroke: #C82930; stroke-width: 1.0;" width="6" x="716" y="305.6094"/><text fill="#000000" font-family="sans-serif" font-size="11" lengthAdjust="spacingAndGlyphs" textLength="67" x="728" y="311.8198">desc: String</text><line style="stroke: #A80036; stroke-width: 1.5;" x1="709" x2="819" y1="318.4141" y2="318.4141"/><ellipse cx="719" cy="329.4141" fill="#84BE84" rx="3" ry="3" style="stroke: #038048; stroke-width: 1.0;"/><text fill="#000000" font-family="sans-serif" font-size="11" lengthAdjust="spacingAndGlyphs" textLength="86" x="728" y="332.6245">void methods()</text><!--MD5=[e93cb49f72b19fc135ef1a34f8991eb7]
class Grao--><rect codeLine="77" fill="#FEFECE" filter="url(#fqu2hj5yvxt3v)" height="99.2188" id="Grao" style="stroke: #A80036; stroke-width: 1.5;" width="112" x="589" y="54"/><ellipse cx="626.95" cy="70" fill="#ADD1B2" rx="11" ry="11" style="stroke: #A80036; stroke-width: 1.0;"/><path d="M629.2938,65.6719 C628.3563,65.2344 627.7625,65.0938 626.8875,65.0938 C624.2625,65.0938 622.2625,67.1719 622.2625,69.8906 L622.2625,71.0156 C622.2625,73.5938 624.3719,75.4844 627.2625,75.4844 C628.4813,75.4844 629.6375,75.1875 630.3875,74.6406 C630.9656,74.2344 631.2938,73.7813 631.2938,73.3906 C631.2938,72.9375 630.9031,72.5469 630.4344,72.5469 C630.2156,72.5469 630.0125,72.625 629.825,72.8125 C629.3719,73.2969 629.3719,73.2969 629.1844,73.3906 C628.7625,73.6563 628.075,73.7813 627.3094,73.7813 C625.2625,73.7813 623.9656,72.6875 623.9656,70.9844 L623.9656,69.8906 C623.9656,68.1094 625.2156,66.7969 626.95,66.7969 C627.5281,66.7969 628.1375,66.9531 628.6063,67.2031 C629.0906,67.4844 629.2625,67.7031 629.3563,68.1094 C629.4188,68.5156 629.45,68.6406 629.5906,68.7656 C629.7313,68.9063 629.9656,69.0156 630.1844,69.0156 C630.45,69.0156 630.7156,68.875 630.8875,68.6563 C630.9969,68.5 631.0281,68.3125 631.0281,67.8906 L631.0281,66.4688 C631.0281,66.0313 631.0125,65.9063 630.9188,65.75 C630.7625,65.4844 630.4813,65.3438 630.1844,65.3438 C629.8875,65.3438 629.6844,65.4375 629.4656,65.75 L629.2938,65.6719 Z "/><text fill="#000000" font-family="sans-serif" font-size="12" lengthAdjust="spacingAndGlyphs" textLength="29" x="646.05" y="74.1543">Grao</text><line style="stroke: #A80036; stroke-width: 1.5;" x1="590" x2="700" y1="86" y2="86"/><rect fill="none" height="6" style="stroke: #C82930; stroke-width: 1.0;" width="6" x="597" y="94"/><text fill="#000000" font-family="sans-serif" font-size="11" lengthAdjust="spacingAndGlyphs" textLength="58" x="609" y="100.2104">id: Integer</text><rect fill="none" height="6" style="stroke: #C82930; stroke-width: 1.0;" width="6" x="597" y="106.8047"/><text fill="#000000" font-family="sans-serif" font-size="11" lengthAdjust="spacingAndGlyphs" textLength="73" x="609" y="113.0151">nome: String</text><rect fill="none" height="6" style="stroke: #C82930; stroke-width: 1.0;" width="6" x="597" y="119.6094"/><text fill="#000000" font-family="sans-serif" font-size="11" lengthAdjust="spacingAndGlyphs" textLength="67" x="609" y="125.8198">desc: String</text><line style="stroke: #A80036; stroke-width: 1.5;" x1="590" x2="700" y1="132.4141" y2="132.4141"/><ellipse cx="600" cy="143.4141" fill="#84BE84" rx="3" ry="3" style="stroke: #038048; stroke-width: 1.0;"/><text fill="#000000" font-family="sans-serif" font-size="11" lengthAdjust="spacingAndGlyphs" textLength="86" x="609" y="146.6245">void methods()</text><!--MD5=[07632fa0993d655feb9aade4b0a6979a]
class MarcaVentilacao--><rect codeLine="84" fill="#FEFECE" filter="url(#fqu2hj5yvxt3v)" height="86.4141" id="MarcaVentilacao" style="stroke: #A80036; stroke-width: 1.5;" width="130" x="202" y="464.5"/><ellipse cx="217" cy="480.5" fill="#ADD1B2" rx="11" ry="11" style="stroke: #A80036; stroke-width: 1.0;"/><path d="M219.3438,476.1719 C218.4063,475.7344 217.8125,475.5938 216.9375,475.5938 C214.3125,475.5938 212.3125,477.6719 212.3125,480.3906 L212.3125,481.5156 C212.3125,484.0938 214.4219,485.9844 217.3125,485.9844 C218.5313,485.9844 219.6875,485.6875 220.4375,485.1406 C221.0156,484.7344 221.3438,484.2813 221.3438,483.8906 C221.3438,483.4375 220.9531,483.0469 220.4844,483.0469 C220.2656,483.0469 220.0625,483.125 219.875,483.3125 C219.4219,483.7969 219.4219,483.7969 219.2344,483.8906 C218.8125,484.1563 218.125,484.2813 217.3594,484.2813 C215.3125,484.2813 214.0156,483.1875 214.0156,481.4844 L214.0156,480.3906 C214.0156,478.6094 215.2656,477.2969 217,477.2969 C217.5781,477.2969 218.1875,477.4531 218.6563,477.7031 C219.1406,477.9844 219.3125,478.2031 219.4063,478.6094 C219.4688,479.0156 219.5,479.1406 219.6406,479.2656 C219.7813,479.4063 220.0156,479.5156 220.2344,479.5156 C220.5,479.5156 220.7656,479.375 220.9375,479.1563 C221.0469,479 221.0781,478.8125 221.0781,478.3906 L221.0781,476.9688 C221.0781,476.5313 221.0625,476.4063 220.9688,476.25 C220.8125,475.9844 220.5313,475.8438 220.2344,475.8438 C219.9375,475.8438 219.7344,475.9375 219.5156,476.25 L219.3438,476.1719 Z "/><text fill="#000000" font-family="sans-serif" font-size="12" lengthAdjust="spacingAndGlyphs" textLength="98" x="231" y="484.6543">MarcaVentilacao</text><line style="stroke: #A80036; stroke-width: 1.5;" x1="203" x2="331" y1="496.5" y2="496.5"/><rect fill="none" height="6" style="stroke: #C82930; stroke-width: 1.0;" width="6" x="210" y="504.5"/><text fill="#000000" font-family="sans-serif" font-size="11" lengthAdjust="spacingAndGlyphs" textLength="58" x="222" y="510.7104">id: Integer</text><rect fill="none" height="6" style="stroke: #C82930; stroke-width: 1.0;" width="6" x="210" y="517.3047"/><text fill="#000000" font-family="sans-serif" font-size="11" lengthAdjust="spacingAndGlyphs" textLength="75" x="222" y="523.5151">marca: String</text><rect fill="none" height="6" style="stroke: #C82930; stroke-width: 1.0;" width="6" x="210" y="530.1094"/><text fill="#000000" font-family="sans-serif" font-size="11" lengthAdjust="spacingAndGlyphs" textLength="67" x="222" y="536.3198">desc: String</text><line style="stroke: #A80036; stroke-width: 1.5;" x1="203" x2="331" y1="542.9141" y2="542.9141"/><!--MD5=[5af9142a6bc4a9aeac22eec6360c6d3f]
class Ventilacao--><rect codeLine="91" fill="#FEFECE" filter="url(#fqu2hj5yvxt3v)" height="124.8281" id="Ventilacao" style="stroke: #A80036; stroke-width: 1.5;" width="159" x="187.5" y="227"/><ellipse cx="231.75" cy="243" fill="#ADD1B2" rx="11" ry="11" style="stroke: #A80036; stroke-width: 1.0;"/><path d="M234.0938,238.6719 C233.1563,238.2344 232.5625,238.0938 231.6875,238.0938 C229.0625,238.0938 227.0625,240.1719 227.0625,242.8906 L227.0625,244.0156 C227.0625,246.5938 229.1719,248.4844 232.0625,248.4844 C233.2813,248.4844 234.4375,248.1875 235.1875,247.6406 C235.7656,247.2344 236.0938,246.7813 236.0938,246.3906 C236.0938,245.9375 235.7031,245.5469 235.2344,245.5469 C235.0156,245.5469 234.8125,245.625 234.625,245.8125 C234.1719,246.2969 234.1719,246.2969 233.9844,246.3906 C233.5625,246.6563 232.875,246.7813 232.1094,246.7813 C230.0625,246.7813 228.7656,245.6875 228.7656,243.9844 L228.7656,242.8906 C228.7656,241.1094 230.0156,239.7969 231.75,239.7969 C232.3281,239.7969 232.9375,239.9531 233.4063,240.2031 C233.8906,240.4844 234.0625,240.7031 234.1563,241.1094 C234.2188,241.5156 234.25,241.6406 234.3906,241.7656 C234.5313,241.9063 234.7656,242.0156 234.9844,242.0156 C235.25,242.0156 235.5156,241.875 235.6875,241.6563 C235.7969,241.5 235.8281,241.3125 235.8281,240.8906 L235.8281,239.4688 C235.8281,239.0313 235.8125,238.9063 235.7188,238.75 C235.5625,238.4844 235.2813,238.3438 234.9844,238.3438 C234.6875,238.3438 234.4844,238.4375 234.2656,238.75 L234.0938,238.6719 Z "/><text fill="#000000" font-family="sans-serif" font-size="12" lengthAdjust="spacingAndGlyphs" textLength="62" x="252.25" y="247.1543">Ventilacao</text><line style="stroke: #A80036; stroke-width: 1.5;" x1="188.5" x2="345.5" y1="259" y2="259"/><rect fill="none" height="6" style="stroke: #C82930; stroke-width: 1.0;" width="6" x="195.5" y="267"/><text fill="#000000" font-family="sans-serif" font-size="11" lengthAdjust="spacingAndGlyphs" textLength="58" x="207.5" y="273.2104">id: Integer</text><rect fill="none" height="6" style="stroke: #C82930; stroke-width: 1.0;" width="6" x="195.5" y="279.8047"/><text fill="#000000" font-family="sans-serif" font-size="11" lengthAdjust="spacingAndGlyphs" textLength="36" x="207.5" y="286.0151">nome:</text><rect fill="none" height="6" style="stroke: #C82930; stroke-width: 1.0;" width="6" x="195.5" y="292.6094"/><text fill="#000000" font-family="sans-serif" font-size="11" lengthAdjust="spacingAndGlyphs" textLength="67" x="207.5" y="298.8198">desc: String</text><rect fill="none" height="6" style="stroke: #C82930; stroke-width: 1.0;" width="6" x="195.5" y="305.4141"/><text fill="#000000" font-family="sans-serif" font-size="11" lengthAdjust="spacingAndGlyphs" textLength="133" x="207.5" y="311.6245">velocidadeRPM: Double</text><rect fill="none" height="6" style="stroke: #C82930; stroke-width: 1.0;" width="6" x="195.5" y="318.2188"/><text fill="#000000" font-family="sans-serif" font-size="11" lengthAdjust="spacingAndGlyphs" textLength="93" x="207.5" y="324.4292">kilowats: Double</text><line style="stroke: #A80036; stroke-width: 1.5;" x1="188.5" x2="345.5" y1="331.0234" y2="331.0234"/><ellipse cx="198.5" cy="342.0234" fill="#84BE84" rx="3" ry="3" style="stroke: #038048; stroke-width: 1.0;"/><text fill="#000000" font-family="sans-serif" font-size="11" lengthAdjust="spacingAndGlyphs" textLength="86" x="207.5" y="345.2339">void methods()</text><!--MD5=[0a8c0962b12022b9d8929b1ac9dc838e]
class Armazem--><rect codeLine="100" fill="#FEFECE" filter="url(#fqu2hj5yvxt3v)" height="124.8281" id="Armazem" style="stroke: #A80036; stroke-width: 1.5;" width="139" x="374.5" y="41"/><ellipse cx="412" cy="57" fill="#ADD1B2" rx="11" ry="11" style="stroke: #A80036; stroke-width: 1.0;"/><path d="M414.3438,52.6719 C413.4063,52.2344 412.8125,52.0938 411.9375,52.0938 C409.3125,52.0938 407.3125,54.1719 407.3125,56.8906 L407.3125,58.0156 C407.3125,60.5938 409.4219,62.4844 412.3125,62.4844 C413.5313,62.4844 414.6875,62.1875 415.4375,61.6406 C416.0156,61.2344 416.3438,60.7813 416.3438,60.3906 C416.3438,59.9375 415.9531,59.5469 415.4844,59.5469 C415.2656,59.5469 415.0625,59.625 414.875,59.8125 C414.4219,60.2969 414.4219,60.2969 414.2344,60.3906 C413.8125,60.6563 413.125,60.7813 412.3594,60.7813 C410.3125,60.7813 409.0156,59.6875 409.0156,57.9844 L409.0156,56.8906 C409.0156,55.1094 410.2656,53.7969 412,53.7969 C412.5781,53.7969 413.1875,53.9531 413.6563,54.2031 C414.1406,54.4844 414.3125,54.7031 414.4063,55.1094 C414.4688,55.5156 414.5,55.6406 414.6406,55.7656 C414.7813,55.9063 415.0156,56.0156 415.2344,56.0156 C415.5,56.0156 415.7656,55.875 415.9375,55.6563 C416.0469,55.5 416.0781,55.3125 416.0781,54.8906 L416.0781,53.4688 C416.0781,53.0313 416.0625,52.9063 415.9688,52.75 C415.8125,52.4844 415.5313,52.3438 415.2344,52.3438 C414.9375,52.3438 414.7344,52.4375 414.5156,52.75 L414.3438,52.6719 Z "/><text fill="#000000" font-family="sans-serif" font-size="12" lengthAdjust="spacingAndGlyphs" textLength="57" x="431" y="61.1543">Armazem</text><line style="stroke: #A80036; stroke-width: 1.5;" x1="375.5" x2="512.5" y1="73" y2="73"/><rect fill="none" height="6" style="stroke: #C82930; stroke-width: 1.0;" width="6" x="382.5" y="81"/><text fill="#000000" font-family="sans-serif" font-size="11" lengthAdjust="spacingAndGlyphs" textLength="58" x="394.5" y="87.2104">id: Integer</text><rect fill="none" height="6" style="stroke: #C82930; stroke-width: 1.0;" width="6" x="382.5" y="93.8047"/><text fill="#000000" font-family="sans-serif" font-size="11" lengthAdjust="spacingAndGlyphs" textLength="67" x="394.5" y="100.0151">desc: String</text><rect fill="none" height="6" style="stroke: #C82930; stroke-width: 1.0;" width="6" x="382.5" y="106.6094"/><text fill="#000000" font-family="sans-serif" font-size="11" lengthAdjust="spacingAndGlyphs" textLength="66" x="394.5" y="112.8198">sigla: String</text><rect fill="none" height="6" style="stroke: #C82930; stroke-width: 1.0;" width="6" x="382.5" y="119.4141"/><text fill="#000000" font-family="sans-serif" font-size="11" lengthAdjust="spacingAndGlyphs" textLength="88" x="394.5" y="125.6245">status: Boolean</text><rect fill="none" height="6" style="stroke: #C82930; stroke-width: 1.0;" width="6" x="382.5" y="132.2188"/><text fill="#000000" font-family="sans-serif" font-size="11" lengthAdjust="spacingAndGlyphs" textLength="113" x="394.5" y="138.4292">capacidade: Double</text><rect fill="none" height="6" style="stroke: #C82930; stroke-width: 1.0;" width="6" x="382.5" y="145.0234"/><text fill="#000000" font-family="sans-serif" font-size="11" lengthAdjust="spacingAndGlyphs" textLength="87" x="394.5" y="151.2339">imagem: String</text><line style="stroke: #A80036; stroke-width: 1.5;" x1="375.5" x2="512.5" y1="157.8281" y2="157.8281"/><!--MD5=[74e36fb2b647c2f688adf7ed4adc86d9]
class Localizacao--><rect codeLine="110" fill="#FEFECE" filter="url(#fqu2hj5yvxt3v)" height="73.6094" id="Localizacao" style="stroke: #A80036; stroke-width: 1.5;" width="102" x="382" y="252.5"/><ellipse cx="397" cy="268.5" fill="#ADD1B2" rx="11" ry="11" style="stroke: #A80036; stroke-width: 1.0;"/><path d="M399.3438,264.1719 C398.4063,263.7344 397.8125,263.5938 396.9375,263.5938 C394.3125,263.5938 392.3125,265.6719 392.3125,268.3906 L392.3125,269.5156 C392.3125,272.0938 394.4219,273.9844 397.3125,273.9844 C398.5313,273.9844 399.6875,273.6875 400.4375,273.1406 C401.0156,272.7344 401.3438,272.2813 401.3438,271.8906 C401.3438,271.4375 400.9531,271.0469 400.4844,271.0469 C400.2656,271.0469 400.0625,271.125 399.875,271.3125 C399.4219,271.7969 399.4219,271.7969 399.2344,271.8906 C398.8125,272.1563 398.125,272.2813 397.3594,272.2813 C395.3125,272.2813 394.0156,271.1875 394.0156,269.4844 L394.0156,268.3906 C394.0156,266.6094 395.2656,265.2969 397,265.2969 C397.5781,265.2969 398.1875,265.4531 398.6563,265.7031 C399.1406,265.9844 399.3125,266.2031 399.4063,266.6094 C399.4688,267.0156 399.5,267.1406 399.6406,267.2656 C399.7813,267.4063 400.0156,267.5156 400.2344,267.5156 C400.5,267.5156 400.7656,267.375 400.9375,267.1563 C401.0469,267 401.0781,266.8125 401.0781,266.3906 L401.0781,264.9688 C401.0781,264.5313 401.0625,264.4063 400.9688,264.25 C400.8125,263.9844 400.5313,263.8438 400.2344,263.8438 C399.9375,263.8438 399.7344,263.9375 399.5156,264.25 L399.3438,264.1719 Z "/><text fill="#000000" font-family="sans-serif" font-size="12" lengthAdjust="spacingAndGlyphs" textLength="70" x="411" y="272.6543">Localizacao</text><line style="stroke: #A80036; stroke-width: 1.5;" x1="383" x2="483" y1="284.5" y2="284.5"/><rect fill="none" height="6" style="stroke: #C82930; stroke-width: 1.0;" width="6" x="390" y="292.5"/><text fill="#000000" font-family="sans-serif" font-size="11" lengthAdjust="spacingAndGlyphs" textLength="54" x="402" y="298.7104">lat: String</text><rect fill="none" height="6" style="stroke: #C82930; stroke-width: 1.0;" width="6" x="390" y="305.3047"/><text fill="#000000" font-family="sans-serif" font-size="11" lengthAdjust="spacingAndGlyphs" textLength="64" x="402" y="311.5151">long: String</text><line style="stroke: #A80036; stroke-width: 1.5;" x1="383" x2="483" y1="318.1094" y2="318.1094"/><!--MD5=[1caaed32069ab8baac52dce72684dc3c]
class TipoConta--><rect codeLine="115" fill="#FEFECE" filter="url(#fqu2hj5yvxt3v)" height="73.6094" id="TipoConta" style="stroke: #A80036; stroke-width: 1.5;" width="120" x="32" y="252.5"/><ellipse cx="59.6" cy="268.5" fill="#EB937F" rx="11" ry="11" style="stroke: #A80036; stroke-width: 1.0;"/><path d="M58.3969,269.375 L59.85,269.375 L59.85,269.4844 C59.85,269.8906 59.8813,270.0469 59.9594,270.2031 C60.1156,270.4531 60.3969,270.6094 60.6938,270.6094 C60.9438,270.6094 61.2094,270.4688 61.3656,270.25 C61.4906,270.0938 61.5219,269.9375 61.5219,269.4844 L61.5219,267.5625 C61.5219,267.4063 61.5219,267.3594 61.5063,267.2031 C61.4438,266.7344 61.1313,266.4219 60.6781,266.4219 C60.4281,266.4219 60.1625,266.5625 59.9906,266.7813 C59.8813,266.9531 59.85,267.1094 59.85,267.5625 L59.85,267.6875 L58.3969,267.6875 L58.3969,265.2813 L62.3813,265.2813 L62.3813,266.1406 C62.3813,266.5469 62.4125,266.7188 62.4906,266.875 C62.6625,267.125 62.9438,267.2813 63.225,267.2813 C63.4906,267.2813 63.7563,267.1406 63.9281,266.9219 C64.0375,266.75 64.0688,266.6094 64.0688,266.1406 L64.0688,263.5938 L56.4438,263.5938 C56.0063,263.5938 55.8813,263.6094 55.725,263.7031 C55.475,263.8594 55.3188,264.1563 55.3188,264.4375 C55.3188,264.7188 55.4594,264.9688 55.6781,265.1406 C55.8344,265.25 56.0219,265.2813 56.4438,265.2813 L56.6938,265.2813 L56.6938,271.7969 L56.4438,271.7969 C56.0375,271.7969 55.8813,271.8125 55.725,271.9219 C55.475,272.0938 55.3188,272.3594 55.3188,272.6563 C55.3188,272.9219 55.4594,273.1719 55.6781,273.3281 C55.8188,273.4531 56.0531,273.5 56.4438,273.5 L64.4438,273.5 L64.4438,270.9219 C64.4438,270.4844 64.4125,270.3438 64.3344,270.1875 C64.1625,269.9375 63.8813,269.7813 63.6,269.7813 C63.3344,269.7813 63.0688,269.8906 62.8969,270.1406 C62.7875,270.2969 62.7563,270.4375 62.7563,270.9219 L62.7563,271.7969 L58.3969,271.7969 L58.3969,269.375 Z "/><text fill="#000000" font-family="sans-serif" font-size="12" lengthAdjust="spacingAndGlyphs" textLength="60" x="76.4" y="272.6543">TipoConta</text><line style="stroke: #A80036; stroke-width: 1.5;" x1="33" x2="151" y1="284.5" y2="284.5"/><text fill="#000000" font-family="sans-serif" font-size="11" lengthAdjust="spacingAndGlyphs" textLength="108" x="38" y="298.7104">DEVEDORA:Integer</text><text fill="#000000" font-family="sans-serif" font-size="11" lengthAdjust="spacingAndGlyphs" textLength="99" x="38" y="311.5151">CREDORA:Integer</text><line style="stroke: #A80036; stroke-width: 1.5;" x1="33" x2="151" y1="318.1094" y2="318.1094"/><!--MD5=[c20c7e6e86d55803c48f9632a298d31a]
class PlanoDeCusto--><rect codeLine="120" fill="#FEFECE" filter="url(#fqu2hj5yvxt3v)" height="124.8281" id="PlanoDeCusto" style="stroke: #A80036; stroke-width: 1.5;" width="193" x="32.5" y="41"/><ellipse cx="83.75" cy="57" fill="#ADD1B2" rx="11" ry="11" style="stroke: #A80036; stroke-width: 1.0;"/><path d="M86.0938,52.6719 C85.1563,52.2344 84.5625,52.0938 83.6875,52.0938 C81.0625,52.0938 79.0625,54.1719 79.0625,56.8906 L79.0625,58.0156 C79.0625,60.5938 81.1719,62.4844 84.0625,62.4844 C85.2813,62.4844 86.4375,62.1875 87.1875,61.6406 C87.7656,61.2344 88.0938,60.7813 88.0938,60.3906 C88.0938,59.9375 87.7031,59.5469 87.2344,59.5469 C87.0156,59.5469 86.8125,59.625 86.625,59.8125 C86.1719,60.2969 86.1719,60.2969 85.9844,60.3906 C85.5625,60.6563 84.875,60.7813 84.1094,60.7813 C82.0625,60.7813 80.7656,59.6875 80.7656,57.9844 L80.7656,56.8906 C80.7656,55.1094 82.0156,53.7969 83.75,53.7969 C84.3281,53.7969 84.9375,53.9531 85.4063,54.2031 C85.8906,54.4844 86.0625,54.7031 86.1563,55.1094 C86.2188,55.5156 86.25,55.6406 86.3906,55.7656 C86.5313,55.9063 86.7656,56.0156 86.9844,56.0156 C87.25,56.0156 87.5156,55.875 87.6875,55.6563 C87.7969,55.5 87.8281,55.3125 87.8281,54.8906 L87.8281,53.4688 C87.8281,53.0313 87.8125,52.9063 87.7188,52.75 C87.5625,52.4844 87.2813,52.3438 86.9844,52.3438 C86.6875,52.3438 86.4844,52.4375 86.2656,52.75 L86.0938,52.6719 Z "/><text fill="#000000" font-family="sans-serif" font-size="12" lengthAdjust="spacingAndGlyphs" textLength="82" x="104.25" y="61.1543">PlanoDeCusto</text><line style="stroke: #A80036; stroke-width: 1.5;" x1="33.5" x2="224.5" y1="73" y2="73"/><rect fill="none" height="6" style="stroke: #C82930; stroke-width: 1.0;" width="6" x="40.5" y="81"/><text fill="#000000" font-family="sans-serif" font-size="11" lengthAdjust="spacingAndGlyphs" textLength="58" x="52.5" y="87.2104">id: Integer</text><rect fill="none" height="6" style="stroke: #C82930; stroke-width: 1.0;" width="6" x="40.5" y="93.8047"/><text fill="#000000" font-family="sans-serif" font-size="11" lengthAdjust="spacingAndGlyphs" textLength="167" x="52.5" y="100.0151">dataContabilidade: LocalDate</text><rect fill="none" height="6" style="stroke: #C82930; stroke-width: 1.0;" width="6" x="40.5" y="106.6094"/><text fill="#000000" font-family="sans-serif" font-size="11" lengthAdjust="spacingAndGlyphs" textLength="114" x="52.5" y="112.8198">bloqueado: Boolean</text><rect fill="none" height="6" style="stroke: #C82930; stroke-width: 1.0;" width="6" x="40.5" y="119.4141"/><text fill="#000000" font-family="sans-serif" font-size="11" lengthAdjust="spacingAndGlyphs" textLength="114" x="52.5" y="125.6245">obrigatorio: Boolean</text><rect fill="none" height="6" style="stroke: #C82930; stroke-width: 1.0;" width="6" x="40.5" y="132.2188"/><text fill="#000000" font-family="sans-serif" font-size="11" lengthAdjust="spacingAndGlyphs" textLength="80" x="52.5" y="138.4292">preco: Double</text><rect fill="none" height="6" style="stroke: #C82930; stroke-width: 1.0;" width="6" x="40.5" y="145.0234"/><text fill="#000000" font-family="sans-serif" font-size="11" lengthAdjust="spacingAndGlyphs" textLength="67" x="52.5" y="151.2339">desc: String</text><line style="stroke: #A80036; stroke-width: 1.5;" x1="33.5" x2="224.5" y1="157.8281" y2="157.8281"/><!--MD5=[088a46a2f0cb650e184c984a011833fa]
class ArmazenarGrao--><rect codeLine="133" fill="#FEFECE" filter="url(#fqu2hj5yvxt3v)" height="188.8516" id="ArmazenarGrao" style="stroke: #A80036; stroke-width: 1.5;" width="215" x="1480.5" y="413"/><ellipse cx="1536.75" cy="429" fill="#ADD1B2" rx="11" ry="11" style="stroke: #A80036; stroke-width: 1.0;"/><path d="M1539.0938,424.6719 C1538.1563,424.2344 1537.5625,424.0938 1536.6875,424.0938 C1534.0625,424.0938 1532.0625,426.1719 1532.0625,428.8906 L1532.0625,430.0156 C1532.0625,432.5938 1534.1719,434.4844 1537.0625,434.4844 C1538.2813,434.4844 1539.4375,434.1875 1540.1875,433.6406 C1540.7656,433.2344 1541.0938,432.7813 1541.0938,432.3906 C1541.0938,431.9375 1540.7031,431.5469 1540.2344,431.5469 C1540.0156,431.5469 1539.8125,431.625 1539.625,431.8125 C1539.1719,432.2969 1539.1719,432.2969 1538.9844,432.3906 C1538.5625,432.6563 1537.875,432.7813 1537.1094,432.7813 C1535.0625,432.7813 1533.7656,431.6875 1533.7656,429.9844 L1533.7656,428.8906 C1533.7656,427.1094 1535.0156,425.7969 1536.75,425.7969 C1537.3281,425.7969 1537.9375,425.9531 1538.4063,426.2031 C1538.8906,426.4844 1539.0625,426.7031 1539.1563,427.1094 C1539.2188,427.5156 1539.25,427.6406 1539.3906,427.7656 C1539.5313,427.9063 1539.7656,428.0156 1539.9844,428.0156 C1540.25,428.0156 1540.5156,427.875 1540.6875,427.6563 C1540.7969,427.5 1540.8281,427.3125 1540.8281,426.8906 L1540.8281,425.4688 C1540.8281,425.0313 1540.8125,424.9063 1540.7188,424.75 C1540.5625,424.4844 1540.2813,424.3438 1539.9844,424.3438 C1539.6875,424.3438 1539.4844,424.4375 1539.2656,424.75 L1539.0938,424.6719 Z "/><text fill="#000000" font-family="sans-serif" font-size="12" lengthAdjust="spacingAndGlyphs" textLength="94" x="1557.25" y="433.1543">ArmazenarGrao</text><line style="stroke: #A80036; stroke-width: 1.5;" x1="1481.5" x2="1694.5" y1="445" y2="445"/><rect fill="none" height="6" style="stroke: #C82930; stroke-width: 1.0;" width="6" x="1488.5" y="453"/><text fill="#000000" font-family="sans-serif" font-size="11" lengthAdjust="spacingAndGlyphs" textLength="58" x="1500.5" y="459.2104">id: Integer</text><rect fill="none" height="6" style="stroke: #C82930; stroke-width: 1.0;" width="6" x="1488.5" y="465.8047"/><text fill="#000000" font-family="sans-serif" font-size="11" lengthAdjust="spacingAndGlyphs" textLength="189" x="1500.5" y="472.0151">horarioArmazenagem: LocalTime</text><rect fill="none" height="6" style="stroke: #C82930; stroke-width: 1.0;" width="6" x="1488.5" y="478.6094"/><text fill="#000000" font-family="sans-serif" font-size="11" lengthAdjust="spacingAndGlyphs" textLength="122" x="1500.5" y="484.8198">estadoDoGrao: String</text><rect fill="none" height="6" style="stroke: #C82930; stroke-width: 1.0;" width="6" x="1488.5" y="491.4141"/><text fill="#000000" font-family="sans-serif" font-size="11" lengthAdjust="spacingAndGlyphs" textLength="164" x="1500.5" y="497.6245">umidadeRelativaDoAr: String</text><rect fill="none" height="6" style="stroke: #C82930; stroke-width: 1.0;" width="6" x="1488.5" y="504.2188"/><text fill="#000000" font-family="sans-serif" font-size="11" lengthAdjust="spacingAndGlyphs" textLength="145" x="1500.5" y="510.4292">pressaoVaporGrao: String</text><rect fill="none" height="6" style="stroke: #C82930; stroke-width: 1.0;" width="6" x="1488.5" y="517.0234"/><text fill="#000000" font-family="sans-serif" font-size="11" lengthAdjust="spacingAndGlyphs" textLength="130" x="1500.5" y="523.2339">pressaoVaporAr: String</text><rect fill="none" height="6" style="stroke: #C82930; stroke-width: 1.0;" width="6" x="1488.5" y="529.8281"/><text fill="#000000" font-family="sans-serif" font-size="11" lengthAdjust="spacingAndGlyphs" textLength="119" x="1500.5" y="536.0386">temperatura: Double</text><rect fill="none" height="6" style="stroke: #C82930; stroke-width: 1.0;" width="6" x="1488.5" y="542.6328"/><text fill="#000000" font-family="sans-serif" font-size="11" lengthAdjust="spacingAndGlyphs" textLength="186" x="1500.5" y="548.8433">condicaoArmazenamento: String</text><rect fill="none" height="6" style="stroke: #C82930; stroke-width: 1.0;" width="6" x="1488.5" y="555.4375"/><text fill="#000000" font-family="sans-serif" font-size="11" lengthAdjust="spacingAndGlyphs" textLength="169" x="1500.5" y="561.6479">etapaArmazenamento: String</text><rect fill="none" height="6" style="stroke: #C82930; stroke-width: 1.0;" width="6" x="1488.5" y="568.2422"/><text fill="#000000" font-family="sans-serif" font-size="11" lengthAdjust="spacingAndGlyphs" textLength="163" x="1500.5" y="574.4526">custoArmazenagem: Double</text><rect fill="none" height="6" style="stroke: #C82930; stroke-width: 1.0;" width="6" x="1488.5" y="581.0469"/><text fill="#000000" font-family="sans-serif" font-size="11" lengthAdjust="spacingAndGlyphs" textLength="185" x="1500.5" y="587.2573">quantidadeArmazenada: Double</text><line style="stroke: #A80036; stroke-width: 1.5;" x1="1481.5" x2="1694.5" y1="593.8516" y2="593.8516"/><!--MD5=[35db2d789f95abc391e5a1a287df2cab]
class RetirarGrao--><rect codeLine="148" fill="#FEFECE" filter="url(#fqu2hj5yvxt3v)" height="73.6094" id="RetirarGrao" style="stroke: #A80036; stroke-width: 1.5;" width="189" x="1730.5" y="470.5"/><ellipse cx="1786.75" cy="486.5" fill="#ADD1B2" rx="11" ry="11" style="stroke: #A80036; stroke-width: 1.0;"/><path d="M1789.0938,482.1719 C1788.1563,481.7344 1787.5625,481.5938 1786.6875,481.5938 C1784.0625,481.5938 1782.0625,483.6719 1782.0625,486.3906 L1782.0625,487.5156 C1782.0625,490.0938 1784.1719,491.9844 1787.0625,491.9844 C1788.2813,491.9844 1789.4375,491.6875 1790.1875,491.1406 C1790.7656,490.7344 1791.0938,490.2813 1791.0938,489.8906 C1791.0938,489.4375 1790.7031,489.0469 1790.2344,489.0469 C1790.0156,489.0469 1789.8125,489.125 1789.625,489.3125 C1789.1719,489.7969 1789.1719,489.7969 1788.9844,489.8906 C1788.5625,490.1563 1787.875,490.2813 1787.1094,490.2813 C1785.0625,490.2813 1783.7656,489.1875 1783.7656,487.4844 L1783.7656,486.3906 C1783.7656,484.6094 1785.0156,483.2969 1786.75,483.2969 C1787.3281,483.2969 1787.9375,483.4531 1788.4063,483.7031 C1788.8906,483.9844 1789.0625,484.2031 1789.1563,484.6094 C1789.2188,485.0156 1789.25,485.1406 1789.3906,485.2656 C1789.5313,485.4063 1789.7656,485.5156 1789.9844,485.5156 C1790.25,485.5156 1790.5156,485.375 1790.6875,485.1563 C1790.7969,485 1790.8281,484.8125 1790.8281,484.3906 L1790.8281,482.9688 C1790.8281,482.5313 1790.8125,482.4063 1790.7188,482.25 C1790.5625,481.9844 1790.2813,481.8438 1789.9844,481.8438 C1789.6875,481.8438 1789.4844,481.9375 1789.2656,482.25 L1789.0938,482.1719 Z "/><text fill="#000000" font-family="sans-serif" font-size="12" lengthAdjust="spacingAndGlyphs" textLength="68" x="1807.25" y="490.6543">RetirarGrao</text><line style="stroke: #A80036; stroke-width: 1.5;" x1="1731.5" x2="1918.5" y1="502.5" y2="502.5"/><rect fill="none" height="6" style="stroke: #C82930; stroke-width: 1.0;" width="6" x="1738.5" y="510.5"/><text fill="#000000" font-family="sans-serif" font-size="11" lengthAdjust="spacingAndGlyphs" textLength="58" x="1750.5" y="516.7104">id: Integer</text><rect fill="none" height="6" style="stroke: #C82930; stroke-width: 1.0;" width="6" x="1738.5" y="523.3047"/><text fill="#000000" font-family="sans-serif" font-size="11" lengthAdjust="spacingAndGlyphs" textLength="163" x="1750.5" y="529.5151">quantidadeRetirada : Double</text><line style="stroke: #A80036; stroke-width: 1.5;" x1="1731.5" x2="1918.5" y1="536.1094" y2="536.1094"/><!--MD5=[f55971fb40c0e846bf09e8a88e692933]
class Situacao--><rect codeLine="153" fill="#FEFECE" filter="url(#fqu2hj5yvxt3v)" height="73.6094" id="Situacao" style="stroke: #A80036; stroke-width: 1.5;" width="215" x="1705.5" y="66.5"/><ellipse cx="1783.25" cy="82.5" fill="#ADD1B2" rx="11" ry="11" style="stroke: #A80036; stroke-width: 1.0;"/><path d="M1785.5938,78.1719 C1784.6563,77.7344 1784.0625,77.5938 1783.1875,77.5938 C1780.5625,77.5938 1778.5625,79.6719 1778.5625,82.3906 L1778.5625,83.5156 C1778.5625,86.0938 1780.6719,87.9844 1783.5625,87.9844 C1784.7813,87.9844 1785.9375,87.6875 1786.6875,87.1406 C1787.2656,86.7344 1787.5938,86.2813 1787.5938,85.8906 C1787.5938,85.4375 1787.2031,85.0469 1786.7344,85.0469 C1786.5156,85.0469 1786.3125,85.125 1786.125,85.3125 C1785.6719,85.7969 1785.6719,85.7969 1785.4844,85.8906 C1785.0625,86.1563 1784.375,86.2813 1783.6094,86.2813 C1781.5625,86.2813 1780.2656,85.1875 1780.2656,83.4844 L1780.2656,82.3906 C1780.2656,80.6094 1781.5156,79.2969 1783.25,79.2969 C1783.8281,79.2969 1784.4375,79.4531 1784.9063,79.7031 C1785.3906,79.9844 1785.5625,80.2031 1785.6563,80.6094 C1785.7188,81.0156 1785.75,81.1406 1785.8906,81.2656 C1786.0313,81.4063 1786.2656,81.5156 1786.4844,81.5156 C1786.75,81.5156 1787.0156,81.375 1787.1875,81.1563 C1787.2969,81 1787.3281,80.8125 1787.3281,80.3906 L1787.3281,78.9688 C1787.3281,78.5313 1787.3125,78.4063 1787.2188,78.25 C1787.0625,77.9844 1786.7813,77.8438 1786.4844,77.8438 C1786.1875,77.8438 1785.9844,77.9375 1785.7656,78.25 L1785.5938,78.1719 Z "/><text fill="#000000" font-family="sans-serif" font-size="12" lengthAdjust="spacingAndGlyphs" textLength="51" x="1803.75" y="86.6543">Situacao</text><line style="stroke: #A80036; stroke-width: 1.5;" x1="1706.5" x2="1919.5" y1="98.5" y2="98.5"/><rect fill="none" height="6" style="stroke: #C82930; stroke-width: 1.0;" width="6" x="1713.5" y="106.5"/><text fill="#000000" font-family="sans-serif" font-size="11" lengthAdjust="spacingAndGlyphs" textLength="58" x="1725.5" y="112.7104">id: Integer</text><rect fill="none" height="6" style="stroke: #C82930; stroke-width: 1.0;" width="6" x="1713.5" y="119.3047"/><text fill="#000000" font-family="sans-serif" font-size="11" lengthAdjust="spacingAndGlyphs" textLength="189" x="1725.5" y="125.5151">quantidadeArmazenada : Double</text><line style="stroke: #A80036; stroke-width: 1.5;" x1="1706.5" x2="1919.5" y1="132.1094" y2="132.1094"/><!--MD5=[36c1942e8942a3e4f47e6de3733e3d18]
class Endereco--><rect codeLine="158" fill="#FEFECE" filter="url(#fqu2hj5yvxt3v)" height="73.6094" id="Endereco" style="stroke: #A80036; stroke-width: 1.5;" width="121" x="1645.5" y="739.5"/><ellipse cx="1674.45" cy="755.5" fill="#ADD1B2" rx="11" ry="11" style="stroke: #A80036; stroke-width: 1.0;"/><path d="M1676.7938,751.1719 C1675.8563,750.7344 1675.2625,750.5938 1674.3875,750.5938 C1671.7625,750.5938 1669.7625,752.6719 1669.7625,755.3906 L1669.7625,756.5156 C1669.7625,759.0938 1671.8719,760.9844 1674.7625,760.9844 C1675.9813,760.9844 1677.1375,760.6875 1677.8875,760.1406 C1678.4656,759.7344 1678.7938,759.2813 1678.7938,758.8906 C1678.7938,758.4375 1678.4031,758.0469 1677.9344,758.0469 C1677.7156,758.0469 1677.5125,758.125 1677.325,758.3125 C1676.8719,758.7969 1676.8719,758.7969 1676.6844,758.8906 C1676.2625,759.1563 1675.575,759.2813 1674.8094,759.2813 C1672.7625,759.2813 1671.4656,758.1875 1671.4656,756.4844 L1671.4656,755.3906 C1671.4656,753.6094 1672.7156,752.2969 1674.45,752.2969 C1675.0281,752.2969 1675.6375,752.4531 1676.1063,752.7031 C1676.5906,752.9844 1676.7625,753.2031 1676.8563,753.6094 C1676.9188,754.0156 1676.95,754.1406 1677.0906,754.2656 C1677.2313,754.4063 1677.4656,754.5156 1677.6844,754.5156 C1677.95,754.5156 1678.2156,754.375 1678.3875,754.1563 C1678.4969,754 1678.5281,753.8125 1678.5281,753.3906 L1678.5281,751.9688 C1678.5281,751.5313 1678.5125,751.4063 1678.4188,751.25 C1678.2625,750.9844 1677.9813,750.8438 1677.6844,750.8438 C1677.3875,750.8438 1677.1844,750.9375 1676.9656,751.25 L1676.7938,751.1719 Z "/><text fill="#000000" font-family="sans-serif" font-size="12" lengthAdjust="spacingAndGlyphs" textLength="58" x="1691.55" y="759.6543">Endereco</text><line style="stroke: #A80036; stroke-width: 1.5;" x1="1646.5" x2="1765.5" y1="771.5" y2="771.5"/><rect fill="none" height="6" style="stroke: #C82930; stroke-width: 1.0;" width="6" x="1653.5" y="779.5"/><text fill="#000000" font-family="sans-serif" font-size="11" lengthAdjust="spacingAndGlyphs" textLength="58" x="1665.5" y="785.7104">id: Integer</text><rect fill="none" height="6" style="stroke: #C82930; stroke-width: 1.0;" width="6" x="1653.5" y="792.3047"/><text fill="#000000" font-family="sans-serif" font-size="11" lengthAdjust="spacingAndGlyphs" textLength="95" x="1665.5" y="798.5151">endereco: String</text><line style="stroke: #A80036; stroke-width: 1.5;" x1="1646.5" x2="1765.5" y1="805.1094" y2="805.1094"/><!--MD5=[ae7b0ca0f7e312421d3750230ec017c3]
class Agricultor_Copia--><rect codeLine="163" fill="#008000" filter="url(#fqu2hj5yvxt3v)" height="48" id="Agricultor_Copia" style="stroke: #A80036; stroke-width: 1.5;" width="130" x="1913" y="265.5"/><ellipse cx="1928" cy="281.5" fill="#ADD1B2" rx="11" ry="11" style="stroke: #A80036; stroke-width: 1.0;"/><path d="M1930.3438,277.1719 C1929.4063,276.7344 1928.8125,276.5938 1927.9375,276.5938 C1925.3125,276.5938 1923.3125,278.6719 1923.3125,281.3906 L1923.3125,282.5156 C1923.3125,285.0938 1925.4219,286.9844 1928.3125,286.9844 C1929.5313,286.9844 1930.6875,286.6875 1931.4375,286.1406 C1932.0156,285.7344 1932.3438,285.2813 1932.3438,284.8906 C1932.3438,284.4375 1931.9531,284.0469 1931.4844,284.0469 C1931.2656,284.0469 1931.0625,284.125 1930.875,284.3125 C1930.4219,284.7969 1930.4219,284.7969 1930.2344,284.8906 C1929.8125,285.1563 1929.125,285.2813 1928.3594,285.2813 C1926.3125,285.2813 1925.0156,284.1875 1925.0156,282.4844 L1925.0156,281.3906 C1925.0156,279.6094 1926.2656,278.2969 1928,278.2969 C1928.5781,278.2969 1929.1875,278.4531 1929.6563,278.7031 C1930.1406,278.9844 1930.3125,279.2031 1930.4063,279.6094 C1930.4688,280.0156 1930.5,280.1406 1930.6406,280.2656 C1930.7813,280.4063 1931.0156,280.5156 1931.2344,280.5156 C1931.5,280.5156 1931.7656,280.375 1931.9375,280.1563 C1932.0469,280 1932.0781,279.8125 1932.0781,279.3906 L1932.0781,277.9688 C1932.0781,277.5313 1932.0625,277.4063 1931.9688,277.25 C1931.8125,276.9844 1931.5313,276.8438 1931.2344,276.8438 C1930.9375,276.8438 1930.7344,276.9375 1930.5156,277.25 L1930.3438,277.1719 Z "/><text fill="#000000" font-family="sans-serif" font-size="12" lengthAdjust="spacingAndGlyphs" textLength="98" x="1942" y="285.6543">Agricultor_Copia</text><line style="stroke: #A80036; stroke-width: 1.5;" x1="1914" x2="2042" y1="297.5" y2="297.5"/><line style="stroke: #A80036; stroke-width: 1.5;" x1="1914" x2="2042" y1="305.5" y2="305.5"/><!--MD5=[b8b751714b5d74e1ec2cd8fb5018ceee]
class Armazem_Copia--><rect codeLine="166" fill="#008000" filter="url(#fqu2hj5yvxt3v)" height="48" id="Armazem_Copia" style="stroke: #A80036; stroke-width: 1.5;" width="129" x="1748.5" y="265.5"/><ellipse cx="1763.5" cy="281.5" fill="#ADD1B2" rx="11" ry="11" style="stroke: #A80036; stroke-width: 1.0;"/><path d="M1765.8438,277.1719 C1764.9063,276.7344 1764.3125,276.5938 1763.4375,276.5938 C1760.8125,276.5938 1758.8125,278.6719 1758.8125,281.3906 L1758.8125,282.5156 C1758.8125,285.0938 1760.9219,286.9844 1763.8125,286.9844 C1765.0313,286.9844 1766.1875,286.6875 1766.9375,286.1406 C1767.5156,285.7344 1767.8438,285.2813 1767.8438,284.8906 C1767.8438,284.4375 1767.4531,284.0469 1766.9844,284.0469 C1766.7656,284.0469 1766.5625,284.125 1766.375,284.3125 C1765.9219,284.7969 1765.9219,284.7969 1765.7344,284.8906 C1765.3125,285.1563 1764.625,285.2813 1763.8594,285.2813 C1761.8125,285.2813 1760.5156,284.1875 1760.5156,282.4844 L1760.5156,281.3906 C1760.5156,279.6094 1761.7656,278.2969 1763.5,278.2969 C1764.0781,278.2969 1764.6875,278.4531 1765.1563,278.7031 C1765.6406,278.9844 1765.8125,279.2031 1765.9063,279.6094 C1765.9688,280.0156 1766,280.1406 1766.1406,280.2656 C1766.2813,280.4063 1766.5156,280.5156 1766.7344,280.5156 C1767,280.5156 1767.2656,280.375 1767.4375,280.1563 C1767.5469,280 1767.5781,279.8125 1767.5781,279.3906 L1767.5781,277.9688 C1767.5781,277.5313 1767.5625,277.4063 1767.4688,277.25 C1767.3125,276.9844 1767.0313,276.8438 1766.7344,276.8438 C1766.4375,276.8438 1766.2344,276.9375 1766.0156,277.25 L1765.8438,277.1719 Z "/><text fill="#000000" font-family="sans-serif" font-size="12" lengthAdjust="spacingAndGlyphs" textLength="97" x="1777.5" y="285.6543">Armazem_Copia</text><line style="stroke: #A80036; stroke-width: 1.5;" x1="1749.5" x2="1876.5" y1="297.5" y2="297.5"/><line style="stroke: #A80036; stroke-width: 1.5;" x1="1749.5" x2="1876.5" y1="305.5" y2="305.5"/><!--MD5=[cf845e9af2dc27e5c35f10956bdff0ff]
class Grao_Copia--><rect codeLine="169" fill="#008000" filter="url(#fqu2hj5yvxt3v)" height="48" id="Grao_Copia" style="stroke: #A80036; stroke-width: 1.5;" width="101" x="1612.5" y="265.5"/><ellipse cx="1627.5" cy="281.5" fill="#ADD1B2" rx="11" ry="11" style="stroke: #A80036; stroke-width: 1.0;"/><path d="M1629.8438,277.1719 C1628.9063,276.7344 1628.3125,276.5938 1627.4375,276.5938 C1624.8125,276.5938 1622.8125,278.6719 1622.8125,281.3906 L1622.8125,282.5156 C1622.8125,285.0938 1624.9219,286.9844 1627.8125,286.9844 C1629.0313,286.9844 1630.1875,286.6875 1630.9375,286.1406 C1631.5156,285.7344 1631.8438,285.2813 1631.8438,284.8906 C1631.8438,284.4375 1631.4531,284.0469 1630.9844,284.0469 C1630.7656,284.0469 1630.5625,284.125 1630.375,284.3125 C1629.9219,284.7969 1629.9219,284.7969 1629.7344,284.8906 C1629.3125,285.1563 1628.625,285.2813 1627.8594,285.2813 C1625.8125,285.2813 1624.5156,284.1875 1624.5156,282.4844 L1624.5156,281.3906 C1624.5156,279.6094 1625.7656,278.2969 1627.5,278.2969 C1628.0781,278.2969 1628.6875,278.4531 1629.1563,278.7031 C1629.6406,278.9844 1629.8125,279.2031 1629.9063,279.6094 C1629.9688,280.0156 1630,280.1406 1630.1406,280.2656 C1630.2813,280.4063 1630.5156,280.5156 1630.7344,280.5156 C1631,280.5156 1631.2656,280.375 1631.4375,280.1563 C1631.5469,280 1631.5781,279.8125 1631.5781,279.3906 L1631.5781,277.9688 C1631.5781,277.5313 1631.5625,277.4063 1631.4688,277.25 C1631.3125,276.9844 1631.0313,276.8438 1630.7344,276.8438 C1630.4375,276.8438 1630.2344,276.9375 1630.0156,277.25 L1629.8438,277.1719 Z "/><text fill="#000000" font-family="sans-serif" font-size="12" lengthAdjust="spacingAndGlyphs" textLength="69" x="1641.5" y="285.6543">Grao_Copia</text><line style="stroke: #A80036; stroke-width: 1.5;" x1="1613.5" x2="1712.5" y1="297.5" y2="297.5"/><line style="stroke: #A80036; stroke-width: 1.5;" x1="1613.5" x2="1712.5" y1="305.5" y2="305.5"/><!--MD5=[d146a88b916ccbf81501093f3121b4f3]
class Motorista_Copia--><rect codeLine="172" fill="#008000" filter="url(#fqu2hj5yvxt3v)" height="48" id="Motorista_Copia" style="stroke: #A80036; stroke-width: 1.5;" width="128" x="1449" y="265.5"/><ellipse cx="1464" cy="281.5" fill="#ADD1B2" rx="11" ry="11" style="stroke: #A80036; stroke-width: 1.0;"/><path d="M1466.3438,277.1719 C1465.4063,276.7344 1464.8125,276.5938 1463.9375,276.5938 C1461.3125,276.5938 1459.3125,278.6719 1459.3125,281.3906 L1459.3125,282.5156 C1459.3125,285.0938 1461.4219,286.9844 1464.3125,286.9844 C1465.5313,286.9844 1466.6875,286.6875 1467.4375,286.1406 C1468.0156,285.7344 1468.3438,285.2813 1468.3438,284.8906 C1468.3438,284.4375 1467.9531,284.0469 1467.4844,284.0469 C1467.2656,284.0469 1467.0625,284.125 1466.875,284.3125 C1466.4219,284.7969 1466.4219,284.7969 1466.2344,284.8906 C1465.8125,285.1563 1465.125,285.2813 1464.3594,285.2813 C1462.3125,285.2813 1461.0156,284.1875 1461.0156,282.4844 L1461.0156,281.3906 C1461.0156,279.6094 1462.2656,278.2969 1464,278.2969 C1464.5781,278.2969 1465.1875,278.4531 1465.6563,278.7031 C1466.1406,278.9844 1466.3125,279.2031 1466.4063,279.6094 C1466.4688,280.0156 1466.5,280.1406 1466.6406,280.2656 C1466.7813,280.4063 1467.0156,280.5156 1467.2344,280.5156 C1467.5,280.5156 1467.7656,280.375 1467.9375,280.1563 C1468.0469,280 1468.0781,279.8125 1468.0781,279.3906 L1468.0781,277.9688 C1468.0781,277.5313 1468.0625,277.4063 1467.9688,277.25 C1467.8125,276.9844 1467.5313,276.8438 1467.2344,276.8438 C1466.9375,276.8438 1466.7344,276.9375 1466.5156,277.25 L1466.3438,277.1719 Z "/><text fill="#000000" font-family="sans-serif" font-size="12" lengthAdjust="spacingAndGlyphs" textLength="96" x="1478" y="285.6543">Motorista_Copia</text><line style="stroke: #A80036; stroke-width: 1.5;" x1="1450" x2="1576" y1="297.5" y2="297.5"/><line style="stroke: #A80036; stroke-width: 1.5;" x1="1450" x2="1576" y1="305.5" y2="305.5"/><!--MD5=[fcf5bb342e7f37916acf2757beba031a]
reverse link Pessoa to Usuario--><path codeLine="175" d="M1058.19,158.915 C1023.89,189.117 982.17,225.843 951.92,252.475 " fill="none" id="Pessoa-backto-Usuario" style="stroke: #A80036; stroke-width: 1.0;"/><polygon fill="#A80036" points="1062.34,155.266,1052.94,158.2052,1058.5852,158.5677,1058.2227,164.213,1062.34,155.266" style="stroke: #A80036; stroke-width: 1.0;"/><text fill="#000000" font-family="sans-serif" font-size="13" lengthAdjust="spacingAndGlyphs" textLength="8" x="1046.4398" y="158.0115">1</text><text fill="#000000" font-family="sans-serif" font-size="13" lengthAdjust="spacingAndGlyphs" textLength="8" x="950.7271" y="241.3809">1</text><!--MD5=[19995aef0359ebd3f37ba33d41b0b673]
reverse link Pessoa to Agricultor--><path codeLine="176" d="M1142.56,164.653 C1152.59,191.414 1164.17,222.276 1173.25,246.498 " fill="none" id="Pessoa-backto-Agricultor" style="stroke: #A80036; stroke-width: 1.0;"/><polygon fill="#A80036" points="1140.7,159.706,1140.1122,169.5373,1142.4544,164.3881,1147.6036,166.7303,1140.7,159.706" style="stroke: #A80036; stroke-width: 1.0;"/><text fill="#000000" font-family="sans-serif" font-size="13" lengthAdjust="spacingAndGlyphs" textLength="8" x="1134.7353" y="179.5437">1</text><text fill="#000000" font-family="sans-serif" font-size="13" lengthAdjust="spacingAndGlyphs" textLength="8" x="1162.1023" y="235.4937">1</text><!--MD5=[36f02dcbe01c65237d354f401f97b271]
reverse link Pessoa to Motorista--><path codeLine="177" d="M1181.8,156.898 C1220.71,189.898 1269.54,231.299 1301.93,258.759 " fill="none" id="Pessoa-backto-Motorista" style="stroke: #A80036; stroke-width: 1.0;"/><polygon fill="#A80036" points="1177.58,153.326,1181.8459,162.2031,1181.3893,156.5647,1187.0277,156.1081,1177.58,153.326" style="stroke: #A80036; stroke-width: 1.0;"/><text fill="#000000" font-family="sans-serif" font-size="13" lengthAdjust="spacingAndGlyphs" textLength="8" x="1185.4699" y="155.8229">1</text><text fill="#000000" font-family="sans-serif" font-size="13" lengthAdjust="spacingAndGlyphs" textLength="8" x="1285.8718" y="247.9725">1</text><!--MD5=[c86655b86f719092228cc4e86a551caf]
link Motorista to Caminhao--><path codeLine="178" d="M1332.9586,332.0247 C1332.9586,332.0247 1325.47,409.086 1322.01,444.65 " fill="none" id="Motorista-Caminhao" style="stroke: #A80036; stroke-width: 1.0;"/><polygon fill="#A80036" points="1320.73,457.835,1325.5813,449.2639,1321.2134,452.8584,1317.6188,448.4905,1320.73,457.835" style="stroke: #A80036; stroke-width: 1.0;"/><line style="stroke: #A80036; stroke-width: 1.0;" x1="1321.2134" x2="1321.99" y1="452.8584" y2="444.896"/><polygon fill="#A80036" points="1334.12,320.081,1329.5581,325.6657,1332.9586,332.0247,1337.5205,326.44,1334.12,320.081" style="stroke: #A80036; stroke-width: 1.0;"/><text fill="#000000" font-family="sans-serif" font-size="13" lengthAdjust="spacingAndGlyphs" textLength="8" x="1324.701" y="340.0359">1</text><text fill="#000000" font-family="sans-serif" font-size="13" lengthAdjust="spacingAndGlyphs" textLength="8" x="1312.8327" y="446.857">1</text><!--MD5=[8ed61fa2c4bf0c68652ab1eec172d3f0]
link Caminhao to MarcaCaminhao--><path codeLine="179" d="M1316,569.161 C1316,569.161 1316,622.124 1316,649.807 " fill="none" id="Caminhao-MarcaCaminhao" style="stroke: #A80036; stroke-width: 1.0;"/><polygon fill="#A80036" points="1316,662.907,1320,653.907,1316,657.907,1312,653.907,1316,662.907" style="stroke: #A80036; stroke-width: 1.0;"/><line style="stroke: #A80036; stroke-width: 1.0;" x1="1316" x2="1316" y1="657.907" y2="649.907"/><polygon fill="#FFFFFF" points="1316,557.161,1312,563.161,1316,569.161,1320,563.161,1316,557.161" style="stroke: #A80036; stroke-width: 1.0;"/><text fill="#000000" font-family="sans-serif" font-size="13" lengthAdjust="spacingAndGlyphs" textLength="8" x="1307.4375" y="577.2601">1</text><text fill="#000000" font-family="sans-serif" font-size="13" lengthAdjust="spacingAndGlyphs" textLength="8" x="1307.7313" y="651.8335">1</text><!--MD5=[75293945321368f6389bdd0a7a0e67f5]
link Armazem to Localizacao--><path codeLine="180" d="M439.6047,178.0035 C439.6047,178.0035 437.057,220.641 435.953,239.099 " fill="none" id="Armazem-Localizacao" style="stroke: #A80036; stroke-width: 1.0;"/><polygon fill="#A80036" points="435.166,252.267,439.6969,243.5222,435.4649,247.2759,431.7112,243.044,435.166,252.267" style="stroke: #A80036; stroke-width: 1.0;"/><line style="stroke: #A80036; stroke-width: 1.0;" x1="435.4649" x2="435.942" y1="247.2759" y2="239.29"/><polygon fill="#A80036" points="440.322,166.025,435.9705,171.7752,439.6047,178.0035,443.9562,172.2534,440.322,166.025" style="stroke: #A80036; stroke-width: 1.0;"/><text fill="#000000" font-family="sans-serif" font-size="13" lengthAdjust="spacingAndGlyphs" textLength="8" x="431.4822" y="185.7675">1</text><text fill="#000000" font-family="sans-serif" font-size="13" lengthAdjust="spacingAndGlyphs" textLength="8" x="426.8393" y="241.4124">1</text><!--MD5=[df0ef4982d85a54af0f78ab5dd50a18f]
link PlanoDeCusto to TipoConta--><path codeLine="181" d="M114.2624,177.7895 C114.2624,177.7895 105.604,220.85 101.88,239.369 " fill="none" id="PlanoDeCusto-TipoConta" style="stroke: #A80036; stroke-width: 1.0;"/><polygon fill="#A80036" points="99.286,252.267,104.9817,244.2322,100.2717,247.3651,97.1387,242.6551,99.286,252.267" style="stroke: #A80036; stroke-width: 1.0;"/><line style="stroke: #A80036; stroke-width: 1.0;" x1="100.2717" x2="101.8491" y1="247.3651" y2="239.522"/><polygon fill="#A80036" points="116.628,166.025,111.5237,171.1187,114.2624,177.7895,119.3667,172.6958,116.628,166.025" style="stroke: #A80036; stroke-width: 1.0;"/><text fill="#000000" font-family="sans-serif" font-size="13" lengthAdjust="spacingAndGlyphs" textLength="15" x="99.4545" y="185.7675">1*</text><text fill="#000000" font-family="sans-serif" font-size="13" lengthAdjust="spacingAndGlyphs" textLength="8" x="91.8713" y="241.4124">1</text><!--MD5=[cfbbfbda8fd317afc3dbf40e29e47073]
link Ventilacao to MarcaVentilacao--><path codeLine="182" d="M267,364.108 C267,364.108 267,425.168 267,451.234 " fill="none" id="Ventilacao-MarcaVentilacao" style="stroke: #A80036; stroke-width: 1.0;"/><polygon fill="#A80036" points="267,464.324,271,455.324,267,459.324,263,455.324,267,464.324" style="stroke: #A80036; stroke-width: 1.0;"/><line style="stroke: #A80036; stroke-width: 1.0;" x1="267" x2="267" y1="459.324" y2="451.324"/><polygon fill="#FFFFFF" points="267,352.108,263,358.108,267,364.108,271,358.108,267,352.108" style="stroke: #A80036; stroke-width: 1.0;"/><text fill="#000000" font-family="sans-serif" font-size="13" lengthAdjust="spacingAndGlyphs" textLength="15" x="251.1797" y="371.8596">1*</text><text fill="#000000" font-family="sans-serif" font-size="13" lengthAdjust="spacingAndGlyphs" textLength="8" x="258.3625" y="453.292">1</text><!--MD5=[9366d0e4b4297b6a58fc4158423223a0]
link Armazem to Ventilacao--><path codeLine="183" d="M376.4962,174.6735 C376.4962,174.6735 348.799,203.466 335.784,216.995 " fill="none" id="Armazem-Ventilacao" style="stroke: #A80036; stroke-width: 1.0;"/><polygon fill="#A80036" points="326.43,226.719,335.5523,223.0063,329.8965,223.1157,329.787,217.4599,326.43,226.719" style="stroke: #A80036; stroke-width: 1.0;"/><line style="stroke: #A80036; stroke-width: 1.0;" x1="329.8965" x2="335.443" y1="223.1157" y2="217.3505"/><polygon fill="#FFFFFF" points="384.815,166.025,377.7727,167.5763,376.4962,174.6735,383.5384,173.1222,384.815,166.025" style="stroke: #A80036; stroke-width: 1.0;"/><text fill="#000000" font-family="sans-serif" font-size="13" lengthAdjust="spacingAndGlyphs" textLength="8" x="369.9041" y="185.7675">1</text><text fill="#000000" font-family="sans-serif" font-size="13" lengthAdjust="spacingAndGlyphs" textLength="8" x="324.4927" y="216.1156">1</text><!--MD5=[9add82004a0cc808a28806f85ffc7c35]
link RetirarGrao to Endereco--><path codeLine="184" d="M1804.0646,555.4695 C1804.0646,555.4695 1749.09,678.808 1727.53,727.191 " fill="none" id="RetirarGrao-Endereco" style="stroke: #A80036; stroke-width: 1.0;"/><polygon fill="#A80036" points="1722.17,739.209,1729.4876,732.6171,1724.2056,734.6421,1722.1806,729.3601,1722.17,739.209" style="stroke: #A80036; stroke-width: 1.0;"/><line style="stroke: #A80036; stroke-width: 1.0;" x1="1724.2056" x2="1727.465" y1="734.6421" y2="727.335"/><polygon fill="#A80036" points="1808.95,544.509,1802.8538,548.3608,1804.0646,555.4695,1810.1608,551.6177,1808.95,544.509" style="stroke: #A80036; stroke-width: 1.0;"/><text fill="#000000" font-family="sans-serif" font-size="13" lengthAdjust="spacingAndGlyphs" textLength="8" x="1797.5039" y="564.2709">1</text><text fill="#000000" font-family="sans-serif" font-size="13" lengthAdjust="spacingAndGlyphs" textLength="8" x="1716.3378" y="728.3441">1</text><!--MD5=[e61d24baa25a3dae9b7fd46921836c80]
link ArmazenarGrao to Endereco--><path codeLine="185" d="M1634.293,613.2339 C1634.293,613.2339 1670.81,695.877 1684.73,727.381 " fill="none" id="ArmazenarGrao-Endereco" style="stroke: #A80036; stroke-width: 1.0;"/><polygon fill="#A80036" points="1690.01,739.316,1690.033,729.4672,1687.99,734.7422,1682.7149,732.6992,1690.01,739.316" style="stroke: #A80036; stroke-width: 1.0;"/><line style="stroke: #A80036; stroke-width: 1.0;" x1="1687.99" x2="1684.755" y1="734.7422" y2="727.4255"/><polygon fill="#A80036" points="1629.44,602.259,1628.2082,609.3641,1634.293,613.2339,1635.5248,606.1288,1629.44,602.259" style="stroke: #A80036; stroke-width: 1.0;"/><text fill="#000000" font-family="sans-serif" font-size="13" lengthAdjust="spacingAndGlyphs" textLength="8" x="1624.1895" y="621.8459">1</text><text fill="#000000" font-family="sans-serif" font-size="13" lengthAdjust="spacingAndGlyphs" textLength="8" x="1678.4493" y="728.4702">1</text><!--MD5=[4bfb4aa57a67fc3747af3eba3781f9f9]
link Grao to UnidadeDeMedida--><path codeLine="186" d="M628.9098,164.9218 C628.9098,164.9218 617.58,207.464 612.333,227.168 " fill="none" id="Grao-UnidadeDeMedida" style="stroke: #A80036; stroke-width: 1.0;"/><polygon fill="#A80036" points="608.978,239.766,615.1596,232.0987,610.2649,234.9344,607.4291,230.0397,608.978,239.766" style="stroke: #A80036; stroke-width: 1.0;"/><line style="stroke: #A80036; stroke-width: 1.0;" x1="610.2649" x2="612.3235" y1="234.9344" y2="227.204"/><polygon fill="#FFFFFF" points="631.998,153.326,626.5886,158.0945,628.9098,164.9218,634.3192,160.1533,631.998,153.326" style="stroke: #A80036; stroke-width: 1.0;"/><text fill="#000000" font-family="sans-serif" font-size="13" lengthAdjust="spacingAndGlyphs" textLength="15" x="614.1149" y="173.4483">1*</text><text fill="#000000" font-family="sans-serif" font-size="13" lengthAdjust="spacingAndGlyphs" textLength="8" x="602.2405" y="228.7783">1</text><!--MD5=[b7328005acd279fb6d417bc65e4e5f91]
link Grao to Categoria--><path codeLine="187" d="M683.094,163.4022 C683.094,163.4022 711.918,207.971 725.256,228.593 " fill="none" id="Grao-Categoria" style="stroke: #A80036; stroke-width: 1.0;"/><polygon fill="#A80036" points="732.482,239.766,730.953,230.0366,729.7666,235.5676,724.2355,234.3812,732.482,239.766" style="stroke: #A80036; stroke-width: 1.0;"/><line style="stroke: #A80036; stroke-width: 1.0;" x1="729.7666" x2="725.4215" y1="235.5676" y2="228.85"/><polygon fill="#FFFFFF" points="676.577,153.326,676.4768,160.5364,683.094,163.4022,683.1942,156.1917,676.577,153.326" style="stroke: #A80036; stroke-width: 1.0;"/><text fill="#000000" font-family="sans-serif" font-size="13" lengthAdjust="spacingAndGlyphs" textLength="15" x="664.9628" y="173.4483">1*</text><text fill="#000000" font-family="sans-serif" font-size="13" lengthAdjust="spacingAndGlyphs" textLength="8" x="719.4873" y="228.7783">1</text><!--MD5=[d62c35d70d6b883413450e087b02902d]
reverse link Armazem_Copia to ArmazenarGrao--><path codeLine="188" d="M1785.01,317.369 C1759.93,341.445 1721.63,378.22 1685.44,412.962 " fill="none" id="Armazem_Copia-backto-ArmazenarGrao" style="stroke: #A80036; stroke-width: 1.0;"/><polygon fill="#A80036" points="1788.92,313.616,1779.6615,316.9747,1785.3173,317.0831,1785.2089,322.7389,1788.92,313.616" style="stroke: #A80036; stroke-width: 1.0;"/><text fill="#000000" font-family="sans-serif" font-size="13" lengthAdjust="spacingAndGlyphs" textLength="8" x="1774.0755" y="333.4055">1</text><text fill="#000000" font-family="sans-serif" font-size="13" lengthAdjust="spacingAndGlyphs" textLength="8" x="1684.886" y="401.9089">1</text><!--MD5=[a7cefcd755382eb6e0979709d53ee720]
reverse link Grao_Copia to ArmazenarGrao--><path codeLine="189" d="M1653.25,318.568 C1644.89,342.655 1632.34,378.792 1620.48,412.962 " fill="none" id="Grao_Copia-backto-ArmazenarGrao" style="stroke: #A80036; stroke-width: 1.0;"/><polygon fill="#A80036" points="1654.97,313.616,1648.2417,320.8084,1653.3316,318.3399,1655.8,323.4298,1654.97,313.616" style="stroke: #A80036; stroke-width: 1.0;"/><text fill="#000000" font-family="sans-serif" font-size="13" lengthAdjust="spacingAndGlyphs" textLength="8" x="1644.0377" y="333.4055">1</text><text fill="#000000" font-family="sans-serif" font-size="13" lengthAdjust="spacingAndGlyphs" textLength="8" x="1614.7495" y="401.9089">1</text><!--MD5=[2252e63a80250441e805c4e31753db7f]
reverse link Motorista_Copia to ArmazenarGrao--><path codeLine="190" d="M1522.75,318.568 C1531.11,342.655 1543.66,378.792 1555.52,412.962 " fill="none" id="Motorista_Copia-backto-ArmazenarGrao" style="stroke: #A80036; stroke-width: 1.0;"/><polygon fill="#A80036" points="1521.03,313.616,1520.2,323.4298,1522.6684,318.3399,1527.7583,320.8084,1521.03,313.616" style="stroke: #A80036; stroke-width: 1.0;"/><text fill="#000000" font-family="sans-serif" font-size="13" lengthAdjust="spacingAndGlyphs" textLength="8" x="1514.0123" y="333.4055">1</text><text fill="#000000" font-family="sans-serif" font-size="13" lengthAdjust="spacingAndGlyphs" textLength="8" x="1544.613" y="401.9089">1</text><!--MD5=[d911555b90fb07ed07d0f71d37470d4b]
reverse link Agricultor_Copia to ArmazenarGrao--><path codeLine="191" d="M1947.27,316.907 C1932.25,328.834 1913.46,342.376 1895,352 C1819.35,391.436 1788.56,373.393 1713,413 C1707.24,416.02 1701.46,419.295 1695.72,422.751 " fill="none" id="Agricultor_Copia-backto-ArmazenarGrao" style="stroke: #A80036; stroke-width: 1.0;"/><polygon fill="#A80036" points="1951.4,313.59,1941.8772,316.1032,1947.5004,316.7194,1946.8842,322.3426,1951.4,313.59" style="stroke: #A80036; stroke-width: 1.0;"/><text fill="#000000" font-family="sans-serif" font-size="13" lengthAdjust="spacingAndGlyphs" textLength="8" x="1935.9413" y="333.3731">1</text><text fill="#000000" font-family="sans-serif" font-size="13" lengthAdjust="spacingAndGlyphs" textLength="8" x="1703.5753" y="413.3415">1</text><!--MD5=[3d471a2d5f5774e8e96bcab329614c03]
reverse link Armazem_Copia to RetirarGrao--><path codeLine="192" d="M1814.56,318.655 C1816.72,357.512 1820.62,427.605 1822.99,470.308 " fill="none" id="Armazem_Copia-backto-RetirarGrao" style="stroke: #A80036; stroke-width: 1.0;"/><polygon fill="#A80036" points="1814.28,313.616,1810.7842,322.8236,1814.5567,318.6083,1818.772,322.3808,1814.28,313.616" style="stroke: #A80036; stroke-width: 1.0;"/><text fill="#000000" font-family="sans-serif" font-size="13" lengthAdjust="spacingAndGlyphs" textLength="8" x="1805.617" y="333.4055">1</text><text fill="#000000" font-family="sans-serif" font-size="13" lengthAdjust="spacingAndGlyphs" textLength="8" x="1813.9195" y="459.4608">1</text><!--MD5=[0f678b1607acc2fdba838178725144d0]
reverse link Grao_Copia to RetirarGrao--><path codeLine="193" d="M1683.41,317.71 C1712.4,356.366 1765.57,427.256 1797.86,470.308 " fill="none" id="Grao_Copia-backto-RetirarGrao" style="stroke: #A80036; stroke-width: 1.0;"/><polygon fill="#A80036" points="1680.34,313.616,1682.54,323.216,1683.34,317.616,1688.94,318.416,1680.34,313.616" style="stroke: #A80036; stroke-width: 1.0;"/><text fill="#000000" font-family="sans-serif" font-size="13" lengthAdjust="spacingAndGlyphs" textLength="8" x="1675.5916" y="333.4055">1</text><text fill="#000000" font-family="sans-serif" font-size="13" lengthAdjust="spacingAndGlyphs" textLength="8" x="1784.3132" y="459.4608">1</text><!--MD5=[298cb57e84514196bc5d88b04a60c2cc]
reverse link Agricultor_Copia to RetirarGrao--><path codeLine="194" d="M1958.73,317.71 C1931.34,356.366 1881.13,427.256 1850.64,470.308 " fill="none" id="Agricultor_Copia-backto-RetirarGrao" style="stroke: #A80036; stroke-width: 1.0;"/><polygon fill="#A80036" points="1961.63,313.616,1953.1588,318.6397,1958.7359,317.6933,1959.6824,323.2704,1961.63,313.616" style="stroke: #A80036; stroke-width: 1.0;"/><text fill="#000000" font-family="sans-serif" font-size="13" lengthAdjust="spacingAndGlyphs" textLength="8" x="1948.6648" y="333.4055">1</text><text fill="#000000" font-family="sans-serif" font-size="13" lengthAdjust="spacingAndGlyphs" textLength="8" x="1846.4946" y="459.4608">1</text><!--MD5=[711a00c8a0ee3361f311301201c6ded5]
reverse link Motorista_Copia to RetirarGrao--><path codeLine="195" d="M1545.45,316.801 C1560.17,328.212 1578.05,341.367 1595,352 C1645.01,383.375 1663.82,380.332 1713,413 C1738.63,430.029 1765.16,451.955 1785.97,470.294 " fill="none" id="Motorista_Copia-backto-RetirarGrao" style="stroke: #A80036; stroke-width: 1.0;"/><polygon fill="#A80036" points="1541.39,313.632,1546.0334,322.3176,1545.335,316.704,1550.9486,316.0056,1541.39,313.632" style="stroke: #A80036; stroke-width: 1.0;"/><text fill="#000000" font-family="sans-serif" font-size="13" lengthAdjust="spacingAndGlyphs" textLength="8" x="1539.3351" y="333.4254">1</text><text fill="#000000" font-family="sans-serif" font-size="13" lengthAdjust="spacingAndGlyphs" textLength="8" x="1770.3053" y="459.4443">1</text><!--MD5=[7ac92fff71ffbf7fc9b0de2d4bf1b126]
link Cidade to Estado--><path codeLine="196" d="M1050,338.654 C1050,338.654 1050,421.768 1050,456.912 " fill="none" id="Cidade-Estado" style="stroke: #A80036; stroke-width: 1.0;"/><polygon fill="#A80036" points="1050,470.229,1054,461.229,1050,465.229,1046,461.229,1050,470.229" style="stroke: #A80036; stroke-width: 1.0;"/><line style="stroke: #A80036; stroke-width: 1.0;" x1="1050" x2="1050" y1="465.229" y2="457.2285"/><polygon fill="#FFFFFF" points="1050,326.654,1046,332.654,1050,338.654,1054,332.654,1050,326.654" style="stroke: #A80036; stroke-width: 1.0;"/><text fill="#000000" font-family="sans-serif" font-size="13" lengthAdjust="spacingAndGlyphs" textLength="19" x="1029.4266" y="346.1601">1 *</text><text fill="#000000" font-family="sans-serif" font-size="13" lengthAdjust="spacingAndGlyphs" textLength="8" x="1041.2875" y="459.3677">1</text><!--MD5=[5e49a82029cbe9dbe0064e468b63c9bf]
link Pessoa to Cidade--><path codeLine="197" d="M1094.736,170.9229 C1094.736,170.9229 1076.42,219.048 1068.51,239.836 " fill="none" id="Pessoa-Cidade" style="stroke: #A80036; stroke-width: 1.0;"/><polygon fill="#A80036" points="1063.8,252.232,1070.7404,245.2441,1065.579,247.5592,1063.2639,242.3977,1063.8,252.232" style="stroke: #A80036; stroke-width: 1.0;"/><line style="stroke: #A80036; stroke-width: 1.0;" x1="1065.579" x2="1068.42" y1="247.5592" y2="240.081"/><polygon fill="#FFFFFF" points="1099,159.706,1093.129,163.8931,1094.736,170.9229,1100.607,166.7358,1099,159.706" style="stroke: #A80036; stroke-width: 1.0;"/><text fill="#000000" font-family="sans-serif" font-size="13" lengthAdjust="spacingAndGlyphs" textLength="19" x="1076.2828" y="179.5437">1 *</text><text fill="#000000" font-family="sans-serif" font-size="13" lengthAdjust="spacingAndGlyphs" textLength="8" x="1057.5456" y="241.3712">1</text><!--MD5=[58752b1fcdaddecf7590e56eda03964a]
link PlanoDeCusto to PlanoDeCusto--><path codeLine="198" d="M225.621,86.831 C245.892,88.555 260.5,94.111 260.5,103.5 C260.5,112.082 248.295,117.462 230.716,119.639 " fill="none" id="PlanoDeCusto-to-PlanoDeCusto" style="stroke: #A80036; stroke-width: 1.0;"/><polygon fill="#A80036" points="225.621,120.169,234.9865,123.2166,230.5942,119.6518,234.159,115.2595,225.621,120.169" style="stroke: #A80036; stroke-width: 1.0;"/><text fill="#000000" font-family="sans-serif" font-size="13" lengthAdjust="spacingAndGlyphs" textLength="84" x="266.5" y="108.0669">dependentes</text><text fill="#000000" font-family="sans-serif" font-size="13" lengthAdjust="spacingAndGlyphs" textLength="8" x="233.6392" y="81.9841">1</text><text fill="#000000" font-family="sans-serif" font-size="13" lengthAdjust="spacingAndGlyphs" textLength="7" x="233.5994" y="117.9787">*</text><!--MD5=[5557899370878fdbc5b040da2d215883]
link Situacao to Armazem_Copia--><path codeLine="199" d="M1813,152.852 C1813,152.852 1813,224.103 1813,252.148 " fill="none" id="Situacao-Armazem_Copia" style="stroke: #A80036; stroke-width: 1.0;"/><polygon fill="#A80036" points="1813,265.323,1817,256.323,1813,260.323,1809,256.323,1813,265.323" style="stroke: #A80036; stroke-width: 1.0;"/><line style="stroke: #A80036; stroke-width: 1.0;" x1="1813" x2="1813" y1="260.323" y2="252.323"/><polygon fill="#FFFFFF" points="1813,140.852,1809,146.852,1813,152.852,1817,146.852,1813,140.852" style="stroke: #A80036; stroke-width: 1.0;"/><text fill="#000000" font-family="sans-serif" font-size="13" lengthAdjust="spacingAndGlyphs" textLength="8" x="1804.3625" y="160.1089">1</text><text fill="#000000" font-family="sans-serif" font-size="13" lengthAdjust="spacingAndGlyphs" textLength="8" x="1803.975" y="254.2897">1</text><!--MD5=[737acf7e7e6b7d764aa3047f5e8e6689]
@startuml
package Crud_e_Modelagem <<Folder>> {
class Pessoa {
  -id: Integer 
  -nome:String 
  -nif: String 
  -email:String 
  -telefone: String 
}

class Usuario {
  -senha:String 
  +void methods()
}

class Cidade {
  -id:Integer 
  -nome:String 
}

class Estado {
  -id:Integer 
  -nome:String 
}


class Agricultor {
  -imagem: String
  -status:Boolean 
  +void methods()
}

class Motorista {
  +void methods()
}

class Caminhao {
   -placaCaminhao: String
   -volume: double
   -tamanho: Integer
   -Double: peso
}



Enum MarcaCaminhao{
  VOLKSWAGEN:Integer
  MERCEDESBENZ:Integer
  VOLVO:Integer
  SCANIA:Integer
  FORD:Integer
  IVECO:Integer
  HYUNDAI:Integer
  MAN:Integer
  AGRALE:Integer
  EFFA:Integer
  INTERNATIONAL:Integer
  SINOTRUCK:Integer
  SHACMAN:Integer
  EXTERNA:Integer
  
}

class UnidadeDeMedida{
  -id: Integer 
  -unidadeMedida: String 
  -desc: String 
  +void methods()
}

class Categoria{
  -id: Integer 
  -sigla: String 
  -desc: String 
  +void methods()
}

class Grao{
  -id: Integer 
  -nome: String
  -desc: String 
  +void methods()
}

class MarcaVentilacao{
  -id: Integer 
  -marca: String 
  -desc: String 
  
}

class Ventilacao{
  -id: Integer 
  -nome: 
  -desc: String 
  -velocidadeRPM: Double 
  -kilowats: Double 
  +void methods()
}

class Armazem {
  -id: Integer 
  -desc: String 
  -sigla: String 
  -status: Boolean 
  -capacidade: Double 
  -imagem: String
  
}

class Localizacao {
  -lat: String 
  -long: String 
}

Enum TipoConta{
  DEVEDORA:Integer
  CREDORA:Integer
}

class PlanoDeCusto {
  -id: Integer 
  -dataContabilidade: LocalDate 
  -bloqueado: Boolean 
  -obrigatorio: Boolean 
  -preco: Double 
  -desc: String 

}
}

package Movimentações <<Folder>> {

class ArmazenarGrao {
  -id: Integer 
  -horarioArmazenagem: LocalTime 
  -estadoDoGrao: String 
  -umidadeRelativaDoAr: String 
  -pressaoVaporGrao: String 
  -pressaoVaporAr: String 
  -temperatura: Double 
  -condicaoArmazenamento: String 
  -etapaArmazenamento: String 
  -custoArmazenagem: Double 
  -quantidadeArmazenada: Double 
  
}

class RetirarGrao{
  -id: Integer 
  -quantidadeRetirada : Double 
}

class Situacao{
  -id: Integer 
  -quantidadeArmazenada : Double 
}

class Endereco{
  -id: Integer 
  -endereco: String 
}

class Agricultor_Copia #green{
}

class Armazem_Copia #green{
}

class Grao_Copia #green {
}

class Motorista_Copia #green {
}
}
Pessoa "1" <- - "1" Usuario 
Pessoa "1" <- - "1" Agricultor 
Pessoa "1" <- - "1" Motorista 
Motorista "1" *- -> "1" Caminhao
Caminhao"1" o- -> "1" MarcaCaminhao 
Armazem "1" *- -> "1" Localizacao 
PlanoDeCusto  "1*" *- -> "1" TipoConta 
Ventilacao "1*" o- -> "1" MarcaVentilacao 
Armazem "1" o- -> "1" Ventilacao 
RetirarGrao "1" *- -> "1" Endereco 
ArmazenarGrao "1" *- -> "1" Endereco
Grao "1*" o- -> "1" UnidadeDeMedida 
Grao "1*" o- -> "1" Categoria 
Armazem_Copia "1" <- - "1" ArmazenarGrao 
Grao_Copia "1" <- - "1" ArmazenarGrao 
Motorista_Copia "1" <- - "1" ArmazenarGrao 
Agricultor_Copia "1" <- - "1" ArmazenarGrao  
Armazem_Copia "1" <- - "1" RetirarGrao 
Grao_Copia "1" <- - "1" RetirarGrao 
Agricultor_Copia "1" <- - "1" RetirarGrao 
Motorista_Copia "1" <- - "1"RetirarGrao  
Cidade "1 *" o- -> "1" Estado 
Pessoa "1 *" o- -> "1" Cidade 
PlanoDeCusto  "1" - -> "*" PlanoDeCusto : "dependentes"
Situacao "1" o- -> "1" "Armazem_Copia"
@enduml

PlantUML version 1.2020.20beta3(Unknown compile time)
(GPL source distribution)
Java Runtime: Java(TM) SE Runtime Environment
JVM: Java HotSpot(TM) 64-Bit Server VM
Default Encoding: UTF-8
Language: en
Country: US
--></g></svg>